<mxfile host="app.diagrams.net" modified="2020-09-15T17:34:08.242Z" agent="5.0 (Windows NT 10.0; Win64; x64) AppleWebKit/537.36 (KHTML, like Gecko) Chrome/85.0.4183.102 Safari/537.36" etag="7-MB_iQ6UIuxgPiLpdkx" version="13.7.1" type="github" pages="5">
  <diagram id="74e2e168-ea6b-b213-b513-2b3c1d86103e" name="General">
    <mxGraphModel dx="2185" dy="2003" grid="1" gridSize="10" guides="1" tooltips="1" connect="1" arrows="1" fold="1" page="1" pageScale="1" pageWidth="827" pageHeight="1169" math="0" shadow="0">
      <root>
        <mxCell id="0" />
        <mxCell id="1" parent="0" />
        <mxCell id="zUKSaovnpH7fVIxJ_rEp-3" value="" style="rounded=0;whiteSpace=wrap;html=1;fillColor=none;strokeColor=#808080;" parent="1" vertex="1">
          <mxGeometry x="-220" y="-983" width="180" height="43" as="geometry" />
        </mxCell>
        <mxCell id="b44zEPOn9F3BgOh4Rijz-67" value="" style="rounded=0;whiteSpace=wrap;html=1;labelBackgroundColor=none;strokeColor=#666666;fillColor=none;fontSize=10;align=center;" parent="1" vertex="1">
          <mxGeometry x="-820" y="-1160" width="1180" height="1000" as="geometry" />
        </mxCell>
        <mxCell id="b44zEPOn9F3BgOh4Rijz-3" value="Pedidos" style="shape=swimlane;startSize=25;fontSize=13;fontColor=#333333;fontStyle=1;align=center;strokeColor=#666666;strokeOpacity=100;fillOpacity=100;rotation=0;fillColor=#ffffff;strokeWidth=1.2;" parent="1" vertex="1">
          <mxGeometry x="137" y="-1078" width="160" height="207" as="geometry">
            <mxRectangle x="240" y="-1087" width="110" height="25" as="alternateBounds" />
          </mxGeometry>
        </mxCell>
        <mxCell id="b44zEPOn9F3BgOh4Rijz-4" value="" style="pointerEvents=1;shadow=0;dashed=0;html=1;strokeColor=none;fillColor=#505050;labelPosition=center;verticalLabelPosition=bottom;verticalAlign=top;outlineConnect=0;align=center;shape=mxgraph.office.servers.server_farm;fillColor=#7FBA42;" parent="b44zEPOn9F3BgOh4Rijz-3" vertex="1">
          <mxGeometry x="52" y="97" width="56" height="49" as="geometry" />
        </mxCell>
        <mxCell id="b44zEPOn9F3BgOh4Rijz-32" value="" style="ellipse;whiteSpace=wrap;html=1;fontSize=21;fillColor=#dae8fc;strokeColor=#6c8ebf;" parent="b44zEPOn9F3BgOh4Rijz-3" vertex="1">
          <mxGeometry x="13" y="177" width="20" height="20" as="geometry" />
        </mxCell>
        <mxCell id="b44zEPOn9F3BgOh4Rijz-33" value="&lt;font style=&quot;font-size: 10px&quot;&gt;Microservices&lt;/font&gt;" style="ellipse;whiteSpace=wrap;html=1;fontSize=21;fillColor=#dae8fc;strokeColor=#6c8ebf;" parent="b44zEPOn9F3BgOh4Rijz-3" vertex="1">
          <mxGeometry x="33" y="177" width="20" height="20" as="geometry" />
        </mxCell>
        <mxCell id="b44zEPOn9F3BgOh4Rijz-36" value="&lt;font style=&quot;font-size: 10px&quot;&gt;Microservices&lt;/font&gt;" style="ellipse;whiteSpace=wrap;html=1;fontSize=21;fillColor=#dae8fc;strokeColor=#6c8ebf;" parent="b44zEPOn9F3BgOh4Rijz-3" vertex="1">
          <mxGeometry x="33" y="177" width="20" height="20" as="geometry" />
        </mxCell>
        <mxCell id="kFB3VKsAzfuebwOxzI4B-115" value="Kafka" style="shape=swimlane;startSize=25;fontSize=13;fontStyle=1;align=center;strokeColor=#82b366;strokeOpacity=100;fillOpacity=100;rotation=0;fillColor=#d5e8d4;strokeWidth=1.2;" parent="1" vertex="1">
          <mxGeometry x="-290" y="-831" width="360" height="124" as="geometry">
            <mxRectangle x="240" y="-1087" width="110" height="25" as="alternateBounds" />
          </mxGeometry>
        </mxCell>
        <mxCell id="b44zEPOn9F3BgOh4Rijz-28" value="" style="outlineConnect=0;fontColor=#232F3E;gradientColor=none;fillColor=#D05C17;strokeColor=none;dashed=0;verticalLabelPosition=bottom;verticalAlign=top;align=center;html=1;fontSize=12;fontStyle=0;aspect=fixed;pointerEvents=1;shape=mxgraph.aws4.ecs_service;" parent="kFB3VKsAzfuebwOxzI4B-115" vertex="1">
          <mxGeometry x="10" y="67.5" width="27.9" height="34" as="geometry" />
        </mxCell>
        <mxCell id="b44zEPOn9F3BgOh4Rijz-42" style="edgeStyle=orthogonalEdgeStyle;rounded=0;orthogonalLoop=1;jettySize=auto;html=1;dashed=1;fontSize=21;" parent="kFB3VKsAzfuebwOxzI4B-115" source="b44zEPOn9F3BgOh4Rijz-39" target="b44zEPOn9F3BgOh4Rijz-41" edge="1">
          <mxGeometry relative="1" as="geometry" />
        </mxCell>
        <mxCell id="b44zEPOn9F3BgOh4Rijz-39" value="&lt;font style=&quot;font-size: 10px&quot;&gt;master&lt;/font&gt;" style="pointerEvents=1;shadow=0;dashed=0;html=1;strokeColor=none;labelPosition=center;verticalLabelPosition=bottom;verticalAlign=top;outlineConnect=0;align=center;shape=mxgraph.office.servers.server_generic;fillColor=#7FBA42;labelBackgroundColor=none;fontSize=21;" parent="kFB3VKsAzfuebwOxzI4B-115" vertex="1">
          <mxGeometry x="174" y="36" width="27" height="52" as="geometry" />
        </mxCell>
        <mxCell id="b44zEPOn9F3BgOh4Rijz-40" value="&lt;font style=&quot;font-size: 10px&quot;&gt;kafka2&lt;/font&gt;" style="pointerEvents=1;shadow=0;dashed=0;html=1;strokeColor=none;labelPosition=center;verticalLabelPosition=bottom;verticalAlign=top;outlineConnect=0;align=center;shape=mxgraph.office.servers.server_generic;fillColor=#7FBA42;labelBackgroundColor=none;fontSize=21;" parent="kFB3VKsAzfuebwOxzI4B-115" vertex="1">
          <mxGeometry x="290" y="37" width="27" height="52" as="geometry" />
        </mxCell>
        <mxCell id="b44zEPOn9F3BgOh4Rijz-41" value="&lt;font style=&quot;font-size: 10px&quot;&gt;kafka1&lt;/font&gt;" style="pointerEvents=1;shadow=0;dashed=0;html=1;strokeColor=none;labelPosition=center;verticalLabelPosition=bottom;verticalAlign=top;outlineConnect=0;align=center;shape=mxgraph.office.servers.server_generic;fillColor=#7FBA42;labelBackgroundColor=none;fontSize=21;" parent="kFB3VKsAzfuebwOxzI4B-115" vertex="1">
          <mxGeometry x="250" y="37" width="27" height="52" as="geometry" />
        </mxCell>
        <mxCell id="b44zEPOn9F3BgOh4Rijz-43" value="&lt;font style=&quot;font-size: 10px&quot;&gt;cloud / confluent&lt;/font&gt;" style="pointerEvents=1;shadow=0;dashed=0;html=1;strokeColor=none;labelPosition=center;verticalLabelPosition=bottom;verticalAlign=top;outlineConnect=0;align=center;shape=mxgraph.office.servers.virtual_server;fillColor=#2072B8;labelBackgroundColor=none;fontSize=21;" parent="kFB3VKsAzfuebwOxzI4B-115" vertex="1">
          <mxGeometry x="90" y="36" width="28" height="52" as="geometry" />
        </mxCell>
        <mxCell id="b44zEPOn9F3BgOh4Rijz-17" style="edgeStyle=orthogonalEdgeStyle;rounded=0;orthogonalLoop=1;jettySize=auto;html=1;entryX=0;entryY=0.25;entryDx=0;entryDy=0;fontSize=21;" parent="1" source="kFB3VKsAzfuebwOxzI4B-119" target="kFB3VKsAzfuebwOxzI4B-115" edge="1">
          <mxGeometry relative="1" as="geometry" />
        </mxCell>
        <mxCell id="b44zEPOn9F3BgOh4Rijz-22" style="edgeStyle=orthogonalEdgeStyle;rounded=0;orthogonalLoop=1;jettySize=auto;html=1;entryX=0;entryY=0.75;entryDx=0;entryDy=0;dashed=1;fontSize=21;fillColor=#d5e8d4;strokeColor=#82b366;" parent="1" source="kFB3VKsAzfuebwOxzI4B-119" target="kFB3VKsAzfuebwOxzI4B-125" edge="1">
          <mxGeometry relative="1" as="geometry">
            <Array as="points">
              <mxPoint x="-370" y="-941" />
              <mxPoint x="-370" y="-621" />
            </Array>
          </mxGeometry>
        </mxCell>
        <mxCell id="kFB3VKsAzfuebwOxzI4B-119" value="MegaPost" style="shape=swimlane;startSize=25;fontSize=13;fontStyle=1;align=center;strokeColor=#d6b656;strokeOpacity=100;fillOpacity=100;rotation=0;fillColor=#fff2cc;strokeWidth=1.2;" parent="1" vertex="1">
          <mxGeometry x="-610" y="-1078" width="200" height="207" as="geometry">
            <mxRectangle x="-80" y="-1087" width="90" height="25" as="alternateBounds" />
          </mxGeometry>
        </mxCell>
        <mxCell id="b44zEPOn9F3BgOh4Rijz-11" value="" style="pointerEvents=1;shadow=0;dashed=0;html=1;strokeColor=none;fillColor=#505050;labelPosition=center;verticalLabelPosition=bottom;verticalAlign=top;outlineConnect=0;align=center;shape=mxgraph.office.servers.application_server_blue;fontSize=21;" parent="kFB3VKsAzfuebwOxzI4B-119" vertex="1">
          <mxGeometry x="90" y="137" width="46" height="56" as="geometry" />
        </mxCell>
        <mxCell id="b44zEPOn9F3BgOh4Rijz-12" value="" style="pointerEvents=1;shadow=0;dashed=0;html=1;strokeColor=none;fillColor=#505050;labelPosition=center;verticalLabelPosition=bottom;verticalAlign=top;outlineConnect=0;align=center;shape=mxgraph.office.servers.application_server_blue;fontSize=21;" parent="kFB3VKsAzfuebwOxzI4B-119" vertex="1">
          <mxGeometry x="30" y="95.5" width="46" height="56" as="geometry" />
        </mxCell>
        <mxCell id="b44zEPOn9F3BgOh4Rijz-20" value="" style="pointerEvents=1;shadow=0;dashed=0;html=1;strokeColor=none;fillColor=#505050;labelPosition=center;verticalLabelPosition=bottom;verticalAlign=top;outlineConnect=0;align=center;shape=mxgraph.office.servers.application_server_blue;fontSize=21;" parent="kFB3VKsAzfuebwOxzI4B-119" vertex="1">
          <mxGeometry x="60" y="39.5" width="46" height="56" as="geometry" />
        </mxCell>
        <mxCell id="kFB3VKsAzfuebwOxzI4B-123" value="HeadQuarter" style="shape=swimlane;startSize=25;fontSize=13;fontStyle=1;align=center;strokeColor=#6c8ebf;strokeOpacity=100;fillOpacity=100;rotation=0;fillColor=#dae8fc;strokeWidth=1.2;" parent="1" vertex="1">
          <mxGeometry x="-230" y="-1078" width="200" height="207" as="geometry">
            <mxRectangle x="-230" y="-1078" width="110" height="25" as="alternateBounds" />
          </mxGeometry>
        </mxCell>
        <mxCell id="kFB3VKsAzfuebwOxzI4B-124" value="" style="pointerEvents=1;shadow=0;dashed=0;html=1;strokeColor=none;fillColor=#505050;labelPosition=center;verticalLabelPosition=bottom;verticalAlign=top;outlineConnect=0;align=center;shape=mxgraph.office.servers.server_farm;fillColor=#7FBA42;" parent="kFB3VKsAzfuebwOxzI4B-123" vertex="1">
          <mxGeometry x="72" y="38" width="56" height="49" as="geometry" />
        </mxCell>
        <mxCell id="b44zEPOn9F3BgOh4Rijz-37" value="" style="ellipse;whiteSpace=wrap;html=1;fontSize=21;fillColor=#dae8fc;strokeColor=#6c8ebf;opacity=50;" parent="kFB3VKsAzfuebwOxzI4B-123" vertex="1">
          <mxGeometry x="80" y="108" width="20" height="20" as="geometry" />
        </mxCell>
        <mxCell id="b44zEPOn9F3BgOh4Rijz-38" value="&lt;font style=&quot;font-size: 10px&quot;&gt;Microservices&lt;/font&gt;" style="ellipse;whiteSpace=wrap;html=1;fontSize=21;fillColor=#dae8fc;strokeColor=#6c8ebf;" parent="kFB3VKsAzfuebwOxzI4B-123" vertex="1">
          <mxGeometry x="90" y="108" width="20" height="20" as="geometry" />
        </mxCell>
        <mxCell id="kFB3VKsAzfuebwOxzI4B-125" value="Middleware" style="shape=swimlane;startSize=25;fontSize=13;fontStyle=1;align=center;strokeColor=#6c8ebf;strokeOpacity=100;fillOpacity=100;rotation=0;fillColor=#dae8fc;strokeWidth=1.2;" parent="1" vertex="1">
          <mxGeometry x="-290" y="-711" width="360" height="120" as="geometry">
            <mxRectangle x="240" y="-1087" width="110" height="25" as="alternateBounds" />
          </mxGeometry>
        </mxCell>
        <mxCell id="kFB3VKsAzfuebwOxzI4B-126" value="" style="pointerEvents=1;shadow=0;dashed=0;html=1;strokeColor=none;fillColor=#505050;labelPosition=center;verticalLabelPosition=bottom;verticalAlign=top;outlineConnect=0;align=center;shape=mxgraph.office.servers.server_farm;fillColor=#7FBA42;" parent="kFB3VKsAzfuebwOxzI4B-125" vertex="1">
          <mxGeometry x="172" y="60" width="56" height="49" as="geometry" />
        </mxCell>
        <mxCell id="b44zEPOn9F3BgOh4Rijz-24" value="" style="ellipse;whiteSpace=wrap;html=1;fontSize=21;fillColor=#dae8fc;strokeColor=#6c8ebf;" parent="kFB3VKsAzfuebwOxzI4B-125" vertex="1">
          <mxGeometry x="10" y="40" width="20" height="20" as="geometry" />
        </mxCell>
        <mxCell id="b44zEPOn9F3BgOh4Rijz-25" value="" style="ellipse;whiteSpace=wrap;html=1;fontSize=21;fillColor=#dae8fc;strokeColor=#6c8ebf;" parent="kFB3VKsAzfuebwOxzI4B-125" vertex="1">
          <mxGeometry x="30" y="40" width="20" height="20" as="geometry" />
        </mxCell>
        <mxCell id="b44zEPOn9F3BgOh4Rijz-14" style="edgeStyle=orthogonalEdgeStyle;rounded=0;orthogonalLoop=1;jettySize=auto;html=1;entryX=0;entryY=0.75;entryDx=0;entryDy=0;fontSize=21;" parent="1" source="kFB3VKsAzfuebwOxzI4B-127" target="kFB3VKsAzfuebwOxzI4B-115" edge="1">
          <mxGeometry relative="1" as="geometry" />
        </mxCell>
        <mxCell id="b44zEPOn9F3BgOh4Rijz-53" style="edgeStyle=orthogonalEdgeStyle;rounded=0;orthogonalLoop=1;jettySize=auto;html=1;dashed=1;fontSize=21;" parent="1" source="kFB3VKsAzfuebwOxzI4B-127" target="b44zEPOn9F3BgOh4Rijz-51" edge="1">
          <mxGeometry relative="1" as="geometry">
            <Array as="points">
              <mxPoint x="-650" y="-778" />
              <mxPoint x="-650" y="-472" />
            </Array>
          </mxGeometry>
        </mxCell>
        <mxCell id="kFB3VKsAzfuebwOxzI4B-127" value="Microsoft Dynamics" style="shape=swimlane;startSize=25;fontSize=13;fontColor=#333333;fontStyle=1;align=center;strokeColor=#666666;strokeOpacity=100;fillOpacity=100;rotation=0;fillColor=#ffffff;strokeWidth=1.2;" parent="1" vertex="1">
          <mxGeometry x="-610" y="-791" width="200" height="160" as="geometry">
            <mxRectangle x="-610" y="-791" width="110" height="25" as="alternateBounds" />
          </mxGeometry>
        </mxCell>
        <mxCell id="kFB3VKsAzfuebwOxzI4B-128" value="" style="pointerEvents=1;shadow=0;dashed=0;html=1;strokeColor=none;fillColor=#505050;labelPosition=center;verticalLabelPosition=bottom;verticalAlign=top;outlineConnect=0;align=center;shape=mxgraph.office.servers.server_farm;fillColor=#7FBA42;" parent="kFB3VKsAzfuebwOxzI4B-127" vertex="1">
          <mxGeometry x="60" y="31" width="56" height="49" as="geometry" />
        </mxCell>
        <mxCell id="kFB3VKsAzfuebwOxzI4B-129" value="PROMO" style="shape=swimlane;startSize=25;fontSize=13;fontColor=#333333;fontStyle=1;align=center;strokeColor=#666666;strokeOpacity=100;fillOpacity=100;rotation=0;fillColor=#ffffff;strokeWidth=1.2;" parent="1" vertex="1">
          <mxGeometry x="-800" y="-1078" width="126" height="130" as="geometry">
            <mxRectangle x="850" y="-1080" width="110" height="25" as="alternateBounds" />
          </mxGeometry>
        </mxCell>
        <mxCell id="b44zEPOn9F3BgOh4Rijz-55" value="" style="pointerEvents=1;shadow=0;dashed=0;html=1;strokeColor=none;fillColor=#505050;labelPosition=center;verticalLabelPosition=bottom;verticalAlign=top;outlineConnect=0;align=center;shape=mxgraph.office.servers.web_server_blue;labelBackgroundColor=none;fontSize=21;" parent="kFB3VKsAzfuebwOxzI4B-129" vertex="1">
          <mxGeometry x="39" y="41.5" width="48" height="57" as="geometry" />
        </mxCell>
        <mxCell id="b44zEPOn9F3BgOh4Rijz-15" style="edgeStyle=orthogonalEdgeStyle;rounded=0;orthogonalLoop=1;jettySize=auto;html=1;fontSize=21;" parent="1" source="b44zEPOn9F3BgOh4Rijz-1" edge="1">
          <mxGeometry relative="1" as="geometry">
            <mxPoint x="-290" y="-631" as="targetPoint" />
          </mxGeometry>
        </mxCell>
        <mxCell id="b44zEPOn9F3BgOh4Rijz-21" value="Rest" style="edgeLabel;html=1;align=center;verticalAlign=middle;resizable=0;points=[];fontSize=12;" parent="b44zEPOn9F3BgOh4Rijz-15" vertex="1" connectable="0">
          <mxGeometry x="-0.3188" y="-1" relative="1" as="geometry">
            <mxPoint as="offset" />
          </mxGeometry>
        </mxCell>
        <mxCell id="b44zEPOn9F3BgOh4Rijz-54" style="edgeStyle=orthogonalEdgeStyle;rounded=0;orthogonalLoop=1;jettySize=auto;html=1;dashed=1;fontSize=21;" parent="1" source="b44zEPOn9F3BgOh4Rijz-1" target="b44zEPOn9F3BgOh4Rijz-51" edge="1">
          <mxGeometry relative="1" as="geometry">
            <Array as="points">
              <mxPoint x="-650" y="-618" />
              <mxPoint x="-650" y="-472" />
            </Array>
          </mxGeometry>
        </mxCell>
        <mxCell id="b44zEPOn9F3BgOh4Rijz-1" value="ATIX" style="shape=swimlane;startSize=25;fontSize=13;fontColor=#333333;fontStyle=1;align=center;strokeColor=#666666;strokeOpacity=100;fillOpacity=100;rotation=0;fillColor=#ffffff;strokeWidth=1.2;" parent="1" vertex="1">
          <mxGeometry x="-610" y="-610" width="200" height="101" as="geometry">
            <mxRectangle x="-610" y="-631" width="110" height="25" as="alternateBounds" />
          </mxGeometry>
        </mxCell>
        <mxCell id="b44zEPOn9F3BgOh4Rijz-2" value="" style="pointerEvents=1;shadow=0;dashed=0;html=1;strokeColor=none;fillColor=#505050;labelPosition=center;verticalLabelPosition=bottom;verticalAlign=top;outlineConnect=0;align=center;shape=mxgraph.office.servers.server_farm;fillColor=#7FBA42;" parent="b44zEPOn9F3BgOh4Rijz-1" vertex="1">
          <mxGeometry x="47" y="40" width="56" height="49" as="geometry" />
        </mxCell>
        <mxCell id="b44zEPOn9F3BgOh4Rijz-16" style="edgeStyle=orthogonalEdgeStyle;rounded=0;orthogonalLoop=1;jettySize=auto;html=1;entryX=1;entryY=0.75;entryDx=0;entryDy=0;fontSize=21;" parent="1" target="kFB3VKsAzfuebwOxzI4B-115" edge="1">
          <mxGeometry relative="1" as="geometry">
            <mxPoint x="137" y="-951" as="sourcePoint" />
          </mxGeometry>
        </mxCell>
        <mxCell id="b44zEPOn9F3BgOh4Rijz-52" style="edgeStyle=orthogonalEdgeStyle;rounded=0;orthogonalLoop=1;jettySize=auto;html=1;dashed=1;fontSize=21;" parent="1" source="b44zEPOn9F3BgOh4Rijz-5" target="b44zEPOn9F3BgOh4Rijz-51" edge="1">
          <mxGeometry relative="1" as="geometry" />
        </mxCell>
        <mxCell id="b44zEPOn9F3BgOh4Rijz-5" value="LEGACYS" style="shape=swimlane;startSize=25;fontSize=13;fontColor=#333333;fontStyle=1;align=center;strokeColor=#666666;strokeOpacity=100;fillOpacity=100;rotation=0;fillColor=#ffffff;strokeWidth=1.2;" parent="1" vertex="1">
          <mxGeometry x="137" y="-811" width="160" height="550" as="geometry">
            <mxRectangle x="700" y="-820" width="110" height="25" as="alternateBounds" />
          </mxGeometry>
        </mxCell>
        <mxCell id="b44zEPOn9F3BgOh4Rijz-6" value="WMS" style="pointerEvents=1;shadow=0;dashed=0;html=1;strokeColor=none;fillColor=#505050;labelPosition=center;verticalLabelPosition=bottom;verticalAlign=top;outlineConnect=0;align=center;shape=mxgraph.office.servers.server_farm;fillColor=#7FBA42;" parent="b44zEPOn9F3BgOh4Rijz-5" vertex="1">
          <mxGeometry x="40" y="48" width="56" height="49" as="geometry" />
        </mxCell>
        <mxCell id="b44zEPOn9F3BgOh4Rijz-7" value="GENERA" style="pointerEvents=1;shadow=0;dashed=0;html=1;strokeColor=none;labelPosition=center;verticalLabelPosition=bottom;verticalAlign=top;outlineConnect=0;align=center;shape=mxgraph.office.servers.physical_host_farm;fillColor=#2072B8;" parent="b44zEPOn9F3BgOh4Rijz-5" vertex="1">
          <mxGeometry x="40" y="148" width="56" height="49" as="geometry" />
        </mxCell>
        <mxCell id="b44zEPOn9F3BgOh4Rijz-8" value="REGISTRO INGRESO" style="pointerEvents=1;shadow=0;dashed=0;html=1;strokeColor=none;fillColor=#505050;labelPosition=center;verticalLabelPosition=bottom;verticalAlign=top;outlineConnect=0;align=center;shape=mxgraph.office.servers.server_farm;fillColor=#DA4026;" parent="b44zEPOn9F3BgOh4Rijz-5" vertex="1">
          <mxGeometry x="40" y="243.5" width="56" height="49" as="geometry" />
        </mxCell>
        <mxCell id="b44zEPOn9F3BgOh4Rijz-46" value="&lt;font style=&quot;font-size: 10px&quot;&gt;DRIVING&lt;/font&gt;" style="pointerEvents=1;shadow=0;dashed=0;html=1;strokeColor=none;labelPosition=center;verticalLabelPosition=bottom;verticalAlign=top;outlineConnect=0;align=center;shape=mxgraph.office.servers.physical_host;fillColor=#2072B8;labelBackgroundColor=none;fontSize=21;" parent="b44zEPOn9F3BgOh4Rijz-5" vertex="1">
          <mxGeometry x="20" y="340" width="27" height="52" as="geometry" />
        </mxCell>
        <mxCell id="b44zEPOn9F3BgOh4Rijz-47" value="&lt;font style=&quot;font-size: 10px&quot;&gt;ABASTECIMIENTO&lt;/font&gt;" style="pointerEvents=1;shadow=0;dashed=0;html=1;strokeColor=none;labelPosition=center;verticalLabelPosition=bottom;verticalAlign=top;outlineConnect=0;align=center;shape=mxgraph.office.servers.server_generic;fillColor=#2072B8;labelBackgroundColor=none;fontSize=21;" parent="b44zEPOn9F3BgOh4Rijz-5" vertex="1">
          <mxGeometry x="96" y="340" width="27" height="52" as="geometry" />
        </mxCell>
        <mxCell id="b44zEPOn9F3BgOh4Rijz-48" value="&lt;font style=&quot;font-size: 10px&quot;&gt;VENTAS&lt;/font&gt;" style="pointerEvents=1;shadow=0;dashed=0;html=1;strokeColor=none;labelPosition=center;verticalLabelPosition=bottom;verticalAlign=top;outlineConnect=0;align=center;shape=mxgraph.office.servers.server_generic;fillColor=#2072B8;labelBackgroundColor=none;fontSize=21;" parent="b44zEPOn9F3BgOh4Rijz-5" vertex="1">
          <mxGeometry x="20" y="448" width="27" height="52" as="geometry" />
        </mxCell>
        <mxCell id="b44zEPOn9F3BgOh4Rijz-49" value="&lt;font style=&quot;font-size: 10px&quot;&gt;COMPRAS&lt;/font&gt;" style="pointerEvents=1;shadow=0;dashed=0;html=1;strokeColor=none;labelPosition=center;verticalLabelPosition=bottom;verticalAlign=top;outlineConnect=0;align=center;shape=mxgraph.office.servers.physical_host;fillColor=#2072B8;labelBackgroundColor=none;fontSize=21;" parent="b44zEPOn9F3BgOh4Rijz-5" vertex="1">
          <mxGeometry x="96" y="448" width="27" height="52" as="geometry" />
        </mxCell>
        <mxCell id="b44zEPOn9F3BgOh4Rijz-27" style="edgeStyle=orthogonalEdgeStyle;rounded=0;orthogonalLoop=1;jettySize=auto;html=1;entryX=0;entryY=0.5;entryDx=0;entryDy=0;dashed=1;fontSize=21;exitX=0.5;exitY=1;exitDx=0;exitDy=0;" parent="1" source="b44zEPOn9F3BgOh4Rijz-26" target="b44zEPOn9F3BgOh4Rijz-24" edge="1">
          <mxGeometry relative="1" as="geometry">
            <Array as="points">
              <mxPoint x="-510" y="-640" />
              <mxPoint x="-390" y="-640" />
              <mxPoint x="-390" y="-661" />
            </Array>
          </mxGeometry>
        </mxCell>
        <mxCell id="b44zEPOn9F3BgOh4Rijz-29" style="edgeStyle=orthogonalEdgeStyle;rounded=0;orthogonalLoop=1;jettySize=auto;html=1;entryX=0.5;entryY=0;entryDx=0;entryDy=0;dashed=1;fontSize=21;" parent="1" source="b44zEPOn9F3BgOh4Rijz-28" target="b44zEPOn9F3BgOh4Rijz-24" edge="1">
          <mxGeometry relative="1" as="geometry" />
        </mxCell>
        <mxCell id="b44zEPOn9F3BgOh4Rijz-31" style="edgeStyle=orthogonalEdgeStyle;rounded=0;orthogonalLoop=1;jettySize=auto;html=1;dashed=1;fontSize=21;fillColor=#fff2cc;strokeColor=#d6b656;" parent="1" source="b44zEPOn9F3BgOh4Rijz-30" target="b44zEPOn9F3BgOh4Rijz-28" edge="1">
          <mxGeometry relative="1" as="geometry">
            <Array as="points">
              <mxPoint x="-266" y="-791" />
            </Array>
          </mxGeometry>
        </mxCell>
        <mxCell id="b44zEPOn9F3BgOh4Rijz-30" value="" style="outlineConnect=0;fontColor=#232F3E;gradientColor=none;fillColor=#D05C17;strokeColor=none;dashed=0;verticalLabelPosition=bottom;verticalAlign=top;align=center;html=1;fontSize=12;fontStyle=0;aspect=fixed;pointerEvents=1;shape=mxgraph.aws4.ecs_task;" parent="1" vertex="1">
          <mxGeometry x="-400" y="-762.5" width="24.96" height="33" as="geometry" />
        </mxCell>
        <mxCell id="b44zEPOn9F3BgOh4Rijz-34" style="edgeStyle=orthogonalEdgeStyle;rounded=0;orthogonalLoop=1;jettySize=auto;html=1;entryX=1;entryY=0.5;entryDx=0;entryDy=0;dashed=1;fontSize=21;fillColor=#fff2cc;strokeColor=#d6b656;" parent="1" source="b44zEPOn9F3BgOh4Rijz-33" target="kFB3VKsAzfuebwOxzI4B-115" edge="1">
          <mxGeometry relative="1" as="geometry" />
        </mxCell>
        <mxCell id="b44zEPOn9F3BgOh4Rijz-35" value="&lt;font style=&quot;font-size: 8px&quot;&gt;Subscriptor / Productor&lt;/font&gt;" style="edgeLabel;html=1;align=center;verticalAlign=middle;resizable=0;points=[];fontSize=21;labelBackgroundColor=none;" parent="b44zEPOn9F3BgOh4Rijz-34" vertex="1" connectable="0">
          <mxGeometry x="-0.1144" y="1" relative="1" as="geometry">
            <mxPoint as="offset" />
          </mxGeometry>
        </mxCell>
        <mxCell id="b44zEPOn9F3BgOh4Rijz-45" style="edgeStyle=orthogonalEdgeStyle;rounded=0;orthogonalLoop=1;jettySize=auto;html=1;dashed=1;fontSize=21;fillColor=#d5e8d4;strokeColor=#82b366;" parent="1" source="b44zEPOn9F3BgOh4Rijz-38" target="kFB3VKsAzfuebwOxzI4B-115" edge="1">
          <mxGeometry relative="1" as="geometry" />
        </mxCell>
        <mxCell id="b44zEPOn9F3BgOh4Rijz-51" value="&lt;font style=&quot;font-size: 10px&quot;&gt;Route Service&lt;/font&gt;" style="pointerEvents=1;shadow=0;dashed=0;html=1;strokeColor=none;fillColor=#505050;labelPosition=center;verticalLabelPosition=bottom;verticalAlign=top;outlineConnect=0;align=center;shape=mxgraph.office.servers.web_server_blue;labelBackgroundColor=none;fontSize=21;" parent="1" vertex="1">
          <mxGeometry x="-70" y="-501" width="48" height="57" as="geometry" />
        </mxCell>
        <mxCell id="b44zEPOn9F3BgOh4Rijz-60" style="edgeStyle=orthogonalEdgeStyle;rounded=0;orthogonalLoop=1;jettySize=auto;html=1;entryX=1;entryY=0.5;entryDx=0;entryDy=0;dashed=1;fontSize=21;" parent="1" source="b44zEPOn9F3BgOh4Rijz-20" target="kFB3VKsAzfuebwOxzI4B-129" edge="1">
          <mxGeometry relative="1" as="geometry" />
        </mxCell>
        <mxCell id="b44zEPOn9F3BgOh4Rijz-61" style="edgeStyle=orthogonalEdgeStyle;rounded=0;orthogonalLoop=1;jettySize=auto;html=1;entryX=1;entryY=0.75;entryDx=0;entryDy=0;dashed=1;fontSize=21;" parent="1" source="b44zEPOn9F3BgOh4Rijz-12" target="kFB3VKsAzfuebwOxzI4B-129" edge="1">
          <mxGeometry relative="1" as="geometry" />
        </mxCell>
        <mxCell id="b44zEPOn9F3BgOh4Rijz-62" style="edgeStyle=orthogonalEdgeStyle;rounded=0;orthogonalLoop=1;jettySize=auto;html=1;entryX=0.75;entryY=1;entryDx=0;entryDy=0;dashed=1;fontSize=21;" parent="1" source="b44zEPOn9F3BgOh4Rijz-11" target="kFB3VKsAzfuebwOxzI4B-129" edge="1">
          <mxGeometry relative="1" as="geometry" />
        </mxCell>
        <mxCell id="b44zEPOn9F3BgOh4Rijz-64" value="Arquitectura Empresarial MEGAPROFER" style="rounded=0;whiteSpace=wrap;html=1;labelBackgroundColor=none;fontSize=10;fillColor=none;strokeColor=#666666;" parent="1" vertex="1">
          <mxGeometry x="-800" y="-280" width="240" height="30" as="geometry" />
        </mxCell>
        <mxCell id="b44zEPOn9F3BgOh4Rijz-65" value="Dep. Sistemas&amp;nbsp;" style="rounded=0;whiteSpace=wrap;html=1;labelBackgroundColor=none;fontSize=10;fillColor=none;strokeColor=#666666;" parent="1" vertex="1">
          <mxGeometry x="-800" y="-250" width="240" height="30" as="geometry" />
        </mxCell>
        <mxCell id="b44zEPOn9F3BgOh4Rijz-66" value="04-09-2020" style="rounded=0;whiteSpace=wrap;html=1;labelBackgroundColor=none;fontSize=10;fillColor=none;strokeColor=#666666;align=center;" parent="1" vertex="1">
          <mxGeometry x="-800" y="-220" width="240" height="30" as="geometry" />
        </mxCell>
        <mxCell id="b44zEPOn9F3BgOh4Rijz-68" value="&lt;span style=&quot;color: rgb(0 , 0 , 0) ; font-size: 21px&quot;&gt;Arquitectura MegaProfer Alto Nivel&lt;/span&gt;" style="rounded=0;whiteSpace=wrap;html=1;labelBackgroundColor=none;fontSize=10;align=center;fontColor=#333333;strokeColor=none;fillColor=#B3B3B3;" parent="1" vertex="1">
          <mxGeometry x="-820" y="-1160" width="410" height="30" as="geometry" />
        </mxCell>
        <mxCell id="zUKSaovnpH7fVIxJ_rEp-2" value="" style="rounded=0;whiteSpace=wrap;html=1;fillColor=none;strokeColor=#808080;" parent="1" vertex="1">
          <mxGeometry x="-220" y="-1043" width="180" height="60" as="geometry" />
        </mxCell>
        <mxCell id="zUKSaovnpH7fVIxJ_rEp-4" value="" style="rounded=0;whiteSpace=wrap;html=1;fillColor=none;strokeColor=#808080;" parent="1" vertex="1">
          <mxGeometry x="-220" y="-940" width="180" height="43" as="geometry" />
        </mxCell>
        <mxCell id="zUKSaovnpH7fVIxJ_rEp-5" value="" style="aspect=fixed;perimeter=ellipsePerimeter;html=1;align=center;shadow=0;dashed=0;fontColor=#4277BB;labelBackgroundColor=#ffffff;fontSize=12;spacingTop=3;image;image=img/lib/ibm/data/data_services.svg;rounded=0;strokeColor=#808080;fillColor=none;opacity=50;" parent="1" vertex="1">
          <mxGeometry x="-178" y="-929.5" width="22" height="22" as="geometry" />
        </mxCell>
        <mxCell id="zUKSaovnpH7fVIxJ_rEp-6" value="" style="aspect=fixed;perimeter=ellipsePerimeter;html=1;align=center;shadow=0;dashed=0;fontColor=#4277BB;labelBackgroundColor=#ffffff;fontSize=12;spacingTop=3;image;image=img/lib/ibm/data/data_services.svg;rounded=0;strokeColor=#808080;fillColor=none;opacity=50;" parent="1" vertex="1">
          <mxGeometry x="-210" y="-929.5" width="22" height="22" as="geometry" />
        </mxCell>
        <mxCell id="zUKSaovnpH7fVIxJ_rEp-8" style="edgeStyle=orthogonalEdgeStyle;rounded=0;orthogonalLoop=1;jettySize=auto;html=1;strokeColor=#666666;endArrow=classicThin;endFill=1;" parent="1" source="b44zEPOn9F3BgOh4Rijz-38" target="zUKSaovnpH7fVIxJ_rEp-5" edge="1">
          <mxGeometry relative="1" as="geometry" />
        </mxCell>
        <mxCell id="zUKSaovnpH7fVIxJ_rEp-10" value="&lt;font style=&quot;font-size: 9px&quot; color=&quot;#4d4d4d&quot;&gt;BDD1&lt;/font&gt;" style="text;html=1;resizable=0;autosize=1;align=center;verticalAlign=middle;points=[];fillColor=none;strokeColor=none;rounded=0;opacity=50;" parent="1" vertex="1">
          <mxGeometry x="-218" y="-915" width="40" height="20" as="geometry" />
        </mxCell>
        <mxCell id="zUKSaovnpH7fVIxJ_rEp-11" value="&lt;font style=&quot;font-size: 9px&quot; color=&quot;#4d4d4d&quot;&gt;BDD2&lt;/font&gt;" style="text;html=1;resizable=0;autosize=1;align=center;verticalAlign=middle;points=[];fillColor=none;strokeColor=none;rounded=0;opacity=50;" parent="1" vertex="1">
          <mxGeometry x="-187" y="-915" width="40" height="20" as="geometry" />
        </mxCell>
        <mxCell id="zUKSaovnpH7fVIxJ_rEp-12" style="edgeStyle=orthogonalEdgeStyle;rounded=0;orthogonalLoop=1;jettySize=auto;html=1;entryX=0.5;entryY=0;entryDx=0;entryDy=0;endArrow=classicThin;endFill=1;strokeColor=#666666;" parent="1" source="b44zEPOn9F3BgOh4Rijz-38" target="zUKSaovnpH7fVIxJ_rEp-6" edge="1">
          <mxGeometry relative="1" as="geometry" />
        </mxCell>
        <mxCell id="zUKSaovnpH7fVIxJ_rEp-13" value="" style="endArrow=none;html=1;strokeColor=#666666;" parent="1" edge="1">
          <mxGeometry width="50" height="50" relative="1" as="geometry">
            <mxPoint x="-610" y="-690" as="sourcePoint" />
            <mxPoint x="-410" y="-690" as="targetPoint" />
          </mxGeometry>
        </mxCell>
        <mxCell id="zUKSaovnpH7fVIxJ_rEp-14" value="" style="ellipse;whiteSpace=wrap;html=1;fontSize=21;fillColor=#dae8fc;strokeColor=#6c8ebf;align=left;opacity=50;" parent="1" vertex="1">
          <mxGeometry x="-530" y="-680" width="20" height="20" as="geometry" />
        </mxCell>
        <mxCell id="b44zEPOn9F3BgOh4Rijz-26" value="&lt;font style=&quot;font-size: 10px&quot;&gt;WebServiceRest&lt;/font&gt;" style="ellipse;whiteSpace=wrap;html=1;fontSize=21;fillColor=#dae8fc;strokeColor=#6c8ebf;align=left;" parent="1" vertex="1">
          <mxGeometry x="-520" y="-680" width="20" height="20" as="geometry" />
        </mxCell>
      </root>
    </mxGraphModel>
  </diagram>
  <diagram id="CCgnvaeJ5VQys1_l-fou" name="Int M.Dynamics">
    <mxGraphModel dx="2208" dy="3034" grid="1" gridSize="10" guides="1" tooltips="1" connect="1" arrows="1" fold="1" page="1" pageScale="1" pageWidth="850" pageHeight="1100" math="0" shadow="0">
      <root>
        <mxCell id="3Md17NQOB4CFYbjkLTXJ-0" />
        <mxCell id="3Md17NQOB4CFYbjkLTXJ-1" parent="3Md17NQOB4CFYbjkLTXJ-0" />
        <mxCell id="3Md17NQOB4CFYbjkLTXJ-3" value="" style="rounded=0;whiteSpace=wrap;html=1;labelBackgroundColor=none;strokeColor=#666666;fillColor=none;fontSize=10;align=center;" parent="3Md17NQOB4CFYbjkLTXJ-1" vertex="1">
          <mxGeometry x="-840" y="-2170" width="820" height="1000" as="geometry" />
        </mxCell>
        <mxCell id="3Md17NQOB4CFYbjkLTXJ-9" value="Kafka" style="shape=swimlane;startSize=25;fontSize=13;fontStyle=1;align=center;strokeColor=#82b366;strokeOpacity=100;fillOpacity=100;rotation=0;fillColor=#d5e8d4;strokeWidth=1.2;" parent="3Md17NQOB4CFYbjkLTXJ-1" vertex="1">
          <mxGeometry x="-480" y="-1840" width="360" height="124" as="geometry">
            <mxRectangle x="240" y="-1087" width="110" height="25" as="alternateBounds" />
          </mxGeometry>
        </mxCell>
        <mxCell id="3Md17NQOB4CFYbjkLTXJ-10" value="" style="outlineConnect=0;fontColor=#232F3E;gradientColor=none;fillColor=#D05C17;strokeColor=none;dashed=0;verticalLabelPosition=bottom;verticalAlign=top;align=center;html=1;fontSize=12;fontStyle=0;aspect=fixed;pointerEvents=1;shape=mxgraph.aws4.ecs_service;" parent="3Md17NQOB4CFYbjkLTXJ-9" vertex="1">
          <mxGeometry x="10" y="67.5" width="27.9" height="34" as="geometry" />
        </mxCell>
        <mxCell id="3Md17NQOB4CFYbjkLTXJ-11" style="edgeStyle=orthogonalEdgeStyle;rounded=0;orthogonalLoop=1;jettySize=auto;html=1;dashed=1;fontSize=21;" parent="3Md17NQOB4CFYbjkLTXJ-9" source="3Md17NQOB4CFYbjkLTXJ-12" target="3Md17NQOB4CFYbjkLTXJ-14" edge="1">
          <mxGeometry relative="1" as="geometry" />
        </mxCell>
        <mxCell id="3Md17NQOB4CFYbjkLTXJ-12" value="&lt;font style=&quot;font-size: 10px&quot;&gt;master&lt;/font&gt;" style="pointerEvents=1;shadow=0;dashed=0;html=1;strokeColor=none;labelPosition=center;verticalLabelPosition=bottom;verticalAlign=top;outlineConnect=0;align=center;shape=mxgraph.office.servers.server_generic;fillColor=#7FBA42;labelBackgroundColor=none;fontSize=21;" parent="3Md17NQOB4CFYbjkLTXJ-9" vertex="1">
          <mxGeometry x="174" y="36" width="27" height="52" as="geometry" />
        </mxCell>
        <mxCell id="3Md17NQOB4CFYbjkLTXJ-13" value="&lt;font style=&quot;font-size: 10px&quot;&gt;kafka2&lt;/font&gt;" style="pointerEvents=1;shadow=0;dashed=0;html=1;strokeColor=none;labelPosition=center;verticalLabelPosition=bottom;verticalAlign=top;outlineConnect=0;align=center;shape=mxgraph.office.servers.server_generic;fillColor=#7FBA42;labelBackgroundColor=none;fontSize=21;" parent="3Md17NQOB4CFYbjkLTXJ-9" vertex="1">
          <mxGeometry x="290" y="37" width="27" height="52" as="geometry" />
        </mxCell>
        <mxCell id="3Md17NQOB4CFYbjkLTXJ-14" value="&lt;font style=&quot;font-size: 10px&quot;&gt;kafka1&lt;/font&gt;" style="pointerEvents=1;shadow=0;dashed=0;html=1;strokeColor=none;labelPosition=center;verticalLabelPosition=bottom;verticalAlign=top;outlineConnect=0;align=center;shape=mxgraph.office.servers.server_generic;fillColor=#7FBA42;labelBackgroundColor=none;fontSize=21;" parent="3Md17NQOB4CFYbjkLTXJ-9" vertex="1">
          <mxGeometry x="250" y="37" width="27" height="52" as="geometry" />
        </mxCell>
        <mxCell id="3Md17NQOB4CFYbjkLTXJ-15" value="&lt;font style=&quot;font-size: 10px&quot;&gt;cloud / confluent&lt;/font&gt;" style="pointerEvents=1;shadow=0;dashed=0;html=1;strokeColor=none;labelPosition=center;verticalLabelPosition=bottom;verticalAlign=top;outlineConnect=0;align=center;shape=mxgraph.office.servers.virtual_server;fillColor=#2072B8;labelBackgroundColor=none;fontSize=21;" parent="3Md17NQOB4CFYbjkLTXJ-9" vertex="1">
          <mxGeometry x="90" y="36" width="28" height="52" as="geometry" />
        </mxCell>
        <mxCell id="3Md17NQOB4CFYbjkLTXJ-28" value="Middleware" style="shape=swimlane;startSize=25;fontSize=13;fontStyle=1;align=center;strokeColor=#6c8ebf;strokeOpacity=100;fillOpacity=100;rotation=0;fillColor=#dae8fc;strokeWidth=1.2;" parent="3Md17NQOB4CFYbjkLTXJ-1" vertex="1">
          <mxGeometry x="-480" y="-1720" width="360" height="120" as="geometry">
            <mxRectangle x="240" y="-1087" width="110" height="25" as="alternateBounds" />
          </mxGeometry>
        </mxCell>
        <mxCell id="3Md17NQOB4CFYbjkLTXJ-29" value="" style="pointerEvents=1;shadow=0;dashed=0;html=1;strokeColor=none;fillColor=#505050;labelPosition=center;verticalLabelPosition=bottom;verticalAlign=top;outlineConnect=0;align=center;shape=mxgraph.office.servers.server_farm;fillColor=#7FBA42;" parent="3Md17NQOB4CFYbjkLTXJ-28" vertex="1">
          <mxGeometry x="172" y="60" width="56" height="49" as="geometry" />
        </mxCell>
        <mxCell id="3Md17NQOB4CFYbjkLTXJ-30" value="" style="ellipse;whiteSpace=wrap;html=1;fontSize=21;fillColor=#dae8fc;strokeColor=#6c8ebf;" parent="3Md17NQOB4CFYbjkLTXJ-28" vertex="1">
          <mxGeometry x="10" y="40" width="20" height="20" as="geometry" />
        </mxCell>
        <mxCell id="3Md17NQOB4CFYbjkLTXJ-31" value="&lt;font style=&quot;font-size: 9px&quot;&gt;Microservicios&lt;/font&gt;" style="ellipse;whiteSpace=wrap;html=1;fontSize=21;fillColor=#dae8fc;strokeColor=#6c8ebf;" parent="3Md17NQOB4CFYbjkLTXJ-28" vertex="1">
          <mxGeometry x="30" y="40" width="20" height="20" as="geometry" />
        </mxCell>
        <mxCell id="3Md17NQOB4CFYbjkLTXJ-34" value="Microsoft Dynamics" style="shape=swimlane;startSize=25;fontSize=13;fontColor=#333333;fontStyle=1;align=center;strokeColor=#666666;strokeOpacity=100;fillOpacity=100;rotation=0;fillColor=#ffffff;strokeWidth=1.2;" parent="3Md17NQOB4CFYbjkLTXJ-1" vertex="1">
          <mxGeometry x="-800" y="-1800" width="200" height="160" as="geometry">
            <mxRectangle x="-610" y="-791" width="110" height="25" as="alternateBounds" />
          </mxGeometry>
        </mxCell>
        <mxCell id="3Md17NQOB4CFYbjkLTXJ-35" value="" style="pointerEvents=1;shadow=0;dashed=0;html=1;strokeColor=none;fillColor=#505050;labelPosition=center;verticalLabelPosition=bottom;verticalAlign=top;outlineConnect=0;align=center;shape=mxgraph.office.servers.server_farm;fillColor=#7FBA42;" parent="3Md17NQOB4CFYbjkLTXJ-34" vertex="1">
          <mxGeometry x="60" y="31" width="56" height="49" as="geometry" />
        </mxCell>
        <mxCell id="3Md17NQOB4CFYbjkLTXJ-38" style="edgeStyle=orthogonalEdgeStyle;orthogonalLoop=1;jettySize=auto;html=1;fontSize=21;rounded=1;" parent="3Md17NQOB4CFYbjkLTXJ-1" source="3Md17NQOB4CFYbjkLTXJ-42" target="3Md17NQOB4CFYbjkLTXJ-31" edge="1">
          <mxGeometry relative="1" as="geometry">
            <mxPoint x="-480" y="-1640" as="targetPoint" />
          </mxGeometry>
        </mxCell>
        <mxCell id="3Md17NQOB4CFYbjkLTXJ-39" value="Rest" style="edgeLabel;html=1;align=center;verticalAlign=middle;resizable=0;points=[];fontSize=12;" parent="3Md17NQOB4CFYbjkLTXJ-38" vertex="1" connectable="0">
          <mxGeometry x="-0.3188" y="-1" relative="1" as="geometry">
            <mxPoint as="offset" />
          </mxGeometry>
        </mxCell>
        <mxCell id="3Md17NQOB4CFYbjkLTXJ-41" value="ATIX" style="shape=swimlane;startSize=25;fontSize=13;fontColor=#333333;fontStyle=1;align=center;strokeColor=#666666;strokeOpacity=100;fillOpacity=100;rotation=0;fillColor=#ffffff;strokeWidth=1.2;" parent="3Md17NQOB4CFYbjkLTXJ-1" vertex="1">
          <mxGeometry x="-800" y="-1619" width="200" height="101" as="geometry">
            <mxRectangle x="-610" y="-631" width="110" height="25" as="alternateBounds" />
          </mxGeometry>
        </mxCell>
        <mxCell id="3Md17NQOB4CFYbjkLTXJ-42" value="" style="pointerEvents=1;shadow=0;dashed=0;html=1;strokeColor=none;fillColor=#505050;labelPosition=center;verticalLabelPosition=bottom;verticalAlign=top;outlineConnect=0;align=center;shape=mxgraph.office.servers.server_farm;fillColor=#7FBA42;" parent="3Md17NQOB4CFYbjkLTXJ-41" vertex="1">
          <mxGeometry x="47" y="40" width="56" height="49" as="geometry" />
        </mxCell>
        <mxCell id="3Md17NQOB4CFYbjkLTXJ-54" style="edgeStyle=orthogonalEdgeStyle;rounded=0;orthogonalLoop=1;jettySize=auto;html=1;entryX=0;entryY=0.5;entryDx=0;entryDy=0;dashed=1;fontSize=21;exitX=0.5;exitY=1;exitDx=0;exitDy=0;" parent="3Md17NQOB4CFYbjkLTXJ-1" source="3Md17NQOB4CFYbjkLTXJ-79" target="3Md17NQOB4CFYbjkLTXJ-30" edge="1">
          <mxGeometry relative="1" as="geometry">
            <Array as="points">
              <mxPoint x="-700" y="-1649" />
              <mxPoint x="-580" y="-1649" />
              <mxPoint x="-580" y="-1670" />
            </Array>
          </mxGeometry>
        </mxCell>
        <mxCell id="3Md17NQOB4CFYbjkLTXJ-55" style="edgeStyle=orthogonalEdgeStyle;rounded=0;orthogonalLoop=1;jettySize=auto;html=1;entryX=0.5;entryY=0;entryDx=0;entryDy=0;dashed=1;fontSize=21;" parent="3Md17NQOB4CFYbjkLTXJ-1" source="3Md17NQOB4CFYbjkLTXJ-10" target="3Md17NQOB4CFYbjkLTXJ-30" edge="1">
          <mxGeometry relative="1" as="geometry" />
        </mxCell>
        <mxCell id="xOekKpKdgNsM7V0HgDSK-0" style="edgeStyle=orthogonalEdgeStyle;rounded=0;orthogonalLoop=1;jettySize=auto;html=1;entryX=-0.028;entryY=0.564;entryDx=0;entryDy=0;entryPerimeter=0;endArrow=classicThin;endFill=1;strokeColor=#666666;" parent="3Md17NQOB4CFYbjkLTXJ-1" source="3Md17NQOB4CFYbjkLTXJ-57" target="3Md17NQOB4CFYbjkLTXJ-10" edge="1">
          <mxGeometry relative="1" as="geometry" />
        </mxCell>
        <mxCell id="3Md17NQOB4CFYbjkLTXJ-57" value="Mensajeria" style="outlineConnect=0;fontColor=#232F3E;gradientColor=none;fillColor=#D05C17;strokeColor=none;dashed=0;verticalLabelPosition=bottom;verticalAlign=top;align=center;html=1;fontSize=12;fontStyle=0;aspect=fixed;pointerEvents=1;shape=mxgraph.aws4.ecs_task;" parent="3Md17NQOB4CFYbjkLTXJ-1" vertex="1">
          <mxGeometry x="-590" y="-1770" width="24.96" height="33" as="geometry" />
        </mxCell>
        <mxCell id="3Md17NQOB4CFYbjkLTXJ-65" value="Arquitectura Empresarial MEGAPROFER" style="rounded=0;whiteSpace=wrap;html=1;labelBackgroundColor=none;fontSize=10;fillColor=none;strokeColor=#666666;" parent="3Md17NQOB4CFYbjkLTXJ-1" vertex="1">
          <mxGeometry x="-820" y="-1290" width="240" height="30" as="geometry" />
        </mxCell>
        <mxCell id="3Md17NQOB4CFYbjkLTXJ-66" value="Dep. Sistemas&amp;nbsp;" style="rounded=0;whiteSpace=wrap;html=1;labelBackgroundColor=none;fontSize=10;fillColor=none;strokeColor=#666666;" parent="3Md17NQOB4CFYbjkLTXJ-1" vertex="1">
          <mxGeometry x="-820" y="-1260" width="240" height="30" as="geometry" />
        </mxCell>
        <mxCell id="3Md17NQOB4CFYbjkLTXJ-67" value="04-09-2020" style="rounded=0;whiteSpace=wrap;html=1;labelBackgroundColor=none;fontSize=10;fillColor=none;strokeColor=#666666;align=center;" parent="3Md17NQOB4CFYbjkLTXJ-1" vertex="1">
          <mxGeometry x="-820" y="-1230" width="240" height="30" as="geometry" />
        </mxCell>
        <mxCell id="3Md17NQOB4CFYbjkLTXJ-68" value="&lt;span style=&quot;color: rgb(0 , 0 , 0) ; font-size: 21px&quot;&gt;Arquitectura MegaProfer Alto Nivel&lt;/span&gt;" style="rounded=0;whiteSpace=wrap;html=1;labelBackgroundColor=none;fontSize=10;align=center;fontColor=#333333;strokeColor=none;fillColor=#B3B3B3;" parent="3Md17NQOB4CFYbjkLTXJ-1" vertex="1">
          <mxGeometry x="-840" y="-2170" width="410" height="30" as="geometry" />
        </mxCell>
        <mxCell id="3Md17NQOB4CFYbjkLTXJ-77" value="" style="endArrow=none;html=1;strokeColor=#666666;" parent="3Md17NQOB4CFYbjkLTXJ-1" edge="1">
          <mxGeometry width="50" height="50" relative="1" as="geometry">
            <mxPoint x="-800" y="-1699" as="sourcePoint" />
            <mxPoint x="-600" y="-1699" as="targetPoint" />
          </mxGeometry>
        </mxCell>
        <mxCell id="3Md17NQOB4CFYbjkLTXJ-78" value="" style="ellipse;whiteSpace=wrap;html=1;fontSize=21;fillColor=#dae8fc;strokeColor=#6c8ebf;align=left;opacity=50;" parent="3Md17NQOB4CFYbjkLTXJ-1" vertex="1">
          <mxGeometry x="-720" y="-1689" width="20" height="20" as="geometry" />
        </mxCell>
        <mxCell id="3Md17NQOB4CFYbjkLTXJ-79" value="&lt;font style=&quot;font-size: 10px&quot;&gt;WebServiceRest&lt;/font&gt;" style="ellipse;whiteSpace=wrap;html=1;fontSize=21;fillColor=#dae8fc;strokeColor=#6c8ebf;align=left;" parent="3Md17NQOB4CFYbjkLTXJ-1" vertex="1">
          <mxGeometry x="-710" y="-1689" width="20" height="20" as="geometry" />
        </mxCell>
        <mxCell id="6P6cC75QsYjs7gwYYY0n-0" value="" style="rounded=0;whiteSpace=wrap;html=1;fillColor=none;strokeColor=#808080;" parent="3Md17NQOB4CFYbjkLTXJ-1" vertex="1">
          <mxGeometry x="-470" y="-1992" width="180" height="43" as="geometry" />
        </mxCell>
        <mxCell id="6P6cC75QsYjs7gwYYY0n-13" style="edgeStyle=orthogonalEdgeStyle;rounded=0;orthogonalLoop=1;jettySize=auto;html=1;entryX=0.5;entryY=0;entryDx=0;entryDy=0;endArrow=classicThin;endFill=1;strokeColor=#666666;" parent="3Md17NQOB4CFYbjkLTXJ-1" source="6P6cC75QsYjs7gwYYY0n-1" target="3Md17NQOB4CFYbjkLTXJ-9" edge="1">
          <mxGeometry relative="1" as="geometry" />
        </mxCell>
        <mxCell id="6P6cC75QsYjs7gwYYY0n-1" value="n " style="shape=swimlane;startSize=25;fontSize=13;fontStyle=1;align=center;strokeColor=#6c8ebf;strokeOpacity=100;fillOpacity=100;rotation=0;fillColor=#dae8fc;strokeWidth=1.2;" parent="3Md17NQOB4CFYbjkLTXJ-1" vertex="1">
          <mxGeometry x="-480" y="-2087" width="410" height="207" as="geometry">
            <mxRectangle x="-230" y="-1078" width="110" height="25" as="alternateBounds" />
          </mxGeometry>
        </mxCell>
        <mxCell id="6P6cC75QsYjs7gwYYY0n-2" value="" style="pointerEvents=1;shadow=0;dashed=0;html=1;strokeColor=none;fillColor=#505050;labelPosition=center;verticalLabelPosition=bottom;verticalAlign=top;outlineConnect=0;align=center;shape=mxgraph.office.servers.server_farm;fillColor=#7FBA42;" parent="6P6cC75QsYjs7gwYYY0n-1" vertex="1">
          <mxGeometry x="72" y="38" width="56" height="49" as="geometry" />
        </mxCell>
        <mxCell id="6P6cC75QsYjs7gwYYY0n-3" value="" style="ellipse;whiteSpace=wrap;html=1;fontSize=21;fillColor=#dae8fc;strokeColor=#6c8ebf;opacity=50;" parent="6P6cC75QsYjs7gwYYY0n-1" vertex="1">
          <mxGeometry x="80" y="108" width="20" height="20" as="geometry" />
        </mxCell>
        <mxCell id="6P6cC75QsYjs7gwYYY0n-4" value="&lt;font style=&quot;font-size: 10px&quot;&gt;Microservices&lt;/font&gt;" style="ellipse;whiteSpace=wrap;html=1;fontSize=21;fillColor=#dae8fc;strokeColor=#6c8ebf;" parent="6P6cC75QsYjs7gwYYY0n-1" vertex="1">
          <mxGeometry x="90" y="108" width="20" height="20" as="geometry" />
        </mxCell>
        <mxCell id="6P6cC75QsYjs7gwYYY0n-5" value="" style="rounded=0;whiteSpace=wrap;html=1;fillColor=none;strokeColor=#808080;" parent="3Md17NQOB4CFYbjkLTXJ-1" vertex="1">
          <mxGeometry x="-470" y="-2052" width="180" height="60" as="geometry" />
        </mxCell>
        <mxCell id="6P6cC75QsYjs7gwYYY0n-6" value="" style="rounded=0;whiteSpace=wrap;html=1;fillColor=none;strokeColor=#808080;" parent="3Md17NQOB4CFYbjkLTXJ-1" vertex="1">
          <mxGeometry x="-470" y="-1949" width="180" height="43" as="geometry" />
        </mxCell>
        <mxCell id="6P6cC75QsYjs7gwYYY0n-7" value="" style="aspect=fixed;perimeter=ellipsePerimeter;html=1;align=center;shadow=0;dashed=0;fontColor=#4277BB;labelBackgroundColor=#ffffff;fontSize=12;spacingTop=3;image;image=img/lib/ibm/data/data_services.svg;rounded=0;strokeColor=#808080;fillColor=none;opacity=50;" parent="3Md17NQOB4CFYbjkLTXJ-1" vertex="1">
          <mxGeometry x="-428" y="-1938.5" width="22" height="22" as="geometry" />
        </mxCell>
        <mxCell id="6P6cC75QsYjs7gwYYY0n-8" value="" style="aspect=fixed;perimeter=ellipsePerimeter;html=1;align=center;shadow=0;dashed=0;fontColor=#4277BB;labelBackgroundColor=#ffffff;fontSize=12;spacingTop=3;image;image=img/lib/ibm/data/data_services.svg;rounded=0;strokeColor=#808080;fillColor=none;opacity=50;" parent="3Md17NQOB4CFYbjkLTXJ-1" vertex="1">
          <mxGeometry x="-460" y="-1938.5" width="22" height="22" as="geometry" />
        </mxCell>
        <mxCell id="6P6cC75QsYjs7gwYYY0n-9" style="edgeStyle=orthogonalEdgeStyle;rounded=0;orthogonalLoop=1;jettySize=auto;html=1;strokeColor=#666666;endArrow=classicThin;endFill=1;" parent="3Md17NQOB4CFYbjkLTXJ-1" source="6P6cC75QsYjs7gwYYY0n-4" target="6P6cC75QsYjs7gwYYY0n-7" edge="1">
          <mxGeometry relative="1" as="geometry" />
        </mxCell>
        <mxCell id="6P6cC75QsYjs7gwYYY0n-10" value="&lt;font style=&quot;font-size: 9px&quot; color=&quot;#4d4d4d&quot;&gt;BDD1&lt;/font&gt;" style="text;html=1;resizable=0;autosize=1;align=center;verticalAlign=middle;points=[];fillColor=none;strokeColor=none;rounded=0;opacity=50;" parent="3Md17NQOB4CFYbjkLTXJ-1" vertex="1">
          <mxGeometry x="-468" y="-1924" width="40" height="20" as="geometry" />
        </mxCell>
        <mxCell id="6P6cC75QsYjs7gwYYY0n-11" value="&lt;font style=&quot;font-size: 9px&quot; color=&quot;#4d4d4d&quot;&gt;BDD2&lt;/font&gt;" style="text;html=1;resizable=0;autosize=1;align=center;verticalAlign=middle;points=[];fillColor=none;strokeColor=none;rounded=0;opacity=50;" parent="3Md17NQOB4CFYbjkLTXJ-1" vertex="1">
          <mxGeometry x="-437" y="-1924" width="40" height="20" as="geometry" />
        </mxCell>
        <mxCell id="6P6cC75QsYjs7gwYYY0n-12" style="edgeStyle=orthogonalEdgeStyle;rounded=0;orthogonalLoop=1;jettySize=auto;html=1;entryX=0.5;entryY=0;entryDx=0;entryDy=0;endArrow=classicThin;endFill=1;strokeColor=#666666;" parent="3Md17NQOB4CFYbjkLTXJ-1" source="6P6cC75QsYjs7gwYYY0n-4" target="6P6cC75QsYjs7gwYYY0n-8" edge="1">
          <mxGeometry relative="1" as="geometry" />
        </mxCell>
        <mxCell id="xOekKpKdgNsM7V0HgDSK-1" style="edgeStyle=orthogonalEdgeStyle;rounded=0;orthogonalLoop=1;jettySize=auto;html=1;endArrow=classicThin;endFill=1;strokeColor=#666666;" parent="3Md17NQOB4CFYbjkLTXJ-1" source="3Md17NQOB4CFYbjkLTXJ-35" target="3Md17NQOB4CFYbjkLTXJ-57" edge="1">
          <mxGeometry relative="1" as="geometry" />
        </mxCell>
      </root>
    </mxGraphModel>
  </diagram>
  <diagram id="Ay3kLX1vTpqCIzTrO6zv" name="HeadQuarter">
    <mxGraphModel dx="2141" dy="1619" grid="1" gridSize="10" guides="1" tooltips="1" connect="1" arrows="1" fold="1" page="1" pageScale="1" pageWidth="827" pageHeight="1169" math="0" shadow="0">
      <root>
        <mxCell id="DDi1DepBDs4ZaUul2tnQ-0" />
        <mxCell id="DDi1DepBDs4ZaUul2tnQ-1" parent="DDi1DepBDs4ZaUul2tnQ-0" />
        <mxCell id="uvKrJsz7JBYXkbPzjYkE-1" value="" style="rounded=0;whiteSpace=wrap;html=1;labelBackgroundColor=none;strokeColor=#666666;fillColor=none;fontSize=10;align=center;" vertex="1" parent="DDi1DepBDs4ZaUul2tnQ-1">
          <mxGeometry x="-820" y="-1160" width="1180" height="1000" as="geometry" />
        </mxCell>
        <mxCell id="uvKrJsz7JBYXkbPzjYkE-64" value="" style="rounded=0;whiteSpace=wrap;html=1;fillColor=none;strokeColor=#808080;" vertex="1" parent="DDi1DepBDs4ZaUul2tnQ-1">
          <mxGeometry x="-220" y="-1043" width="270" height="53" as="geometry" />
        </mxCell>
        <mxCell id="uvKrJsz7JBYXkbPzjYkE-20" value="HeadQuarter" style="shape=swimlane;startSize=25;fontSize=13;fontStyle=1;align=center;strokeColor=#6c8ebf;strokeOpacity=100;fillOpacity=100;rotation=0;fillColor=#dae8fc;strokeWidth=1.2;" vertex="1" parent="DDi1DepBDs4ZaUul2tnQ-1">
          <mxGeometry x="-290" y="-1078" width="360" height="238" as="geometry">
            <mxRectangle x="-290" y="-1078" width="110" height="25" as="alternateBounds" />
          </mxGeometry>
        </mxCell>
        <mxCell id="uvKrJsz7JBYXkbPzjYkE-22" value="" style="ellipse;whiteSpace=wrap;html=1;fontSize=21;fillColor=#dae8fc;strokeColor=#6c8ebf;opacity=50;" vertex="1" parent="uvKrJsz7JBYXkbPzjYkE-20">
          <mxGeometry x="80" y="108" width="20" height="20" as="geometry" />
        </mxCell>
        <mxCell id="uvKrJsz7JBYXkbPzjYkE-23" value="" style="ellipse;whiteSpace=wrap;html=1;fontSize=21;fillColor=#dae8fc;strokeColor=#6c8ebf;align=left;" vertex="1" parent="uvKrJsz7JBYXkbPzjYkE-20">
          <mxGeometry x="90" y="108" width="20" height="20" as="geometry" />
        </mxCell>
        <mxCell id="uvKrJsz7JBYXkbPzjYkE-0" value="" style="rounded=0;whiteSpace=wrap;html=1;fillColor=none;strokeColor=#808080;" vertex="1" parent="uvKrJsz7JBYXkbPzjYkE-20">
          <mxGeometry x="70" y="88" width="270" height="52" as="geometry" />
        </mxCell>
        <mxCell id="uvKrJsz7JBYXkbPzjYkE-2" value="Pedidos" style="shape=swimlane;startSize=25;fontSize=13;fontColor=#333333;fontStyle=1;align=center;strokeColor=#666666;strokeOpacity=100;fillOpacity=100;rotation=0;fillColor=#ffffff;strokeWidth=1.2;" vertex="1" parent="DDi1DepBDs4ZaUul2tnQ-1">
          <mxGeometry x="137" y="-1078" width="160" height="207" as="geometry">
            <mxRectangle x="240" y="-1087" width="110" height="25" as="alternateBounds" />
          </mxGeometry>
        </mxCell>
        <mxCell id="uvKrJsz7JBYXkbPzjYkE-3" value="" style="pointerEvents=1;shadow=0;dashed=0;html=1;strokeColor=none;fillColor=#505050;labelPosition=center;verticalLabelPosition=bottom;verticalAlign=top;outlineConnect=0;align=center;shape=mxgraph.office.servers.server_farm;fillColor=#7FBA42;" vertex="1" parent="uvKrJsz7JBYXkbPzjYkE-2">
          <mxGeometry x="52" y="97" width="56" height="49" as="geometry" />
        </mxCell>
        <mxCell id="uvKrJsz7JBYXkbPzjYkE-4" value="" style="ellipse;whiteSpace=wrap;html=1;fontSize=21;fillColor=#dae8fc;strokeColor=#6c8ebf;" vertex="1" parent="uvKrJsz7JBYXkbPzjYkE-2">
          <mxGeometry x="13" y="177" width="20" height="20" as="geometry" />
        </mxCell>
        <mxCell id="uvKrJsz7JBYXkbPzjYkE-5" value="&lt;font style=&quot;font-size: 10px&quot;&gt;Microservices&lt;/font&gt;" style="ellipse;whiteSpace=wrap;html=1;fontSize=21;fillColor=#dae8fc;strokeColor=#6c8ebf;" vertex="1" parent="uvKrJsz7JBYXkbPzjYkE-2">
          <mxGeometry x="33" y="177" width="20" height="20" as="geometry" />
        </mxCell>
        <mxCell id="uvKrJsz7JBYXkbPzjYkE-6" value="&lt;font style=&quot;font-size: 10px&quot;&gt;Microservices&lt;/font&gt;" style="ellipse;whiteSpace=wrap;html=1;fontSize=21;fillColor=#dae8fc;strokeColor=#6c8ebf;" vertex="1" parent="uvKrJsz7JBYXkbPzjYkE-2">
          <mxGeometry x="33" y="177" width="20" height="20" as="geometry" />
        </mxCell>
        <mxCell id="uvKrJsz7JBYXkbPzjYkE-7" value="Kafka" style="shape=swimlane;startSize=25;fontSize=13;fontStyle=1;align=center;strokeColor=#82b366;strokeOpacity=100;fillOpacity=100;rotation=0;fillColor=#d5e8d4;strokeWidth=1.2;" vertex="1" parent="DDi1DepBDs4ZaUul2tnQ-1">
          <mxGeometry x="-290" y="-831" width="360" height="124" as="geometry">
            <mxRectangle x="240" y="-1087" width="110" height="25" as="alternateBounds" />
          </mxGeometry>
        </mxCell>
        <mxCell id="uvKrJsz7JBYXkbPzjYkE-8" value="" style="outlineConnect=0;fontColor=#232F3E;gradientColor=none;fillColor=#D05C17;strokeColor=none;dashed=0;verticalLabelPosition=bottom;verticalAlign=top;align=center;html=1;fontSize=12;fontStyle=0;aspect=fixed;pointerEvents=1;shape=mxgraph.aws4.ecs_service;" vertex="1" parent="uvKrJsz7JBYXkbPzjYkE-7">
          <mxGeometry x="10" y="67.5" width="27.9" height="34" as="geometry" />
        </mxCell>
        <mxCell id="uvKrJsz7JBYXkbPzjYkE-9" style="edgeStyle=orthogonalEdgeStyle;rounded=0;orthogonalLoop=1;jettySize=auto;html=1;dashed=1;fontSize=21;" edge="1" parent="uvKrJsz7JBYXkbPzjYkE-7" source="uvKrJsz7JBYXkbPzjYkE-10" target="uvKrJsz7JBYXkbPzjYkE-12">
          <mxGeometry relative="1" as="geometry" />
        </mxCell>
        <mxCell id="uvKrJsz7JBYXkbPzjYkE-10" value="&lt;font style=&quot;font-size: 10px&quot;&gt;master&lt;/font&gt;" style="pointerEvents=1;shadow=0;dashed=0;html=1;strokeColor=none;labelPosition=center;verticalLabelPosition=bottom;verticalAlign=top;outlineConnect=0;align=center;shape=mxgraph.office.servers.server_generic;fillColor=#7FBA42;labelBackgroundColor=none;fontSize=21;" vertex="1" parent="uvKrJsz7JBYXkbPzjYkE-7">
          <mxGeometry x="174" y="36" width="27" height="52" as="geometry" />
        </mxCell>
        <mxCell id="uvKrJsz7JBYXkbPzjYkE-11" value="&lt;font style=&quot;font-size: 10px&quot;&gt;kafka2&lt;/font&gt;" style="pointerEvents=1;shadow=0;dashed=0;html=1;strokeColor=none;labelPosition=center;verticalLabelPosition=bottom;verticalAlign=top;outlineConnect=0;align=center;shape=mxgraph.office.servers.server_generic;fillColor=#7FBA42;labelBackgroundColor=none;fontSize=21;" vertex="1" parent="uvKrJsz7JBYXkbPzjYkE-7">
          <mxGeometry x="290" y="37" width="27" height="52" as="geometry" />
        </mxCell>
        <mxCell id="uvKrJsz7JBYXkbPzjYkE-12" value="&lt;font style=&quot;font-size: 10px&quot;&gt;kafka1&lt;/font&gt;" style="pointerEvents=1;shadow=0;dashed=0;html=1;strokeColor=none;labelPosition=center;verticalLabelPosition=bottom;verticalAlign=top;outlineConnect=0;align=center;shape=mxgraph.office.servers.server_generic;fillColor=#7FBA42;labelBackgroundColor=none;fontSize=21;" vertex="1" parent="uvKrJsz7JBYXkbPzjYkE-7">
          <mxGeometry x="250" y="37" width="27" height="52" as="geometry" />
        </mxCell>
        <mxCell id="uvKrJsz7JBYXkbPzjYkE-13" value="&lt;font style=&quot;font-size: 10px&quot;&gt;cloud / confluent&lt;/font&gt;" style="pointerEvents=1;shadow=0;dashed=0;html=1;strokeColor=none;labelPosition=center;verticalLabelPosition=bottom;verticalAlign=top;outlineConnect=0;align=center;shape=mxgraph.office.servers.virtual_server;fillColor=#2072B8;labelBackgroundColor=none;fontSize=21;" vertex="1" parent="uvKrJsz7JBYXkbPzjYkE-7">
          <mxGeometry x="90" y="36" width="28" height="52" as="geometry" />
        </mxCell>
        <mxCell id="uvKrJsz7JBYXkbPzjYkE-14" style="edgeStyle=orthogonalEdgeStyle;rounded=0;orthogonalLoop=1;jettySize=auto;html=1;entryX=0;entryY=0.25;entryDx=0;entryDy=0;fontSize=21;" edge="1" parent="DDi1DepBDs4ZaUul2tnQ-1" source="uvKrJsz7JBYXkbPzjYkE-16" target="uvKrJsz7JBYXkbPzjYkE-7">
          <mxGeometry relative="1" as="geometry" />
        </mxCell>
        <mxCell id="uvKrJsz7JBYXkbPzjYkE-15" style="edgeStyle=orthogonalEdgeStyle;rounded=0;orthogonalLoop=1;jettySize=auto;html=1;entryX=0;entryY=0.75;entryDx=0;entryDy=0;dashed=1;fontSize=21;fillColor=#d5e8d4;strokeColor=#82b366;" edge="1" parent="DDi1DepBDs4ZaUul2tnQ-1" source="uvKrJsz7JBYXkbPzjYkE-16" target="uvKrJsz7JBYXkbPzjYkE-24">
          <mxGeometry relative="1" as="geometry">
            <Array as="points">
              <mxPoint x="-370" y="-941" />
              <mxPoint x="-370" y="-621" />
            </Array>
          </mxGeometry>
        </mxCell>
        <mxCell id="uvKrJsz7JBYXkbPzjYkE-16" value="MegaPost" style="shape=swimlane;startSize=25;fontSize=13;fontStyle=1;align=center;strokeColor=#d6b656;strokeOpacity=100;fillOpacity=100;rotation=0;fillColor=#fff2cc;strokeWidth=1.2;" vertex="1" parent="DDi1DepBDs4ZaUul2tnQ-1">
          <mxGeometry x="-610" y="-1078" width="200" height="207" as="geometry">
            <mxRectangle x="-80" y="-1087" width="90" height="25" as="alternateBounds" />
          </mxGeometry>
        </mxCell>
        <mxCell id="uvKrJsz7JBYXkbPzjYkE-17" value="" style="pointerEvents=1;shadow=0;dashed=0;html=1;strokeColor=none;fillColor=#505050;labelPosition=center;verticalLabelPosition=bottom;verticalAlign=top;outlineConnect=0;align=center;shape=mxgraph.office.servers.application_server_blue;fontSize=21;" vertex="1" parent="uvKrJsz7JBYXkbPzjYkE-16">
          <mxGeometry x="90" y="137" width="46" height="56" as="geometry" />
        </mxCell>
        <mxCell id="uvKrJsz7JBYXkbPzjYkE-18" value="" style="pointerEvents=1;shadow=0;dashed=0;html=1;strokeColor=none;fillColor=#505050;labelPosition=center;verticalLabelPosition=bottom;verticalAlign=top;outlineConnect=0;align=center;shape=mxgraph.office.servers.application_server_blue;fontSize=21;" vertex="1" parent="uvKrJsz7JBYXkbPzjYkE-16">
          <mxGeometry x="30" y="95.5" width="46" height="56" as="geometry" />
        </mxCell>
        <mxCell id="uvKrJsz7JBYXkbPzjYkE-19" value="" style="pointerEvents=1;shadow=0;dashed=0;html=1;strokeColor=none;fillColor=#505050;labelPosition=center;verticalLabelPosition=bottom;verticalAlign=top;outlineConnect=0;align=center;shape=mxgraph.office.servers.application_server_blue;fontSize=21;" vertex="1" parent="uvKrJsz7JBYXkbPzjYkE-16">
          <mxGeometry x="60" y="39.5" width="46" height="56" as="geometry" />
        </mxCell>
        <mxCell id="uvKrJsz7JBYXkbPzjYkE-24" value="Middleware" style="shape=swimlane;startSize=25;fontSize=13;fontStyle=1;align=center;strokeColor=#6c8ebf;strokeOpacity=100;fillOpacity=100;rotation=0;fillColor=#dae8fc;strokeWidth=1.2;" vertex="1" parent="DDi1DepBDs4ZaUul2tnQ-1">
          <mxGeometry x="-290" y="-711" width="360" height="120" as="geometry">
            <mxRectangle x="240" y="-1087" width="110" height="25" as="alternateBounds" />
          </mxGeometry>
        </mxCell>
        <mxCell id="uvKrJsz7JBYXkbPzjYkE-25" value="" style="pointerEvents=1;shadow=0;dashed=0;html=1;strokeColor=none;fillColor=#505050;labelPosition=center;verticalLabelPosition=bottom;verticalAlign=top;outlineConnect=0;align=center;shape=mxgraph.office.servers.server_farm;fillColor=#7FBA42;" vertex="1" parent="uvKrJsz7JBYXkbPzjYkE-24">
          <mxGeometry x="172" y="60" width="56" height="49" as="geometry" />
        </mxCell>
        <mxCell id="uvKrJsz7JBYXkbPzjYkE-26" value="" style="ellipse;whiteSpace=wrap;html=1;fontSize=21;fillColor=#dae8fc;strokeColor=#6c8ebf;" vertex="1" parent="uvKrJsz7JBYXkbPzjYkE-24">
          <mxGeometry x="10" y="40" width="20" height="20" as="geometry" />
        </mxCell>
        <mxCell id="uvKrJsz7JBYXkbPzjYkE-27" value="" style="ellipse;whiteSpace=wrap;html=1;fontSize=21;fillColor=#dae8fc;strokeColor=#6c8ebf;" vertex="1" parent="uvKrJsz7JBYXkbPzjYkE-24">
          <mxGeometry x="30" y="40" width="20" height="20" as="geometry" />
        </mxCell>
        <mxCell id="uvKrJsz7JBYXkbPzjYkE-32" value="PROMO" style="shape=swimlane;startSize=25;fontSize=13;fontColor=#333333;fontStyle=1;align=center;strokeColor=#666666;strokeOpacity=100;fillOpacity=100;rotation=0;fillColor=#ffffff;strokeWidth=1.2;" vertex="1" parent="DDi1DepBDs4ZaUul2tnQ-1">
          <mxGeometry x="-800" y="-1078" width="126" height="130" as="geometry">
            <mxRectangle x="850" y="-1080" width="110" height="25" as="alternateBounds" />
          </mxGeometry>
        </mxCell>
        <mxCell id="uvKrJsz7JBYXkbPzjYkE-33" value="" style="pointerEvents=1;shadow=0;dashed=0;html=1;strokeColor=none;fillColor=#505050;labelPosition=center;verticalLabelPosition=bottom;verticalAlign=top;outlineConnect=0;align=center;shape=mxgraph.office.servers.web_server_blue;labelBackgroundColor=none;fontSize=21;" vertex="1" parent="uvKrJsz7JBYXkbPzjYkE-32">
          <mxGeometry x="39" y="41.5" width="48" height="57" as="geometry" />
        </mxCell>
        <mxCell id="uvKrJsz7JBYXkbPzjYkE-39" style="edgeStyle=orthogonalEdgeStyle;rounded=0;orthogonalLoop=1;jettySize=auto;html=1;entryX=1;entryY=0.75;entryDx=0;entryDy=0;fontSize=21;" edge="1" parent="DDi1DepBDs4ZaUul2tnQ-1" target="uvKrJsz7JBYXkbPzjYkE-7">
          <mxGeometry relative="1" as="geometry">
            <mxPoint x="137" y="-951" as="sourcePoint" />
          </mxGeometry>
        </mxCell>
        <mxCell id="uvKrJsz7JBYXkbPzjYkE-50" style="edgeStyle=orthogonalEdgeStyle;rounded=0;orthogonalLoop=1;jettySize=auto;html=1;entryX=0.5;entryY=0;entryDx=0;entryDy=0;dashed=1;fontSize=21;" edge="1" parent="DDi1DepBDs4ZaUul2tnQ-1" source="uvKrJsz7JBYXkbPzjYkE-8" target="uvKrJsz7JBYXkbPzjYkE-26">
          <mxGeometry relative="1" as="geometry" />
        </mxCell>
        <mxCell id="uvKrJsz7JBYXkbPzjYkE-53" style="edgeStyle=orthogonalEdgeStyle;rounded=0;orthogonalLoop=1;jettySize=auto;html=1;entryX=1;entryY=0.5;entryDx=0;entryDy=0;dashed=1;fontSize=21;fillColor=#fff2cc;strokeColor=#d6b656;" edge="1" parent="DDi1DepBDs4ZaUul2tnQ-1" source="uvKrJsz7JBYXkbPzjYkE-5" target="uvKrJsz7JBYXkbPzjYkE-7">
          <mxGeometry relative="1" as="geometry" />
        </mxCell>
        <mxCell id="uvKrJsz7JBYXkbPzjYkE-54" value="&lt;font style=&quot;font-size: 8px&quot;&gt;Subscriptor / Productor&lt;/font&gt;" style="edgeLabel;html=1;align=center;verticalAlign=middle;resizable=0;points=[];fontSize=21;labelBackgroundColor=none;" vertex="1" connectable="0" parent="uvKrJsz7JBYXkbPzjYkE-53">
          <mxGeometry x="-0.1144" y="1" relative="1" as="geometry">
            <mxPoint as="offset" />
          </mxGeometry>
        </mxCell>
        <mxCell id="uvKrJsz7JBYXkbPzjYkE-55" style="edgeStyle=orthogonalEdgeStyle;rounded=0;orthogonalLoop=1;jettySize=auto;html=1;dashed=1;fontSize=21;fillColor=#d5e8d4;strokeColor=#82b366;" edge="1" parent="DDi1DepBDs4ZaUul2tnQ-1" source="uvKrJsz7JBYXkbPzjYkE-23" target="uvKrJsz7JBYXkbPzjYkE-7">
          <mxGeometry relative="1" as="geometry" />
        </mxCell>
        <mxCell id="uvKrJsz7JBYXkbPzjYkE-57" style="edgeStyle=orthogonalEdgeStyle;rounded=0;orthogonalLoop=1;jettySize=auto;html=1;entryX=1;entryY=0.5;entryDx=0;entryDy=0;dashed=1;fontSize=21;" edge="1" parent="DDi1DepBDs4ZaUul2tnQ-1" source="uvKrJsz7JBYXkbPzjYkE-19" target="uvKrJsz7JBYXkbPzjYkE-32">
          <mxGeometry relative="1" as="geometry" />
        </mxCell>
        <mxCell id="uvKrJsz7JBYXkbPzjYkE-58" style="edgeStyle=orthogonalEdgeStyle;rounded=0;orthogonalLoop=1;jettySize=auto;html=1;entryX=1;entryY=0.75;entryDx=0;entryDy=0;dashed=1;fontSize=21;" edge="1" parent="DDi1DepBDs4ZaUul2tnQ-1" source="uvKrJsz7JBYXkbPzjYkE-18" target="uvKrJsz7JBYXkbPzjYkE-32">
          <mxGeometry relative="1" as="geometry" />
        </mxCell>
        <mxCell id="uvKrJsz7JBYXkbPzjYkE-59" style="edgeStyle=orthogonalEdgeStyle;rounded=0;orthogonalLoop=1;jettySize=auto;html=1;entryX=0.75;entryY=1;entryDx=0;entryDy=0;dashed=1;fontSize=21;" edge="1" parent="DDi1DepBDs4ZaUul2tnQ-1" source="uvKrJsz7JBYXkbPzjYkE-17" target="uvKrJsz7JBYXkbPzjYkE-32">
          <mxGeometry relative="1" as="geometry" />
        </mxCell>
        <mxCell id="uvKrJsz7JBYXkbPzjYkE-60" value="Arquitectura Empresarial MEGAPROFER" style="rounded=0;whiteSpace=wrap;html=1;labelBackgroundColor=none;fontSize=10;fillColor=none;strokeColor=#666666;" vertex="1" parent="DDi1DepBDs4ZaUul2tnQ-1">
          <mxGeometry x="-800" y="-280" width="240" height="30" as="geometry" />
        </mxCell>
        <mxCell id="uvKrJsz7JBYXkbPzjYkE-61" value="Dep. Sistemas&amp;nbsp;" style="rounded=0;whiteSpace=wrap;html=1;labelBackgroundColor=none;fontSize=10;fillColor=none;strokeColor=#666666;" vertex="1" parent="DDi1DepBDs4ZaUul2tnQ-1">
          <mxGeometry x="-800" y="-250" width="240" height="30" as="geometry" />
        </mxCell>
        <mxCell id="uvKrJsz7JBYXkbPzjYkE-62" value="04-09-2020" style="rounded=0;whiteSpace=wrap;html=1;labelBackgroundColor=none;fontSize=10;fillColor=none;strokeColor=#666666;align=center;" vertex="1" parent="DDi1DepBDs4ZaUul2tnQ-1">
          <mxGeometry x="-800" y="-220" width="240" height="30" as="geometry" />
        </mxCell>
        <mxCell id="uvKrJsz7JBYXkbPzjYkE-63" value="&lt;span style=&quot;color: rgb(0 , 0 , 0) ; font-size: 21px&quot;&gt;Arquitectura MegaProfer Alto Nivel&lt;/span&gt;" style="rounded=0;whiteSpace=wrap;html=1;labelBackgroundColor=none;fontSize=10;align=center;fontColor=#333333;strokeColor=none;fillColor=#B3B3B3;" vertex="1" parent="DDi1DepBDs4ZaUul2tnQ-1">
          <mxGeometry x="-820" y="-1160" width="410" height="30" as="geometry" />
        </mxCell>
        <mxCell id="uvKrJsz7JBYXkbPzjYkE-65" value="" style="rounded=0;whiteSpace=wrap;html=1;fillColor=none;strokeColor=#808080;" vertex="1" parent="DDi1DepBDs4ZaUul2tnQ-1">
          <mxGeometry x="-220" y="-938" width="270" height="43" as="geometry" />
        </mxCell>
        <mxCell id="uvKrJsz7JBYXkbPzjYkE-66" value="" style="aspect=fixed;perimeter=ellipsePerimeter;html=1;align=center;shadow=0;dashed=0;fontColor=#4277BB;labelBackgroundColor=#ffffff;fontSize=12;spacingTop=3;image;image=img/lib/ibm/data/data_services.svg;rounded=0;strokeColor=#808080;fillColor=none;opacity=50;" vertex="1" parent="DDi1DepBDs4ZaUul2tnQ-1">
          <mxGeometry x="-144" y="-929.5" width="22" height="22" as="geometry" />
        </mxCell>
        <mxCell id="uvKrJsz7JBYXkbPzjYkE-67" value="" style="aspect=fixed;perimeter=ellipsePerimeter;html=1;align=center;shadow=0;dashed=0;fontColor=#4277BB;labelBackgroundColor=#ffffff;fontSize=12;spacingTop=3;image;image=img/lib/ibm/data/data_services.svg;rounded=0;strokeColor=#808080;fillColor=none;opacity=50;" vertex="1" parent="DDi1DepBDs4ZaUul2tnQ-1">
          <mxGeometry x="-200" y="-929.5" width="22" height="22" as="geometry" />
        </mxCell>
        <mxCell id="uvKrJsz7JBYXkbPzjYkE-69" value="&lt;font style=&quot;font-size: 9px&quot; color=&quot;#4d4d4d&quot;&gt;BD Megapost&lt;/font&gt;" style="text;html=1;resizable=0;autosize=1;align=center;verticalAlign=middle;points=[];fillColor=none;strokeColor=none;rounded=0;opacity=50;" vertex="1" parent="DDi1DepBDs4ZaUul2tnQ-1">
          <mxGeometry x="-220" y="-915" width="70" height="20" as="geometry" />
        </mxCell>
        <mxCell id="uvKrJsz7JBYXkbPzjYkE-70" value="&lt;font style=&quot;font-size: 9px&quot; color=&quot;#4d4d4d&quot;&gt;BD Pedidos&lt;/font&gt;" style="text;html=1;resizable=0;autosize=1;align=center;verticalAlign=middle;points=[];fillColor=none;strokeColor=none;rounded=0;opacity=50;" vertex="1" parent="DDi1DepBDs4ZaUul2tnQ-1">
          <mxGeometry x="-148" y="-915" width="60" height="20" as="geometry" />
        </mxCell>
        <mxCell id="uvKrJsz7JBYXkbPzjYkE-75" value="" style="pointerEvents=1;shadow=0;dashed=0;html=1;strokeColor=none;fillColor=#505050;labelPosition=center;verticalLabelPosition=bottom;verticalAlign=top;outlineConnect=0;align=center;shape=mxgraph.office.servers.server_farm;fillColor=#7FBA42;" vertex="1" parent="DDi1DepBDs4ZaUul2tnQ-1">
          <mxGeometry x="-50" y="-1037.5" width="50" height="37.5" as="geometry" />
        </mxCell>
        <mxCell id="uvKrJsz7JBYXkbPzjYkE-21" value="" style="pointerEvents=1;shadow=0;dashed=0;html=1;strokeColor=none;fillColor=#505050;labelPosition=center;verticalLabelPosition=bottom;verticalAlign=top;outlineConnect=0;align=center;shape=mxgraph.office.servers.server_farm;fillColor=#7FBA42;" vertex="1" parent="DDi1DepBDs4ZaUul2tnQ-1">
          <mxGeometry x="-210" y="-1037" width="50" height="37" as="geometry" />
        </mxCell>
        <mxCell id="CQnpIqft_8J7B2znDPkp-0" value="" style="aspect=fixed;perimeter=ellipsePerimeter;html=1;align=center;shadow=0;dashed=0;fontColor=#4277BB;labelBackgroundColor=#ffffff;fontSize=12;spacingTop=3;image;image=img/lib/ibm/data/data_services.svg;rounded=0;strokeColor=#808080;fillColor=none;opacity=50;" vertex="1" parent="DDi1DepBDs4ZaUul2tnQ-1">
          <mxGeometry x="-183" y="-880" width="22" height="22" as="geometry" />
        </mxCell>
        <mxCell id="CQnpIqft_8J7B2znDPkp-1" value="" style="aspect=fixed;perimeter=ellipsePerimeter;html=1;align=center;shadow=0;dashed=0;fontColor=#4277BB;labelBackgroundColor=#ffffff;fontSize=12;spacingTop=3;image;image=img/lib/ibm/data/data_services.svg;rounded=0;strokeColor=#808080;fillColor=none;opacity=50;" vertex="1" parent="DDi1DepBDs4ZaUul2tnQ-1">
          <mxGeometry x="-12" y="-890" width="22" height="22" as="geometry" />
        </mxCell>
        <mxCell id="CQnpIqft_8J7B2znDPkp-2" value="&lt;font style=&quot;font-size: 8px&quot;&gt;Microservices Megapost&lt;/font&gt;" style="text;html=1;resizable=0;autosize=1;align=center;verticalAlign=middle;points=[];fillColor=none;strokeColor=none;rounded=0;" vertex="1" parent="DDi1DepBDs4ZaUul2tnQ-1">
          <mxGeometry x="-217" y="-960" width="100" height="20" as="geometry" />
        </mxCell>
        <mxCell id="CQnpIqft_8J7B2znDPkp-3" value="" style="ellipse;whiteSpace=wrap;html=1;fontSize=21;fillColor=#dae8fc;strokeColor=#6c8ebf;align=left;" vertex="1" parent="DDi1DepBDs4ZaUul2tnQ-1">
          <mxGeometry x="-108" y="-970" width="20" height="20" as="geometry" />
        </mxCell>
        <mxCell id="CQnpIqft_8J7B2znDPkp-4" value="&lt;font style=&quot;font-size: 8px&quot;&gt;Microservices Pedidos&lt;/font&gt;" style="text;html=1;resizable=0;autosize=1;align=center;verticalAlign=middle;points=[];fillColor=none;strokeColor=none;rounded=0;" vertex="1" parent="DDi1DepBDs4ZaUul2tnQ-1">
          <mxGeometry x="-122" y="-960" width="100" height="20" as="geometry" />
        </mxCell>
        <mxCell id="CQnpIqft_8J7B2znDPkp-5" value="&lt;font style=&quot;font-size: 9px&quot; color=&quot;#4d4d4d&quot;&gt;BI&lt;/font&gt;" style="text;html=1;resizable=0;autosize=1;align=center;verticalAlign=middle;points=[];fillColor=none;strokeColor=none;rounded=0;opacity=50;" vertex="1" parent="DDi1DepBDs4ZaUul2tnQ-1">
          <mxGeometry x="-164" y="-871" width="20" height="20" as="geometry" />
        </mxCell>
        <mxCell id="CQnpIqft_8J7B2znDPkp-6" value="&lt;font style=&quot;font-size: 9px&quot; color=&quot;#4d4d4d&quot;&gt;Datawerehouse&lt;/font&gt;" style="text;html=1;resizable=0;autosize=1;align=center;verticalAlign=middle;points=[];fillColor=none;strokeColor=none;rounded=0;opacity=50;" vertex="1" parent="DDi1DepBDs4ZaUul2tnQ-1">
          <mxGeometry x="-30" y="-870" width="80" height="20" as="geometry" />
        </mxCell>
        <mxCell id="CQnpIqft_8J7B2znDPkp-7" value="&lt;font style=&quot;font-size: 8px&quot;&gt;AdminConsole MegaPost&lt;/font&gt;" style="text;html=1;resizable=0;autosize=1;align=center;verticalAlign=middle;points=[];fillColor=none;strokeColor=none;rounded=0;" vertex="1" parent="DDi1DepBDs4ZaUul2tnQ-1">
          <mxGeometry x="-227" y="-1010" width="110" height="20" as="geometry" />
        </mxCell>
        <mxCell id="CQnpIqft_8J7B2znDPkp-8" value="&lt;font style=&quot;font-size: 8px&quot;&gt;AdminConsole Pedidos&lt;/font&gt;" style="text;html=1;resizable=0;autosize=1;align=center;verticalAlign=middle;points=[];fillColor=none;strokeColor=none;rounded=0;" vertex="1" parent="DDi1DepBDs4ZaUul2tnQ-1">
          <mxGeometry x="-90" y="-1010" width="100" height="20" as="geometry" />
        </mxCell>
        <mxCell id="Vz4n9AfripE0dVMgOP9q-0" value="" style="rounded=0;whiteSpace=wrap;html=1;fillColor=none;strokeColor=#808080;" vertex="1" parent="DDi1DepBDs4ZaUul2tnQ-1">
          <mxGeometry x="-220" y="-895" width="140" height="43" as="geometry" />
        </mxCell>
        <mxCell id="Vz4n9AfripE0dVMgOP9q-1" value="" style="rounded=0;whiteSpace=wrap;html=1;fillColor=none;strokeColor=#808080;" vertex="1" parent="DDi1DepBDs4ZaUul2tnQ-1">
          <mxGeometry x="-80" y="-895" width="130" height="43" as="geometry" />
        </mxCell>
      </root>
    </mxGraphModel>
  </diagram>
  <diagram id="edekFmnxJWmN16HFPUSM" name="HeadQuater-Megapost">
    <mxGraphModel dx="1935" dy="1619" grid="1" gridSize="10" guides="1" tooltips="1" connect="1" arrows="1" fold="1" page="1" pageScale="1" pageWidth="827" pageHeight="1169" math="0" shadow="0">
      <root>
        <mxCell id="QdKsELQ3hoJJfge1UENw-0" />
        <mxCell id="QdKsELQ3hoJJfge1UENw-1" parent="QdKsELQ3hoJJfge1UENw-0" />
        <mxCell id="ykQP9KYh6x0TwujYYl4z-0" value="" style="rounded=0;whiteSpace=wrap;html=1;labelBackgroundColor=none;strokeColor=#666666;fillColor=none;fontSize=10;align=center;" parent="QdKsELQ3hoJJfge1UENw-1" vertex="1">
          <mxGeometry x="-820" y="-1160" width="950" height="1000" as="geometry" />
        </mxCell>
        <mxCell id="ykQP9KYh6x0TwujYYl4z-1" value="" style="rounded=0;whiteSpace=wrap;html=1;fillColor=none;strokeColor=#808080;" parent="QdKsELQ3hoJJfge1UENw-1" vertex="1">
          <mxGeometry x="-220" y="-1043" width="270" height="53" as="geometry" />
        </mxCell>
        <mxCell id="ykQP9KYh6x0TwujYYl4z-2" value="HeadQuarter" style="shape=swimlane;startSize=25;fontSize=13;fontStyle=1;align=center;strokeColor=#6c8ebf;strokeOpacity=100;fillOpacity=100;rotation=0;fillColor=#dae8fc;strokeWidth=1.2;" parent="QdKsELQ3hoJJfge1UENw-1" vertex="1">
          <mxGeometry x="-290" y="-1078" width="360" height="298" as="geometry">
            <mxRectangle x="-290" y="-1078" width="110" height="25" as="alternateBounds" />
          </mxGeometry>
        </mxCell>
        <mxCell id="ykQP9KYh6x0TwujYYl4z-3" value="" style="ellipse;whiteSpace=wrap;html=1;fontSize=21;fillColor=#dae8fc;strokeColor=#6c8ebf;opacity=50;" parent="ykQP9KYh6x0TwujYYl4z-2" vertex="1">
          <mxGeometry x="80" y="108" width="20" height="20" as="geometry" />
        </mxCell>
        <mxCell id="ykQP9KYh6x0TwujYYl4z-4" value="" style="ellipse;whiteSpace=wrap;html=1;fontSize=21;fillColor=#dae8fc;strokeColor=#6c8ebf;align=left;" parent="ykQP9KYh6x0TwujYYl4z-2" vertex="1">
          <mxGeometry x="90" y="108" width="20" height="20" as="geometry" />
        </mxCell>
        <mxCell id="ykQP9KYh6x0TwujYYl4z-5" value="" style="rounded=0;whiteSpace=wrap;html=1;fillColor=none;strokeColor=#808080;" parent="ykQP9KYh6x0TwujYYl4z-2" vertex="1">
          <mxGeometry x="70" y="88" width="140" height="52" as="geometry" />
        </mxCell>
        <mxCell id="ykQP9KYh6x0TwujYYl4z-53" value="&lt;font style=&quot;font-size: 8px&quot;&gt;Middleware&lt;/font&gt;" style="text;html=1;resizable=0;autosize=1;align=center;verticalAlign=middle;points=[];fillColor=none;strokeColor=none;rounded=0;" parent="ykQP9KYh6x0TwujYYl4z-2" vertex="1">
          <mxGeometry x="240" y="118" width="60" height="20" as="geometry" />
        </mxCell>
        <mxCell id="ykQP9KYh6x0TwujYYl4z-11" value="Kafka" style="shape=swimlane;startSize=25;fontSize=13;fontStyle=1;align=center;strokeColor=#82b366;strokeOpacity=100;fillOpacity=100;rotation=0;fillColor=#d5e8d4;strokeWidth=1.2;" parent="QdKsELQ3hoJJfge1UENw-1" vertex="1">
          <mxGeometry x="-278" y="-722" width="360" height="124" as="geometry">
            <mxRectangle x="240" y="-1087" width="110" height="25" as="alternateBounds" />
          </mxGeometry>
        </mxCell>
        <mxCell id="ykQP9KYh6x0TwujYYl4z-13" style="edgeStyle=orthogonalEdgeStyle;rounded=0;orthogonalLoop=1;jettySize=auto;html=1;dashed=1;fontSize=21;" parent="ykQP9KYh6x0TwujYYl4z-11" source="ykQP9KYh6x0TwujYYl4z-14" target="ykQP9KYh6x0TwujYYl4z-16" edge="1">
          <mxGeometry relative="1" as="geometry" />
        </mxCell>
        <mxCell id="ykQP9KYh6x0TwujYYl4z-14" value="&lt;font style=&quot;font-size: 10px&quot;&gt;master&lt;/font&gt;" style="pointerEvents=1;shadow=0;dashed=0;html=1;strokeColor=none;labelPosition=center;verticalLabelPosition=bottom;verticalAlign=top;outlineConnect=0;align=center;shape=mxgraph.office.servers.server_generic;fillColor=#7FBA42;labelBackgroundColor=none;fontSize=21;" parent="ykQP9KYh6x0TwujYYl4z-11" vertex="1">
          <mxGeometry x="174" y="36" width="27" height="52" as="geometry" />
        </mxCell>
        <mxCell id="ykQP9KYh6x0TwujYYl4z-15" value="&lt;font style=&quot;font-size: 10px&quot;&gt;kafka2&lt;/font&gt;" style="pointerEvents=1;shadow=0;dashed=0;html=1;strokeColor=none;labelPosition=center;verticalLabelPosition=bottom;verticalAlign=top;outlineConnect=0;align=center;shape=mxgraph.office.servers.server_generic;fillColor=#7FBA42;labelBackgroundColor=none;fontSize=21;" parent="ykQP9KYh6x0TwujYYl4z-11" vertex="1">
          <mxGeometry x="290" y="37" width="27" height="52" as="geometry" />
        </mxCell>
        <mxCell id="ykQP9KYh6x0TwujYYl4z-16" value="&lt;font style=&quot;font-size: 10px&quot;&gt;kafka1&lt;/font&gt;" style="pointerEvents=1;shadow=0;dashed=0;html=1;strokeColor=none;labelPosition=center;verticalLabelPosition=bottom;verticalAlign=top;outlineConnect=0;align=center;shape=mxgraph.office.servers.server_generic;fillColor=#7FBA42;labelBackgroundColor=none;fontSize=21;" parent="ykQP9KYh6x0TwujYYl4z-11" vertex="1">
          <mxGeometry x="250" y="37" width="27" height="52" as="geometry" />
        </mxCell>
        <mxCell id="ykQP9KYh6x0TwujYYl4z-17" value="&lt;font style=&quot;font-size: 10px&quot;&gt;cloud / confluent&lt;/font&gt;" style="pointerEvents=1;shadow=0;dashed=0;html=1;strokeColor=none;labelPosition=center;verticalLabelPosition=bottom;verticalAlign=top;outlineConnect=0;align=center;shape=mxgraph.office.servers.virtual_server;fillColor=#2072B8;labelBackgroundColor=none;fontSize=21;" parent="ykQP9KYh6x0TwujYYl4z-11" vertex="1">
          <mxGeometry x="90" y="36" width="28" height="52" as="geometry" />
        </mxCell>
        <mxCell id="ykQP9KYh6x0TwujYYl4z-18" style="edgeStyle=orthogonalEdgeStyle;rounded=0;orthogonalLoop=1;jettySize=auto;html=1;entryX=0;entryY=0.25;entryDx=0;entryDy=0;fontSize=21;" parent="QdKsELQ3hoJJfge1UENw-1" source="ykQP9KYh6x0TwujYYl4z-20" target="ykQP9KYh6x0TwujYYl4z-11" edge="1">
          <mxGeometry relative="1" as="geometry" />
        </mxCell>
        <mxCell id="ykQP9KYh6x0TwujYYl4z-20" value="MegaPost" style="shape=swimlane;startSize=25;fontSize=13;fontStyle=1;align=center;strokeColor=#d6b656;strokeOpacity=100;fillOpacity=100;rotation=0;fillColor=#fff2cc;strokeWidth=1.2;" parent="QdKsELQ3hoJJfge1UENw-1" vertex="1">
          <mxGeometry x="-610" y="-1078" width="200" height="207" as="geometry">
            <mxRectangle x="-80" y="-1087" width="90" height="25" as="alternateBounds" />
          </mxGeometry>
        </mxCell>
        <mxCell id="ykQP9KYh6x0TwujYYl4z-21" value="" style="pointerEvents=1;shadow=0;dashed=0;html=1;strokeColor=none;fillColor=#505050;labelPosition=center;verticalLabelPosition=bottom;verticalAlign=top;outlineConnect=0;align=center;shape=mxgraph.office.servers.application_server_blue;fontSize=21;" parent="ykQP9KYh6x0TwujYYl4z-20" vertex="1">
          <mxGeometry x="90" y="137" width="46" height="56" as="geometry" />
        </mxCell>
        <mxCell id="ykQP9KYh6x0TwujYYl4z-22" value="" style="pointerEvents=1;shadow=0;dashed=0;html=1;strokeColor=none;fillColor=#505050;labelPosition=center;verticalLabelPosition=bottom;verticalAlign=top;outlineConnect=0;align=center;shape=mxgraph.office.servers.application_server_blue;fontSize=21;" parent="ykQP9KYh6x0TwujYYl4z-20" vertex="1">
          <mxGeometry x="30" y="95.5" width="46" height="56" as="geometry" />
        </mxCell>
        <mxCell id="ykQP9KYh6x0TwujYYl4z-23" value="" style="pointerEvents=1;shadow=0;dashed=0;html=1;strokeColor=none;fillColor=#505050;labelPosition=center;verticalLabelPosition=bottom;verticalAlign=top;outlineConnect=0;align=center;shape=mxgraph.office.servers.application_server_blue;fontSize=21;" parent="ykQP9KYh6x0TwujYYl4z-20" vertex="1">
          <mxGeometry x="60" y="39.5" width="46" height="56" as="geometry" />
        </mxCell>
        <mxCell id="ykQP9KYh6x0TwujYYl4z-28" value="PROMO" style="shape=swimlane;startSize=25;fontSize=13;fontColor=#333333;fontStyle=1;align=center;strokeColor=#666666;strokeOpacity=100;fillOpacity=100;rotation=0;fillColor=#ffffff;strokeWidth=1.2;" parent="QdKsELQ3hoJJfge1UENw-1" vertex="1">
          <mxGeometry x="-800" y="-1078" width="126" height="130" as="geometry">
            <mxRectangle x="850" y="-1080" width="110" height="25" as="alternateBounds" />
          </mxGeometry>
        </mxCell>
        <mxCell id="ykQP9KYh6x0TwujYYl4z-29" value="" style="pointerEvents=1;shadow=0;dashed=0;html=1;strokeColor=none;fillColor=#505050;labelPosition=center;verticalLabelPosition=bottom;verticalAlign=top;outlineConnect=0;align=center;shape=mxgraph.office.servers.web_server_blue;labelBackgroundColor=none;fontSize=21;" parent="ykQP9KYh6x0TwujYYl4z-28" vertex="1">
          <mxGeometry x="39" y="41.5" width="48" height="57" as="geometry" />
        </mxCell>
        <mxCell id="ykQP9KYh6x0TwujYYl4z-34" style="edgeStyle=orthogonalEdgeStyle;rounded=0;orthogonalLoop=1;jettySize=auto;html=1;dashed=1;fontSize=21;fillColor=#d5e8d4;strokeColor=#82b366;" parent="QdKsELQ3hoJJfge1UENw-1" source="ykQP9KYh6x0TwujYYl4z-4" target="ykQP9KYh6x0TwujYYl4z-11" edge="1">
          <mxGeometry relative="1" as="geometry" />
        </mxCell>
        <mxCell id="ykQP9KYh6x0TwujYYl4z-35" style="edgeStyle=orthogonalEdgeStyle;rounded=0;orthogonalLoop=1;jettySize=auto;html=1;entryX=1;entryY=0.5;entryDx=0;entryDy=0;dashed=1;fontSize=21;" parent="QdKsELQ3hoJJfge1UENw-1" source="ykQP9KYh6x0TwujYYl4z-23" target="ykQP9KYh6x0TwujYYl4z-28" edge="1">
          <mxGeometry relative="1" as="geometry" />
        </mxCell>
        <mxCell id="ykQP9KYh6x0TwujYYl4z-36" style="edgeStyle=orthogonalEdgeStyle;rounded=0;orthogonalLoop=1;jettySize=auto;html=1;entryX=1;entryY=0.75;entryDx=0;entryDy=0;dashed=1;fontSize=21;" parent="QdKsELQ3hoJJfge1UENw-1" source="ykQP9KYh6x0TwujYYl4z-22" target="ykQP9KYh6x0TwujYYl4z-28" edge="1">
          <mxGeometry relative="1" as="geometry" />
        </mxCell>
        <mxCell id="ykQP9KYh6x0TwujYYl4z-37" style="edgeStyle=orthogonalEdgeStyle;rounded=0;orthogonalLoop=1;jettySize=auto;html=1;entryX=0.75;entryY=1;entryDx=0;entryDy=0;dashed=1;fontSize=21;" parent="QdKsELQ3hoJJfge1UENw-1" source="ykQP9KYh6x0TwujYYl4z-21" target="ykQP9KYh6x0TwujYYl4z-28" edge="1">
          <mxGeometry relative="1" as="geometry" />
        </mxCell>
        <mxCell id="ykQP9KYh6x0TwujYYl4z-38" value="Arquitectura Empresarial MEGAPROFER" style="rounded=0;whiteSpace=wrap;html=1;labelBackgroundColor=none;fontSize=10;fillColor=none;strokeColor=#666666;" parent="QdKsELQ3hoJJfge1UENw-1" vertex="1">
          <mxGeometry x="-800" y="-280" width="240" height="30" as="geometry" />
        </mxCell>
        <mxCell id="ykQP9KYh6x0TwujYYl4z-39" value="Dep. Sistemas&amp;nbsp;" style="rounded=0;whiteSpace=wrap;html=1;labelBackgroundColor=none;fontSize=10;fillColor=none;strokeColor=#666666;" parent="QdKsELQ3hoJJfge1UENw-1" vertex="1">
          <mxGeometry x="-800" y="-250" width="240" height="30" as="geometry" />
        </mxCell>
        <mxCell id="ykQP9KYh6x0TwujYYl4z-40" value="04-09-2020" style="rounded=0;whiteSpace=wrap;html=1;labelBackgroundColor=none;fontSize=10;fillColor=none;strokeColor=#666666;align=center;" parent="QdKsELQ3hoJJfge1UENw-1" vertex="1">
          <mxGeometry x="-800" y="-220" width="240" height="30" as="geometry" />
        </mxCell>
        <mxCell id="ykQP9KYh6x0TwujYYl4z-41" value="&lt;span style=&quot;color: rgb(0 , 0 , 0) ; font-size: 21px&quot;&gt;Arquitectura MegaProfer Alto Nivel&lt;/span&gt;" style="rounded=0;whiteSpace=wrap;html=1;labelBackgroundColor=none;fontSize=10;align=center;fontColor=#333333;strokeColor=none;fillColor=#B3B3B3;" parent="QdKsELQ3hoJJfge1UENw-1" vertex="1">
          <mxGeometry x="-820" y="-1160" width="410" height="30" as="geometry" />
        </mxCell>
        <mxCell id="ykQP9KYh6x0TwujYYl4z-42" value="" style="rounded=0;whiteSpace=wrap;html=1;fillColor=none;strokeColor=#808080;" parent="QdKsELQ3hoJJfge1UENw-1" vertex="1">
          <mxGeometry x="-220" y="-938" width="270" height="43" as="geometry" />
        </mxCell>
        <mxCell id="ykQP9KYh6x0TwujYYl4z-43" value="" style="aspect=fixed;perimeter=ellipsePerimeter;html=1;align=center;shadow=0;dashed=0;fontColor=#4277BB;labelBackgroundColor=#ffffff;fontSize=12;spacingTop=3;image;image=img/lib/ibm/data/data_services.svg;rounded=0;strokeColor=#808080;fillColor=none;opacity=50;" parent="QdKsELQ3hoJJfge1UENw-1" vertex="1">
          <mxGeometry x="-144" y="-929.5" width="22" height="22" as="geometry" />
        </mxCell>
        <mxCell id="ykQP9KYh6x0TwujYYl4z-44" value="" style="aspect=fixed;perimeter=ellipsePerimeter;html=1;align=center;shadow=0;dashed=0;fontColor=#4277BB;labelBackgroundColor=#ffffff;fontSize=12;spacingTop=3;image;image=img/lib/ibm/data/data_services.svg;rounded=0;strokeColor=#808080;fillColor=none;opacity=50;" parent="QdKsELQ3hoJJfge1UENw-1" vertex="1">
          <mxGeometry x="-200" y="-929.5" width="22" height="22" as="geometry" />
        </mxCell>
        <mxCell id="ykQP9KYh6x0TwujYYl4z-45" value="&lt;font style=&quot;font-size: 9px&quot; color=&quot;#4d4d4d&quot;&gt;BD Megapost&lt;/font&gt;" style="text;html=1;resizable=0;autosize=1;align=center;verticalAlign=middle;points=[];fillColor=none;strokeColor=none;rounded=0;opacity=50;" parent="QdKsELQ3hoJJfge1UENw-1" vertex="1">
          <mxGeometry x="-220" y="-915" width="70" height="20" as="geometry" />
        </mxCell>
        <mxCell id="ykQP9KYh6x0TwujYYl4z-46" value="&lt;font style=&quot;font-size: 9px&quot; color=&quot;#4d4d4d&quot;&gt;BD Pedidos&lt;/font&gt;" style="text;html=1;resizable=0;autosize=1;align=center;verticalAlign=middle;points=[];fillColor=none;strokeColor=none;rounded=0;opacity=50;" parent="QdKsELQ3hoJJfge1UENw-1" vertex="1">
          <mxGeometry x="-148" y="-915" width="60" height="20" as="geometry" />
        </mxCell>
        <mxCell id="ykQP9KYh6x0TwujYYl4z-47" value="" style="pointerEvents=1;shadow=0;dashed=0;html=1;strokeColor=none;fillColor=#505050;labelPosition=center;verticalLabelPosition=bottom;verticalAlign=top;outlineConnect=0;align=center;shape=mxgraph.office.servers.server_farm;fillColor=#7FBA42;" parent="QdKsELQ3hoJJfge1UENw-1" vertex="1">
          <mxGeometry x="-50" y="-1037.5" width="50" height="37.5" as="geometry" />
        </mxCell>
        <mxCell id="ykQP9KYh6x0TwujYYl4z-48" value="" style="pointerEvents=1;shadow=0;dashed=0;html=1;strokeColor=none;fillColor=#505050;labelPosition=center;verticalLabelPosition=bottom;verticalAlign=top;outlineConnect=0;align=center;shape=mxgraph.office.servers.server_farm;fillColor=#7FBA42;" parent="QdKsELQ3hoJJfge1UENw-1" vertex="1">
          <mxGeometry x="-210" y="-1037" width="50" height="37" as="geometry" />
        </mxCell>
        <mxCell id="ykQP9KYh6x0TwujYYl4z-49" value="" style="aspect=fixed;perimeter=ellipsePerimeter;html=1;align=center;shadow=0;dashed=0;fontColor=#4277BB;labelBackgroundColor=#ffffff;fontSize=12;spacingTop=3;image;image=img/lib/ibm/data/data_services.svg;rounded=0;strokeColor=#808080;fillColor=none;opacity=50;" parent="QdKsELQ3hoJJfge1UENw-1" vertex="1">
          <mxGeometry x="-183" y="-880" width="22" height="22" as="geometry" />
        </mxCell>
        <mxCell id="ykQP9KYh6x0TwujYYl4z-50" value="" style="aspect=fixed;perimeter=ellipsePerimeter;html=1;align=center;shadow=0;dashed=0;fontColor=#4277BB;labelBackgroundColor=#ffffff;fontSize=12;spacingTop=3;image;image=img/lib/ibm/data/data_services.svg;rounded=0;strokeColor=#808080;fillColor=none;opacity=50;" parent="QdKsELQ3hoJJfge1UENw-1" vertex="1">
          <mxGeometry x="-12" y="-890" width="22" height="22" as="geometry" />
        </mxCell>
        <mxCell id="ykQP9KYh6x0TwujYYl4z-51" value="&lt;font style=&quot;font-size: 8px&quot;&gt;Microservices Megapost&lt;/font&gt;" style="text;html=1;resizable=0;autosize=1;align=center;verticalAlign=middle;points=[];fillColor=none;strokeColor=none;rounded=0;" parent="QdKsELQ3hoJJfge1UENw-1" vertex="1">
          <mxGeometry x="-217" y="-960" width="100" height="20" as="geometry" />
        </mxCell>
        <mxCell id="ykQP9KYh6x0TwujYYl4z-52" value="" style="ellipse;whiteSpace=wrap;html=1;fontSize=21;fillColor=#dae8fc;strokeColor=#6c8ebf;align=left;" parent="QdKsELQ3hoJJfge1UENw-1" vertex="1">
          <mxGeometry x="-70" y="-968" width="20" height="20" as="geometry" />
        </mxCell>
        <mxCell id="ykQP9KYh6x0TwujYYl4z-54" value="&lt;font style=&quot;font-size: 9px&quot; color=&quot;#4d4d4d&quot;&gt;BI&lt;/font&gt;" style="text;html=1;resizable=0;autosize=1;align=center;verticalAlign=middle;points=[];fillColor=none;strokeColor=none;rounded=0;opacity=50;" parent="QdKsELQ3hoJJfge1UENw-1" vertex="1">
          <mxGeometry x="-164" y="-871" width="20" height="20" as="geometry" />
        </mxCell>
        <mxCell id="ykQP9KYh6x0TwujYYl4z-55" value="&lt;font style=&quot;font-size: 9px&quot; color=&quot;#4d4d4d&quot;&gt;Datawerehouse&lt;/font&gt;" style="text;html=1;resizable=0;autosize=1;align=center;verticalAlign=middle;points=[];fillColor=none;strokeColor=none;rounded=0;opacity=50;" parent="QdKsELQ3hoJJfge1UENw-1" vertex="1">
          <mxGeometry x="-30" y="-870" width="80" height="20" as="geometry" />
        </mxCell>
        <mxCell id="ykQP9KYh6x0TwujYYl4z-56" value="&lt;font style=&quot;font-size: 8px&quot;&gt;AdminConsole MegaPost&lt;/font&gt;" style="text;html=1;resizable=0;autosize=1;align=center;verticalAlign=middle;points=[];fillColor=none;strokeColor=none;rounded=0;" parent="QdKsELQ3hoJJfge1UENw-1" vertex="1">
          <mxGeometry x="-227" y="-1010" width="110" height="20" as="geometry" />
        </mxCell>
        <mxCell id="ykQP9KYh6x0TwujYYl4z-57" value="&lt;font style=&quot;font-size: 8px&quot;&gt;AdminConsole Pedidos&lt;/font&gt;" style="text;html=1;resizable=0;autosize=1;align=center;verticalAlign=middle;points=[];fillColor=none;strokeColor=none;rounded=0;" parent="QdKsELQ3hoJJfge1UENw-1" vertex="1">
          <mxGeometry x="-90" y="-1010" width="100" height="20" as="geometry" />
        </mxCell>
        <mxCell id="ykQP9KYh6x0TwujYYl4z-58" value="" style="rounded=0;whiteSpace=wrap;html=1;fillColor=none;strokeColor=#808080;" parent="QdKsELQ3hoJJfge1UENw-1" vertex="1">
          <mxGeometry x="-220" y="-895" width="140" height="43" as="geometry" />
        </mxCell>
        <mxCell id="ykQP9KYh6x0TwujYYl4z-59" value="" style="rounded=0;whiteSpace=wrap;html=1;fillColor=none;strokeColor=#808080;" parent="QdKsELQ3hoJJfge1UENw-1" vertex="1">
          <mxGeometry x="-80" y="-895" width="130" height="43" as="geometry" />
        </mxCell>
        <mxCell id="ykQP9KYh6x0TwujYYl4z-60" value="" style="rounded=0;whiteSpace=wrap;html=1;fillColor=none;strokeColor=#808080;" parent="QdKsELQ3hoJJfge1UENw-1" vertex="1">
          <mxGeometry x="-80" y="-990" width="130" height="52" as="geometry" />
        </mxCell>
      </root>
    </mxGraphModel>
  </diagram>
  <diagram id="R5EXXXFqUC1f62B3YgT3" name="Megapos-HQ">
    <mxGraphModel dx="1358" dy="834" grid="0" gridSize="10" guides="1" tooltips="1" connect="1" arrows="1" fold="1" page="1" pageScale="1" pageWidth="827" pageHeight="1169" math="0" shadow="0">
      <root>
        <mxCell id="2sZWoGPq9gcTRGBdr20x-0" />
        <mxCell id="2sZWoGPq9gcTRGBdr20x-1" parent="2sZWoGPq9gcTRGBdr20x-0" />
        <mxCell id="e9t1QxQzN6Q4QcO_MpgL-4" value="" style="group" vertex="1" connectable="0" parent="2sZWoGPq9gcTRGBdr20x-1">
          <mxGeometry x="869" y="25" width="240" height="100" as="geometry" />
        </mxCell>
        <mxCell id="e9t1QxQzN6Q4QcO_MpgL-3" value="" style="group" vertex="1" connectable="0" parent="e9t1QxQzN6Q4QcO_MpgL-4">
          <mxGeometry x="18" width="240" height="100" as="geometry" />
        </mxCell>
        <mxCell id="e9t1QxQzN6Q4QcO_MpgL-0" value="HEADQUARTER / MEGAPOS-BACK" style="rounded=0;whiteSpace=wrap;html=1;fillColor=none;" vertex="1" parent="e9t1QxQzN6Q4QcO_MpgL-3">
          <mxGeometry width="240" height="50" as="geometry" />
        </mxCell>
        <mxCell id="e9t1QxQzN6Q4QcO_MpgL-1" value="BDD 1" style="rounded=0;whiteSpace=wrap;html=1;fillColor=none;" vertex="1" parent="e9t1QxQzN6Q4QcO_MpgL-3">
          <mxGeometry x="136" y="50" width="104" height="50" as="geometry" />
        </mxCell>
        <mxCell id="e9t1QxQzN6Q4QcO_MpgL-2" value="Middleware" style="rounded=0;whiteSpace=wrap;html=1;fillColor=none;" vertex="1" parent="e9t1QxQzN6Q4QcO_MpgL-3">
          <mxGeometry y="50" width="136" height="50" as="geometry" />
        </mxCell>
        <mxCell id="s46t9nGi8IWXGiIq6aix-14" value="&lt;font style=&quot;font-size: 8px&quot;&gt;presentadores&lt;/font&gt;" style="rounded=0;whiteSpace=wrap;html=1;fillColor=#dae8fc;strokeColor=#6c8ebf;" vertex="1" parent="e9t1QxQzN6Q4QcO_MpgL-3">
          <mxGeometry x="68" y="86" width="68" height="14" as="geometry" />
        </mxCell>
        <mxCell id="s46t9nGi8IWXGiIq6aix-15" value="&lt;font style=&quot;font-size: 8px&quot;&gt;microservicios&lt;/font&gt;" style="rounded=0;whiteSpace=wrap;html=1;fillColor=#dae8fc;strokeColor=#6c8ebf;" vertex="1" parent="e9t1QxQzN6Q4QcO_MpgL-3">
          <mxGeometry y="86" width="68" height="14" as="geometry" />
        </mxCell>
        <mxCell id="s46t9nGi8IWXGiIq6aix-7" style="edgeStyle=orthogonalEdgeStyle;rounded=0;orthogonalLoop=1;jettySize=auto;html=1;entryX=0.007;entryY=0.87;entryDx=0;entryDy=0;entryPerimeter=0;" edge="1" parent="2sZWoGPq9gcTRGBdr20x-1" source="2sZWoGPq9gcTRGBdr20x-5" target="e9t1QxQzN6Q4QcO_MpgL-2">
          <mxGeometry relative="1" as="geometry" />
        </mxCell>
        <mxCell id="2sZWoGPq9gcTRGBdr20x-5" value="&amp;nbsp;MEGAPOS-BACK" style="rounded=0;whiteSpace=wrap;html=1;fillColor=none;" parent="2sZWoGPq9gcTRGBdr20x-1" vertex="1">
          <mxGeometry x="460" y="200" width="240" height="50" as="geometry" />
        </mxCell>
        <mxCell id="gNwDX6Y52TMu_98uNcVp-6" style="edgeStyle=orthogonalEdgeStyle;rounded=0;orthogonalLoop=1;jettySize=auto;html=1;entryX=0.5;entryY=1;entryDx=0;entryDy=0;" parent="2sZWoGPq9gcTRGBdr20x-1" source="gNwDX6Y52TMu_98uNcVp-0" target="2sZWoGPq9gcTRGBdr20x-5" edge="1">
          <mxGeometry relative="1" as="geometry" />
        </mxCell>
        <mxCell id="gNwDX6Y52TMu_98uNcVp-0" value="RECIBE" style="shape=swimlane;startSize=25;fontSize=13;fontStyle=1;align=center;strokeColor=#d6b656;strokeOpacity=100;fillOpacity=100;rotation=0;fillColor=#fff2cc;strokeWidth=1.2;" parent="2sZWoGPq9gcTRGBdr20x-1" vertex="1">
          <mxGeometry x="424" y="318" width="312" height="253" as="geometry">
            <mxRectangle x="30" y="300" width="110" height="25" as="alternateBounds" />
          </mxGeometry>
        </mxCell>
        <mxCell id="s46t9nGi8IWXGiIq6aix-17" value="" style="shape=image;verticalLabelPosition=bottom;labelBackgroundColor=#ffffff;verticalAlign=top;aspect=fixed;imageAspect=0;image=data:image/png,iVBORw0KGgoAAAANSUhEUgAAAL4AAADOCAYAAACAVrhcAAAgAElEQVR4Ae19+XsUxb5+/ga5oqBw9Lnne3yORy/q6EURD+fEKxhlSQwoJ6AkLBMSJGENARIggDIhQFiTsAQSQ0JYwioQlgBBQCAIKrKIBFlFyA6y+NP7fT7V3TPVNd0z3UMCmVD9PE1XV33Wt96qrgldMyGQh0TgMUQg5DHMWaYsEYAkviTBY4mAJP5j2e0y6YCJX/MncPk2cP72n+ykMtXJQyIQDAjYJv5tKGTf+vufWF75JxZU1rKTylRHA4Fk5CERaM4I2CI+EXrfbYXsrspaGJ00EEhGkr85d7uMzRbxD97+05DsRgOAZP0d148WoejodX9iQdx+HUeLSnFanAVun0apUX0QZxpsoVsmPq3faTbnSZ5y8DRGfL0XI9bvQNLOCrh++N3dTrI+1/y3T2NW7//Gf/ee5U2MYEPRHa9I9F1whjjgqnQLKIUbmzDhPxOw6YZQ774V7bgbZKGRELBM/H2/w01qIj+RPnr2cvRPz0T/STMRk74ErvIrOhnSMTtu742HIzwTmeEOxO8Vp0QzreZeLxJdvLcaf6B6Vu1LOcvEX1mpX+ZEzZiP2EVFcP14Ba4fa5G6+zt25Z8IpGN83MbeeAciim7gRlEEHPF79Z8Jbp/C9sJCFBYWYvupUzhSuB2n2Ni4zspHjmxHYeERsEUSJ+uuI6eG9Yr+qese+0eukyjZ0/xxg9CXjVNHBB2yPR6hIc+jb2YhCskwzAisxsFc3cap7YpviuHIdSM7fvLxikVF3Uf8OgyNO6lF11om/mJhmfN/Tidcxyp1MzxPeiqTjuFxey/iHREookf9jSJEOOLhmfSv40hmX7wXGoWoqCgkuuIR6l4uEJGeR+9RiYiKWoaTINl4RPRUZKNCnchgI8SsXtHvm+FCYlQUokL/itDxhch3kT3l/vm+W5QBZWpbtZEyXdA5iWVRofhryBN4heJZdtIH8bkBcX0L+r4XqtiKisKyk0Z2/OTjFQuh7lvHg6FhD7X4SsvEX1H5h47k4cmTkLR+L1xnfofrTC2mVpzH1B8u62RIx+hgy5yIIihL3BsoinCg7xb1Q+7t1ej9xCuYS7yhcbF5EP6qI/4T7EnBGklWm2Fpxh4fiudTfgDM6tkM/AReSdys+D45nRGVnjzsYPe9sZpmYn82tAB5Ha8ZniO44kH9l6v/dhSeCB2P7cojzbudagKJxY+OO2ddXI/PjWXib7uiX+OP2rQf/aYtxIjiLRjx1R4My1mN1PIfdcQnHe/jOrb0fR7P952DlStXsnNO3+cREpqrzLSVLjgcLng+D3IkEYlFsiF/RWi/fuinnTTTmtWL+r7uA7LBx0qZi/caGlz9jc1I6dcPia58hgVbIYl6gcRiWUeL6fG6Wib+hT+AOcJyh8jff24W+n+Rhdil65T1vipDsqTjdVzPRegTr6CXRlR27YVXnghFLk36N5bgvef7wv0AOJUhLHW4v5KQbEiourzhPJnVi4TydR+QDY7QLBzxXovRu/7G5hT0euUJ9GaPG6E9kFgs62gxPV5Xy8QnWDbd0C93xDU9f0+yRsf13FA84V7maBK03HkCoYz5J7GMrb2Vp0G+K0JY6nDEx0ks6/UKHNzTYyWbMs3qBUL5Ir6pbV82TmL6X59H3zkrocRBsuq9+nTbxpY0nI3rR7gn33sYtJmWXaKdQPKxqqP1weN1tUV86pJVN/7wmvl5wtNMTzLqqtkLzZO5/ZGyxbv1xpYU9M9VF/Ync9G/f392pqxyoXfIe1jCVE4it38KdOo3tiBFlWU6mg3DelHfz30ANig/TxxkX73X8mHBc365XPv3z4WKAPR26ElolCdnhyEt3FvS8eqix6LCFvEJEeLfnht/IO/KH1hYqQwCIjuVqY7avGkdOJbXN3+C558YhW8DNyE1JQJeCNgmvmaB1u9HbiiDgMhOZcM1vaZg+XobP20rQEGBcib/+//h3ZQtjTqYLIciBVssAgETv+kQuYEtqZ/i00+1czl+ajpn0vJjikAzJP5j2hMy7YeKgCT+Q4VbOmsuCEjiN5eekHE8VAQk8R8q3NJZc0EgYOJX/wlcvAWcu/UnO6lMdfKQCAQDAraJfwvAz7f+xJbf/0Qut+eWylRHbSQjD4lAc0bAFvGJ0GW3/O+5JRlJ/ubc7TI2W8Q/cEu/GYV/VUEsk6zx8RsO5eUhjzsP/WYsaa2W7G3BSR8j7bdDech7MCfWQnlgKZNcbp3EFj85PrDrx8yAZeLT+l3cczvxm5+QsHEXEtZsxdjth+H6Xr/n1njNTy9otYIjMhrR0dGIjnQgcuwhXAsYeO6FLyMbt36EK/Jv+FukCz/6GBxGqk1fdw2HVmzm4jLJ5eZWTI6ejK03zSIS7ZjJyXoNAcvE3yvsuSXSR8/KxaezFuDTqXMwcOZSrz23pON9CJ17cym6hkSiOGBSCvYEh7fKhsIRuQALIh0YWhawE8FqY92KsYv3Vv0EqmfVfsuTs0x8cc/tf76ci6HZxZ49t2XHLe65FTrp2lL8629O92x27dAKrFihnoe054A6o/14yN222T198/ZIbgVWuPVuoWyoA5HFN3GzOBKOoWXCZ49b+HGzx59bDSb1t37EZi22FSvgkRdnXP7eLHaqH4t/hTyHPjO1mPlceLLx9sTYjOwA0MWqPVHNYlF9+dA5dGgzVqzQ7PCxBWfZMvEbb88tde5z6J2+HMuXL8fyMU50yzvlRu9UXgxiYujshhe6zFCXAarOxC+Vtm4v4LneG9XlkUYWIsQYOLvFIEazd6sMQx2RKKYlws1iRDqGwjPpk3w6hkb2Vv3FQFEzq7+Gg+m90ZXsU3y9HYgcoy1TtBi0NPh7s9hPIY9ypGVfby1mXk+zRVeu/tpG9O7ajYvZyA7FOhSRZJdi7ebEDDZRmMVCPnzrRI4ejZiYPHh6io8v+MqWiS/uuY0YPwVj15V59twe/QVTv7+k23povOeWwFc7mxFoNGYs1whE+B9UBsTyMeii22vbCo4FKuynvsQL7uWRQoqhuQqJNc5TVyjLnGIoS+ObKI50oPdG9SlCg+K5F+AUF86m9cWIDHkBX2o9f3MrnC88h4nfkyeOmIwD/L2ar4/YPd+7w+vxZOLqD49Gqy5j4HniGfi/RbHyk0sXPMcC9RGLHx16arakwzLxtwt7bkdvOYB+0xchoXAjElbsRHx2sdeeW9LxPrhOpEaaiVupBKJHLT0B2IzfG45W2m4rQUdHNGp7Dg5HK7VzNY/XsLH3c3iud7o6kJYjvfdzCOmyVHlSsD2pTuzSxLWrjfpdzhA4mQF/8Wl5kBNeli+LbVpAQv3NrZgSE4PRrlyW10E2jgU7LIcXVBzVWZ/NCIIcH4tlHT6u4C1bJv6vfwCZwp5bIv9nC5fgs/QlGLp8g27PLcmSjvchgH9rN2L/0gqjDwP4fiL+0mo0qAhWrxFG0OE7jJVbIXJMGt53jsamH9QPsNeWoEur19Fn4EAMdJ998HqrLlhCZLm5GpGtumCGJq8Falq/DF1DVF0W3w+Y0eUFzGBPgMMY3eov6uxPT60lwtNKy4MU+Vz4stimBWRcf3NbGvq83gofraJ8BTs3lVi9chPl+HvLOnxcwVu2THxKcctN63tuSdb4oE76C3q7cpGbm4tcVywi+6RhGz1JTy3E647ecFH9sonoannGV4h1Kr8PImNdyN30A84u6YJWkavVZY4WyU2sjmyFLgrzsS3tfXTt7VLiyM3FATZ73jSpP4X8Pq/jo9F83PnqmvcmtsW+gC5a2xInXtAt08yIfwozXlCxYM4FbHJz1YHMEfvaAXe8rt5dEasAJ9hRYnVwueW67ZvHQvn519GwDO6rLeITN1ff/MNr5uf/84pmepIxXxGeQr57BqbZWCU9w5FIp87QafnIT9PaSEcrkyB/z5dV/bRt2Jc/EGmMFPoOoplyYL62UNfH4q5m9j1PCnf9zW1Ic8fOx0Mh5XueLPn5XLx8fGLspKb6YU708dCTSsmBs8H7GagNPNEOPdH4WAeqOXN2GCzCvSUdPZ7BemeL+JQkEXrfzTv46uodLKq8wwYBkZ3KVEdt5qQPVphk3C0NAdvE1wC4eAeouKkMAiI7lalOHhKBYEAgYOIHQ3IyRomAGQKS+GbIyPoWjYAkfovuXpmcGQKS+GbIyPoWjYAkfovuXpmcGQIBE7/qPlB5Czhz6z47qUx18pAIBAMCtolP/0FOZN90/T5yK+9jfmUtO6lMddTW3N56D4aOkDE+XARsEb+B3gppUMjO/28tX6aBQDIkKw+JQHNFwBbx9zfc1712zBNeLJOs76MB369fjMWL1XP99+pguYr9i9fjexo5Dd9jvVb2bcxiK2eb12h0P7xxWW6OCFgmPq3faTbnCT5h/0kMX1+K4as2YczXB+E6cd3dTrKma35GtC8wIc4Jp1M9x7mw6ypBxL2QVbUd053Tsb0qUOhEonO2eZN+/Yh2eGVZDkYELBN/z3X9b2AR6QdkLMOAzCwM+GIBBs3KhWv/VTfxaYCQjvfRgBOLI9Dtw1isPM21VpWilN2bkJMTtV4UbYn3Vi0FqmfVvpR72AhYJn5BpX6Z03d6JuIWr4Hr5FW4TtZi0t4T7Mo/EUjH62jYBWf7v8PFk14nxJPsKspzSnBC+8DQcAIlOTnIYWc52AMCqsyJcrU+ByVMgepH4J2Q9oiYnoOccpLmbfNOeT8NOFGi+chB+VUjO7QMsxOL6suHTnl5CXJytJz42GS5KRCwTPxG23NLO33+awyOmGbDk5MvX0X5dCf6/CcWsbGxiP3QiemM4CTTHhETXGr939E+ogRXcRorYz/E30P+Cx1Jhz1eeHt8AFz91RJEdPtQsRVLTyUjO3ZjIV9+dMaMQ2zsSpjOB3y4svzACFgmfl7lHd0y5qOJUzF69U64Tl+H63Qt0g7/jLQTF3UypON1EPHbT8AJrwatgiMhP0M3FCGCCD4tG9nZ2chOfAftJ5AVkn8SHbPOKAbOpOPvIREoYk8J3hY1i/cGPo+MwZPvJGKd+zFjoBdILH50+qwN+IOMloS82kDAMvFLr+rX+GO2HmI/8/l5QQk+X7YdcYuKMGn/SR3xScfrqFqLPk++gxzD/bgkzZOTK7M9oX9H96FDMVQ7VxLZORnmjL/ny6JtPjJOrqoUXw4dimRXDhtg5SxOrp3UAonFsg4flyw3FQKWiX/pjveeWyJ/dFYu+2Kp+LxNynpf/csPbU4hHe+jCqXxf8c7idlQSKVKNJzACS+ScYSrysX7Ie+oyxveKifDqvl7vkyN4r1mx7u+qvRLRHV8EhHs0SG0BxKLZR0tJnltSgQsE5+C2FqlX+7wH2TFMsmaHmcKEdfvTUQkZCErSz2zXVjLVis8yfjyGRT2exOO8KkenX00UngZ8sjfn0H6i+0RPjULWW5Z9V71u/Y4rYk4nSv73Panhr+PYTtoCSLaCSwWa/GboiYbGhEBW8QnCqytUrYbikTX7mmmJxm/K9aqHZgRF4c47ZyxQ9U5g8K4GWB8A18GIOoU0kgRZIT7M4WqD7cs5zMuDjNUYrt90qDUYoorhPrJAXo7gcViLf5G7F1pyhQBW8QnK0Tob6ruYOXVO8ji9txSmeqozS/pTcORDRKBh4OAbeJrYdH6/bsqZRAQ2alsvKbXNORVItB8EAiY+M0nBRmJRMA+ApL49jGTGi0AAUn8FtCJMgX7CEji28dMarQABCTxW0AnyhTsIxAw8W/cB35pAH5quM9OKlOdPCQCwYCAbeLT/3MS2Tdcv49l3J5bKlMdtWlvEQcDADLGxxMBW8QnQu+wsOeWZCT5H09CBUvWtoi/r16/GUV7TcHoSrLGx2Xsmb8Hl40bg6iW8piP+XuMM6k/Voz584txrD6IUjIMlfI0yKP+GIqN6g1tNL9Ky8Sn9bvXntt9P2DYmq8xrKAEozZ/47Xn1njNTy+EGfwET5NiY9J5D+ST8miN1uFpBuS+jDU92yHE/eMQD+ToISuLWHEv8PGRVO3CzOEzscv0/RTRDq/86MuWie+153bfD2zPbcy8xYhxZWHQ7OUW99w+CuKbdN4D4a/YDAtzYPAOYVq/nI23//EP/CMoiS9iJd5bBS1QPav2H0zOMvHFPbefTJuNYctKPHtu9/1gbc8tewVYm/Evo2zeKhw7VoZ58+axcxVbG9Tj2Kp5KONXEZfLMG/VMTCK1R/DKlV+3rwyddlkZovqh6FTSDv0nDQP8zSjOhu8L8VOWdkqzJu3DWWmcSgdO3bxcIT1XMMt3epxLC0cnRZnwMkT39DfA+R52YMBpVR/jOLlMVSJofMbCFZmBFbxVjqE9Zfmv+yyFcz9xeI/fqWPNDv2BoJl4jfanlsd8QnUdug5PgMJCQlICH8J7RiJqrFr+EvolOVh/uWsTnhp+C5U4zLKJg3CJwMSVB0n0thgMbN1FsUJ4XgppDU6kU7xWYDZ6ImwcNXGgE4IH7ZKXbIodsLHpiAhYTmKTePQCHEWGS91gjvU+lIMcnyCkmqtnTqEYjby9wB5prmQomLWadg8LHRRvDyGmt8HxYrPgycXV395DXqGhSv+ExJQfNYMczux+I9f6aNiUI/aPSwTX9xzG5kyDaNWlXr23H57FmnHf9VtPTTcc+tF/NbotFgN/WwGXgoJRyHNIlTulOWezbPCO4GJ1RciXJu9aYYb1gntxh9XN5OY2OI3mhBCzMZLyNAQq96F4S+1AzPDZFvjk5JqBUuzODibZxd3Qnia8jS6vKYnwtgA5Yjhy5+ZfX95ptAkoOIUIsSrYejPhhHuXF4KAFweSoX6L1d/dCxadxoG5WmtCXHtVBVILH503H2kubRxtUz8HcKe27HbvkX/L7MRn7ca8TlbMHRhodeeW9LxPggQbakjgKMD/SyWvB2OKRX1qK+YgvC+JUpHs72rLyEiMRGJ2slmcV+2hDZmQ4tBidD8N2tN4uBjrS5BX8cglF6qwJTwt7GEDSjOp09/JvYDypNyEf0+IFa8PV1ncn6qdyMjMRGprgWYO3cuyi4JcdBtIPlY1tEFZunGMvEvG+y5JfLHLMlHzNx8DCv42mvPLel4HwSYRjoOPCaov68u6QvHoNVYPSgMCbvVGbh6OcJCOrEBobet19URQOw81UYW6yCajSowpZP2BBDtAJ44HOirPQl0NquxOyEMPeJ7wKENUL7dpz/e/oPmSYhw8TcGVrw9HeCcH7W+encGot9ujXD2yBbaA4nFso4uMEs3lolP1rZVW99zS7LGBwFijfhgM2kndArL4NZxZ1Ec/TYcPVLZ7EIzzFw2xQhA6zqM1uHt0CNVk1VshMfPVWykDkLfaG2tKNoBUL0bCWEURwK08acjGCV6dgnebv2SZ4AK/ilmY39kn54YjZEnBcLH3xhYkT0VO8J67lysqqC1KOfnUpm7L1J7aIPXGHO7/Watr42Z5qvWFvFpzi2p9r/nlmTU+dnA989YPWI1fmYtVJ7FkUm8r8buWSMwYrUi7TZWvRuzRozACO1k7aKu/v7n1aq8Zktnw1cMildaCr2cwcehtw9QrFpepCO0m/oj2cbL07dfDUshNiFWPVYky2E9YgRmsdHP2fh5tacv3H0L6O0oE4jdfqNJx7+OmxmWC7aIr3QRcKj6Doqu3kE2t+eWylRHbeaktxxX8xKsr8BkWrvzvG9eEcpobCJgm/iafVq/n6hWBgGRncrGa3pNIxiv9agoykRmyiD0Td3d8gZ0MHZJI8UcMPEbyX8zN1ONstkjMXLkbJS1uMdYM4e+icOTxG9igKX55omAJH7z7BcZVRMjIInfxABL880TAUn85tkvMqomRiBg4v9+D/i5Hvix/h47qUx18pAIBAMCtolP/2f3Q/09lPx2D0sr72FeZS07qUx11MbeVA2G7GWMjy0CtohPhN5er5DdaLsh1dFAIBlJ/seWU0GRuC3i76m/p3vt2Iz8VE+yPo+LOzFr1iz3WXDUzlC5iJ2zCmBLBSY69UdRYNuWz8xkYxAgYJn4tH6n2Zwn+/g9JxC3aiPiVqzGyA374Dr+m7udZE3X/Bd3IsPZC/8cPAZjxtA5GP+JGY+CI1bJz70gZRlkE53qPcgck4k9pv9BdRE7MwpgOTTL8UjBR4mAZeKX/ab/DSwi/Wczl2LQwmUYlLEEg+esgOuba27i0wAhHe+jHkdS38T/9OHJVo09U/4JxwercNFbwaDGhMQGkp6qQHRIO1A9j2dZan4IWCb+V5X6Zc4nUzPw+fINcP10Da6fajG5/Ed25Z8IpON11G9DzLP/g9nnhJbqDfjPU72wkk36yiy7c2cBMjJ2KoOh/ggKMjKQkZGBgiMrhf2snja3PC1tMgrgsWFGYH5Gr8eRAsUH+dl5kdqceDPkWXwwPgMZO9VhycUi+jtyZCeLUYmTe4L50PHEKGAib5sMAcvEb7Q9t7Sr5qkkVHilVAmX41kkf0cNRNJn0SspDWPHrsM5XMSO5A/wQZ+xGDt2LNJcMejo3shNbTGIGqK0je3jROqROgMbZsTn6i+uwgcf9GE+yM+6c+ewbmwfdAh5Cv8k++totPr290HybEW/Twc8636C+dbx5OkFiqxoIgQsEz+/8q5uGROZ+gVGFm6D69RvcJ2qxZRDZzDluws6GdLxOoj4zyaD8VvXSMR/CklsRBAZn0LUhhpFom4lej31TyxTnxI1e0aig0Z8aqMZOXkmZs6ciZlDOuJZNnoEG6ZLFo74FUl4quMQfMUGjhYc105Vfvz9Uwvy3Gx0COmFlTQG/ei489RcymuTI2CZ+Duv6df4SaVH8OmMHMTlrkJc1kbELliJyd/8pCM+6XgdNRsQ9VRHLBQX83W0BPoAKxjXBbLRYHG4UOk2xrWzfZkd0GesOuPTlc3MnAzTE+81Y1x9zR7MZU+UTDaIdrAYuXZSCcSfZR0tJnltagQsE//KXWCu8FcdIv+g3EIMWliIz4u2K+t9VYZkScf7qMHeUR3QcUgp90H2IkrHhcHRJRfKpC6QrWYFPngmDEXqYKk7nOJZ6lBbSEekHKaplT8EG1ZmfFW9Zu88OLs8hZ4F2pLJAZc26gLxZ1mHj1+WmxIBy8SnIEpr9Msd/oOsWCZZ0+NcCZI+dmJIejrS2TkEzo+TMG+vurTxIuk5lHxMg0WRz3RFeZY6OIcSZxc4wsapttKRXkojxIj4zyBsnOYzHflssHByF0vdNsaFfYBRLJ5zmN1B1WN27fjTBoxVHVPEZEMjI2CL+ETLDTV3vWZ+nvQ005OMRmHTeIn8SUnus0T3V55zKEmaB/c4ICOc/Ly9e/XtNXsxj7OVxIyJNuje4498KwONk+N8JCWVqE8fcq3qaUFa9sflYEnHFC3Z0MgI2CI++SZCH665i+Jrd5FTqQwCIjuVqY7a/JK+kZOQ5iQCdhGwTXzNwdW7wA81yiAgslOZ6uQhEQgGBAImfjAkJ2OUCJghIIlvhoysb9EISOK36O6VyZkhIIlvhoysb9EISOK36O6VyZkhEDDxr98DztQBJ+rusZPKVCcPiUAwIGCb+PSf+ET2db/dwxJuzy2VqY7axJcHggEIGePjhYAt4hOhv67zv+eWZCT5Hy8iBVu2tohfVqffjMK/qiCWSdb4+BXbvvgCX7jP5TgUJKPk12183J7y8iZJgHAywKbuEJYb1RuDLWtNELBMfFq/i3tuk8uOY+jKEgxdVogR68rg+k6/59Z4zU8vhT2Nf8dNwIQJExD3bwe6zTrUTJ8QevL9skGJecKE/+BVLoeF5U3xkgb38hzfeTXlWDhhIcxd6mPmVWXZg4Bl4u8W9twm7/4On6UvwZDsFRgyZwWGZOZ57bklHe9D36E15WPwatsB+LpZzvr6WD25mNV7JB68FKiPQPUePOJgsmCZ+OKe24+npGN43ibPntv9J63tuTV8XVh7fRe4sHU6pk9Xz60XaPsSDuVOBytqyF7Yium59JS4gK3Tc3HowiHkqjokV3co120jl1+G1Hnkpk/fCrIOzcahrYIO2Y7BGyFt0W30dEzXBWBALh+2t26leMifnXgNfPDxsolCwUbDa+sFk5h9xHbIK28VZB86nnxU2SC8WCZ+o+25FYhfd2gC3ni6Pzapq4XzGyZi4kQ6o/DqGxNwqK4G5WNexRvzFZoSxhfmv4FXx5Sjhtlqi24TXPiCdKJexRsx05Hh+kKxEfUq2nZb6SH46AHoH6/aj3JiAhsURLC26JacKeicxwaKgZY0pLPhPNe9IikvYKsP2z2SKJ4NOG8rXtGH5p6rv7AS3T6MUvGaiA3njWL2HZt33gxhi/loMQXf1TLxxT23vSfPQCL90qG25/bAKWt7btXO7zpqGqZNm4ZRXbujX9Z+z6vMF7ay+mnTovGGtq/2fCZefWO+m8Dze4Qij/GQSNAGoV+o+iQX0gb93aOI7nvgK5od675Cj5C20PxOi34Dbd17c9sgVDEIMBuqjjBIPd3LkY8q/dh2x8PsWYzXiu+KJLR5IxrLDvLrRHuxGeZtOR8PIsFWskx8rz23OyvYntvYpQWInb8OznlfWdtzq3X+sBSkpNC5Ee65tO4glkU70Y/VD0NoG20JdB55oT0w/mAd6g6OR4/+m9SBInSyF1m4drbv9VXVtup7I3nmZFjv8fd8me9aoT4g22RPsKO7F9s0/1x9zX5kpaTgC1cGmyyU1RjXTiqBxGZZR4sp+K6WiX/NaM/tzgoMySvGkOxiJBTv8NpzSzreh9AxvMB3yWjbRv3qkbqvMaCtRnygZlN/OAYUoGCAwzOj64hChkTb3H1NPrqHvMEGD+/Sp46XPU2Ts0tVAdn2E69V3+R+fxaGhbZBD/Zoa4TYLOej4RF8V8vEp9R21lrfc0uyxofQMbzQ+TyEOrpi5NSpmDpzHLq7Z3wAtfsxtvvreL37WOyv1ZREW77uz2PT56FwdB2JqWSfzq/pc4NvnczX2qLrSE3WzG8gtsmWL9/Upr/pgyAAABaQSURBVPpW4116kBLndC587c5lZNfuGMuAOQ99zIHEZlVHwyP4rraIT7BvqvW/55Zk3Nz0wuQ8NqVmc+TlBWqxPzsVqampSM3ehE3Zejn6rdnXMt0LIwCiLT/3tfuRTba1cxPZ8q1zfpMqz2S1WEUdZWDate3bN/ngYk1NRbZKbDd+5zd5cknd5F4yesUcQN400fjPR8Mj+K62iE/pEaErau9i9bW7WMztuaUy1VGbOekfAKDagxjv/lD7AHakqkQAgG3ia6jR+v2nWmUQENmpbLym1zQCvdbiwNI0pI34DJ/O+KZpBlWgoUm9oEUgYOI/vIxr8U32JEyalI1vmuRR8vAykZ6aDwJBQPzmA5aMpOUgIInfcvpSZmIDAUl8G2BJ0ZaDgCR+y+lLmYkNBAImvvZXnWO1d0Fn0/1Vx0Y2UlQiYBEB28SnP6wQ0dcY/B2f6qhN/vHFIvpS7JEhYIv4ROjNFv7nlmQk+R9Zn0rHFhCwRfxdNt7VIVnjoxKbJ0/GZPeZY/73+dpvkDPZR7uxA7WW/Bjo2rbZWHZ8BisbHzIClolPa3rxF1HG7ToGZ/5qOHPykbBmF1zHPD/3SbLG/5OrvHz1f4lTMGXKFCT+nwPvmv2PbO0BLJmyBAcCenxwL3PxoPq1KRK9sezwQcjyo0bAMvF3Cb+BRaT/1LUYzsVfsXfx6X181wHPZnP61gXS8T70RKo9kAxHm0+xOSBye1v31Oj9eOr9lUQ98d6fvtYeqJ6mL69NiYBl4os7sPrQDqyvtuh2YNGvH/JfM2L4q4f8a7UsM54g57FpUjY2bcrGpEn0tqFy73lVQXt9gV5hmAT3C5O13yB7klKn6JFh3i4PIW9TtEdt/fFaSBu8O3wSJjEHjWWH3vAzilON55tNLCfKK9uTsE8dD058frJsBQHLxG+qPbe13yThtbafYQub8YlkbdB9XDrS0r7GBR15iaTD8elnI5CWlsZO9jo9DY7hn+KzEUpd2gAnkhhxzAjL1Z/Px7s9BnD2LuDrtAF4PaQt3iN7hu/ra7DateMrzjZ4d9w8JY4Br6PNu/nqK8a+dTw4aTHJq1UELBNf/JaFPlPSkZC/2fMtC9/8hMnHKnUzvuEvmzMyqzPqpEkY/m4PDFh6QP0rEJGpLT5TRoF+1q7djE/bvI5kccFfSzurPPYm9X8NbcYd0+vq0OAIe2wc2r7WXz/D6gYbKXLyD2LHZ5xt8d5X6mb6C/Pwekh35NNE4EfHg5MuMHljAQHLxN8lfK/OOPpeHddiDMnJw5DMYjjn5mPKgVM64pOO96GQm+1qYjuLaGbXDpFk3D3bB+rELk1Uu7L61xGt7aoy3VmlKXA2aw9i6dSpmOn6km3oUJZOXDtTEe8DtGM5Ts6fZR0tJnm1ioBl4v9m8E1qRP7YgnWIXboOiWt3K+t99Xdu6VvXSMf74DrWq1Fs4+5rt+Cztq+p2+s4xdqv0CPEoN7KTK2aqT24FCO7tkV3Ns1yPlm7eK/59q73acdynJxdyzpaTPJqFQHLxCeDu2utf3cmyRofXMd6CYht/H0tDi6NRo/Qz93b7ZQZ+gK+HtkVDq4+1f2htA1CP/ds31O27nE2ua17n7NvcaD1xQXMe13Va1Q7vuL0bKrXL62s6ngBKSv8IGCL+PTtLQ/+bckXsHXaMui+CsYdpNhmdK98Hw99J4/7y83oa0mmeeqnsQbS5eqmTVO/f4az6f4OH5LTvlmNvs1N1WtUO/T9O2Zx8nhw8REulnTcAMqCRQRsEZ/1A4Djdfew1uD78amO2vivN7IYhxSTCDxUBGwTX4uO1u+n65RBQGSnsvGaXtOQV4lA80EgYOI3nxRkJBIB+whI4tvHTGq0AAQk8VtAJ8oU7CMgiW8fM6nRAhCQxG8BnShTsI9AwMS/ehf4sQY4WnOXnVSmOnlIBIIBAdvEpx8uOVJzF8XX7iKH++5MKlMdtTXFT6EFA5gyxuBBwBbxidAba/x/WzLJSPIHDwkex0htEX9HjfXvxydZ4+MXrB8/HuPd5wLsa5RRQnYbyxZFbmKvZh8WNKofY5RkbdMiYJn4tH4X99wm7TiKwcuLMHhRLoavKoWrQr/n1njNTy+JPYP3x87AjBkzMPZ9B/41bV8jPCG4l88CwuwXrE/mB46JvbpvsWLGCnxr+l6GaCegYKRSEyNgmfhev4G14yj7DSz6ceehC4sQO7/Aa88t6XgfekLVfTsR//t0P2x84Flfb9fbr78aUV+896evtQeqp+nL68NAwDLxxT23vSd9iRErt3r23B48jQffc6vMluvXL0By8nr8QgjQ0iI5GcnquZ5VqtBwbQv25cGp/UoiLVN0s7d4X4N9C3ib1N4Xr4Q8jX8NTUYyc2JGYN6WFTtiDmpeWoz71rtzW8Cv+bjc3FioOjp8HgZLWqAPy8Rvqj23NXtHocMz0djKlg5EtqfxYfIcuFyl+BW/oCS2C3oOdsHlcsGVFIYPP5mPvezpoG+b44pCBzfxRdLy9zXYOz8WUdFJik2XC6W//opS12B0DHkGYUkuuEp/tbbl8JdcdOk52I8dijMK0WSXchjsxCiWgJJrl6QFan1HPN0lVxnsLG9zHQ8+LZCRDykly8QX99x+nDYTw1ds8Oy53X8SkyvO67Yemu+5fRpdYsdh3LhxiO3SE4PzDquvMhMZnkG0MgqAmjx8GNIRC4iHdNQdRkrHp5FUQbNoHj58JgxFalvd4RR0tEL8mg2IerojUg6Li3R+cJAz8V4JQVf/XTKe6fAJ5isjURUQ9FgOnnzHfdIBT7MElFzDtAR+XYCOIR8ijwa1Hx03PlpI8mobAcvE3y3suU0uO47P0pewD7aDZxViSGae155b0vE+1A7XZkA2s2tSAmkM9tnSD8A5aeMttTlcqNRUdUQV7PBtBjYVEz503D6owMnVHUaey4U5rqlsEJewZRjXTuLMX0cMptleOw2fKJyeZR1dYPLGBgKWiX/dYM9t8p4TiCvagLjlGzBi/V6vPbek431wHezVKLTVFaBnSAfMPqcK1uzFqA4dsfAizf4F6PlUF+SqbWzJ5J7xv0PyM08pTwZSPTfbswyq24aYZzqoyw0+AME3T3BezKC+7nA+xoU9gw9W0HQt2FFzUJY3vCFBjtezrMPbk2U7CFgmPhndU2d9zy3JGh9ih/NSYttFlI4LwwcfJyEpKQlJzijEjCsF8R64iNIhHdFBbUtzxXBLnTocTvG0Jc126tvyh6BnF6diMykJJWzwXMTCjk+hizMJSayCYlHvyXdSEua51+bqHtlzJW4bzi491eWTaEfJwcH589g322trVYfHTpbtIGCL+LQq3lZ3D/QNCvw3pvFlaiMZcQXtCeoiStPz4bXEZgIGbXWHkZ+ejnR2CnoXS9X6dOQfPqy3y7Wll5bq22jQuG2mo1QZSbhYqvphFXoZ8p/PguZi5H2kawMSgh3ls4knh3Sku+3z+XB2CQtd3mY6HlRlyR4CtojP+gPA93X3UGKw55bqqM2c9PaCk9ISgaZCwDbxtUB+vwecrVMGAZGdylQnD4lAMCAQMPGDITkZo0TADAFJfDNkZH2LRkASv0V3r0zODAFJfDNkZH2LRkASv0V3r0zODIGAiX/lLvB9NfBt9V12Upnq5CERCAYEbBO/GgrZV127i2xuzy2VqY4GAsnIQyLQnBGwRXwi9Ppq/3tuSUaSvzl3u4zNFvG3V1vfc0uyxsfPWDNqFEa5zzkoa5RRQnYbyxZFbiPO6jLMCdi3Sdy2bTaWHeNea2m1lolP63dxz+3Y7YcxcGkBBs5fjM9pN9ZR/Z5b4zU/vfz1LD6cOBuzZ8/GxA8deGdyWSM8IcQX3Ox2lUgcG3HWH8XK2StxtN6uT5I3iduvTaN4+Zfe1Fhs2wkkh+DTsUz8HVehezGNSN//y2zEryhGfPYaDF2w0mvPLel4H/qOrj86GW+17ov1Dzzr6+16+/VXI+rr7xsvTjEOvR+x1fxe1BPvzTX1LYHq6a0E251l4udV3tERPzJ1OkYWbffsuT10xmvPLel4HyLQ/P3PWDNyNtasmY2RI9fgZ1KuLsPskSMxUj3XsErVKtc2u2wFt+dWseNZQon31Sibzduk9o/wckhrdI4ZiZHMCR8X+ePvxTj92feO152fzq4qxy68zUDi1WzZtSNirvYDLf1GzkZZ2Rp3X8z2ACz0k15H159aWI/4apn4TbXntrosES8/OxDb2TKByNUaYePnY86cXbhEYMd0Rq+hczBnzhzMmdgdYR/NVj8T6Nvmu/riZfdGFJ6khDB/TySKQd+BExWbc+Zg16VL2DVnKN4KeRbdJ87BnF2XBB3qV19x+rNPMVC8fTGQ7FMuQ51IZMThdXk2cPU/L0XnXkNtxeuxZNeOrzhbo/PYRWr8b6F156XK5OQzN74/PVE96pJl4hdU3tfN+J9Mm4Vhy0rgOnkVrpO1mLTvB0w6+otOhnS8D+qI1ng7ZgRGjBiBmLfDEVdUAWV5TG3tMKhUXSxXL0dYyFvIIh7SUV+ByW+1xtijNCstR1i77litttVXTMZbVohfXYK+rd/C5ApxQc4RhDmzESc/sMzss1w8eY/46GW0ZomIfpVUdYP1+Hi0e/kjzNrNrwdFPfE+QDs+42yH7hrgl7LwVkgYllNIfnTc/amF1Ayulolfdl2/xh+/93sMmLkUAxcswcD0fAyevRxp9BUj3CYV0vE+qIPaoXtKJjIz6dwNjde6ziZFg/2xD3fPrcU4eeIbxMwwYPVvIY7lrOa+2/vJ4sGLI3J9BYoyM7HAlcomi9Vsuce1MyXxXrPE1VuxYzlOzq5lHS2mR3+1TPwb94H5HKmJ4ET++NWbEZ+/GaM2lsN1+rqb+CRLOt4HB5hXo9BWX4jwkJeRoa3rq3cj4WX1CUBtrd/GErWtencCt9Q5jvHt1CcD+fg5w9NWX4pB7V5Ggm72JCHBt9c9H6wPWTP7ai7+/Wp+RB/0wCtCSvd2CGPTrNgu3gdox3KcnD/LOlpMj/5qmfgU6t56/XKHn93FMskaHxxgXgJi2yWUpfZAWEQiEhMTkRjdF4NSy9QnxCWUxXfCS2pbqmsQOrmXOvWomOJpS8xw6ttWxSP87WjFZmIiis9SIJeQ1ak13o5ORCKrEGPhgxXb+Pt6VJjYp1wcnF+PH9Uv5ZiYiAw2KDmbZ4vdsUa/HY4pbJlmFG9j2FEwN46T/3MpFx+s6vAYPtqyLeLTqri0/r7XzM+TnmZ6khFX0J40L6Fs7ip4LbGZgEFbfQVWzZ2LuewU9C6VqfVzsaqiQm+Xa5tbVqZvo45y25yLMnWtdalM9cMqDGJxJyG2Gd1rMXvs02cUTy5zMdftxyNLea5Sie3Gic9lrjbwAe94G8OO8lnKOE4efyFn09x4HTeAj7xgi/gULRH6ZP19bLh+H0srlUFAZKcy1VGbOekfeb4yAIkAQ8A28TXcaP1+rl4ZBER2Khuv6TUNeZUINB8EAiZ+80lBRiIRsI+AJL59zKRGC0BAEr8FdKJMwT4Ckvj2MZMaLQABSfwW0IkyBfsIBEz8S3eA41XAgao77KQy1clDIhAMCNgmfhUUshdevYOsyjvIrKxlJ5WpjgYCychDItCcEbBFfCL0uiqF7Pz/1vJlGggkI8nfnLtdxmaL+Fur9JtReMKLZZI1Os4UDcOwYd6na2dTD5UzKBrmQuO4IVv6HHTxV+2Eq9F8GaH4IHUmODTrmB8kX2Ndy8Sn9TvN5jzBx2w9hOicFYieswjxX22B68hVdzvJGq35r+xdiIUL6RyOt0Pao1eacr/muwbjCButln+pysyoCSm8xMmWJ3bKJeKt/hhWdEaRbPgOaxauQZOn5BWXUYWYkwkOfmMW7Rj5Cp46y8QvFfbcEun7f5GFz/PX4vMl6xG3qAiug57XkmmAkI75YdIB5goP2GLFnxUZCkOUu4K9ab3Q/h8zoVL/AWNtTHUxVvHeqq9A9azaf7hylokv7rn9aOJUjF69U3kH/3Qt0g7/DNdp/RPBeM+tlqABkFU7MCM+HvHsLFRJdAaF8TOw44ynrfAMULVjhioXjxk7tGWSt6ynTe/vTKHmJx7xZBCk2wMvhjyJN/tpdSBHBjHpbbGMGnZiSPsXkc6Yr8bBwqrCjhkeX8wVUzCp1/mLh0eet0kG+Hu1vKNQwITqxZwMYmfx8PbE2IzsmGFjFgtzYoKnolNYSH2q9bsq30QXy8RvvD23WiZiB5xBYb+PMSRtERYtWoRFCU4MY4QmuSfx5jAXsll9Z7zYIx7jXdmqXGc8+Wa2OkgE2bRwON4cD2Vc6P1d2af6WZSAzi8Ow46qK9hH5ZD2CKcY9l1RyGUaE/9uOuVUCZdD/UVG/olwJhtvRiQosS5aBGYWRKx++HhImlBPGLyJiAQ1trRwvN9jhmH8+qeOmveYHAETo5z0OGi9obPnFbORHT/95RULefKt8/4E6tN9IOSb+rBMfHHPbd/pcxC/ZK1nz+3e7zHpyDn3Gp+WOsZ7brWUhA6oysX72mxLM36PF/HkmCPqsqI9wrOPg30KuJLDyDlkp/qZgN2/j1w2u5JNTrbhOKZ1fhLMDE9GCuGMNjvSjKiR2E5Mmo6WDxG/PSacoHvOzokJaP9iD+6pRDPlWnz8ZGdMOy58rmEYdEaO1vO+4ud9sHJ7hK9TFb0w4WPlYtNCZ1eu3ihmnT/KwU9/GcXiR8fdp7q4mubGMvH3CHtuJ5T/iAEZyxA9NxvRXy7HoFm5XntuScf84IAmIbZvszMSsrKQpZ1sehTkxA7Q3YuyVch932AWpuVED6fqayrC22vEEPQtx6SROQJFjMucnYbjWJuVhWzXeMTFxSlLF2bXCfq5Xt1hUO/eY6zLk7Q4H7qynTbeO2fPKGbRh2VsOLuWdfi4mqZsmfg3DfbcEvk/X7cNnxduw+gtB7z23JKO+cEBQkINRYgIeVFd3vBagpzYAbp7kn0SH69V1/zqzKrMoJydI2PwZPsJYJMzkzEhvuWYtCWK9pjmfKmpNBxfi6nh7fE+PZrUzwPKUo7LVfWnfE5Q1tDDXtSeACcwob329KInVrr5k8oLEy0/8uUdmxKBd70uZlHPMjacXcs6HCZNVLRMfPJf3mB9zy3J+j44QJjgFeybSmvyfmxmpNkxjn2yE+V83VNbe0SMUWbXOLZeNiDjlXUId7yJfuRj/BhEuGf8K8jpTB9uNd++YlLlyEbcMEyYmqWu3ykZLsYzhe58+r0ZoS5vGnB8bQIiuFyVD7GKv/d7kM04xNHni6la/A04Po0+36ht6U50Nlui8f4h5kSx8bHHqcswfzGLdnxhYzbQrOr4Zk5jtNoiPj3Fdzb433NLMsLq1SDWKyjPXocTvGDDCazLzka2dpbTmlWU83WvdN6EknVuG8wE887rNeDEOtXPunKUr/PEcaVcrdcUTWPi4hTz4GO+Uu6OJTu7nPvgRvF4bGjuoPPniUtJgbNVXs7hx+dGkvp7fU56v4T1OtYJnI5JzHo79JQOoL8s6RjQpZGrbBGffBNPTzfcx8br97GM23NLZaqjNp7LjRyvH3PcrOVHUjY/3gjYJr4GF63fzzcog4DITmXfa3pNsymvkvhNiW5Lsh0w8ZsnCFdRnlOiXz41z0BlVI8YgRZG/EeMpnQfNAhI4gdNV8lAGxMBSfzGRFPaChoEJPGDpqtkoI2JgCR+Y6IpbQUNApL4QdNVMtDGROD/A6rOixrbzHNNAAAAAElFTkSuQmCC;" vertex="1" parent="gNwDX6Y52TMu_98uNcVp-0">
          <mxGeometry x="26" y="36" width="190" height="206" as="geometry" />
        </mxCell>
        <mxCell id="gNwDX6Y52TMu_98uNcVp-5" style="edgeStyle=orthogonalEdgeStyle;rounded=0;orthogonalLoop=1;jettySize=auto;html=1;" parent="2sZWoGPq9gcTRGBdr20x-1" source="gNwDX6Y52TMu_98uNcVp-3" target="2sZWoGPq9gcTRGBdr20x-5" edge="1">
          <mxGeometry relative="1" as="geometry" />
        </mxCell>
        <mxCell id="gNwDX6Y52TMu_98uNcVp-3" value="PRODUCE" style="shape=swimlane;startSize=25;fontSize=13;fontStyle=1;align=center;strokeColor=#82b366;strokeOpacity=100;fillOpacity=100;rotation=0;fillColor=#d5e8d4;strokeWidth=1.2;" parent="2sZWoGPq9gcTRGBdr20x-1" vertex="1">
          <mxGeometry x="32" y="15" width="678" height="130" as="geometry">
            <mxRectangle x="192" y="40" width="110" height="25" as="alternateBounds" />
          </mxGeometry>
        </mxCell>
        <mxCell id="2sZWoGPq9gcTRGBdr20x-7" value="" style="shape=image;verticalLabelPosition=bottom;labelBackgroundColor=#ffffff;verticalAlign=top;aspect=fixed;imageAspect=0;image=data:image/png,iVBORw0KGgoAAAANSUhEUgAAAoYAAABPCAYAAAB28gQsAAAgAElEQVR4Ae1dbUwU1/4mDakxEDdAIFwMbcCmFFMR43tDa6X6R7BcjS+1Va9Vq7Z4VbQWW61g1aJiS33DolUrIIKyYm1BvVp8Ky/KOwvjXG9yP/Rjc2/TL/3Q3ibN88+Z2Vlmd2cOu8ssOws/ksksOzNnzjzn+f2e55w5MxsC+iMECAFCgBAgBAgBQoAQIAQAhBAKhAAhQAgQAoQAIUAIEAKEAEOAjCHxgBAgBAgBQoAQIAQIAUJAQoCMIRGBECAECAFCgBAgBAgBQkBCgIwhEYEQIAQIAUJgWCHw559/4rfffqOFMBixHGAx4OsfGUNfkaPjCAFCgBAgBEyJwM8//4yWlhb09PTQQhiMOA4w7rMY8PXPI2NIvS/qeVLv2zcO/PHHH17H5q+//oonT57QQhgQBzQ48N///nfAmGKi+K9//Qv/fHyFFsJgxHGAcd/vxpCdgHpf1POk3rd3HOjs7ERfX9+AIua6A4s3dhyJGok6ccCdAz/++KNryLj9T8bQHTfi0sjBZMiMIfW+Rg6pKIEY19a+GkOKN+PagPg8vLAkYzi82pPi0/j2JGNIw+Q0smRiDpAxND7pkZCMbEzJGI7s9qf4H7j9yRia2BQQgQcm8HDHiIwhcWC4c3yor4+MIcXUUHMu2M5HxpCMIY0YmpgDZAxJxIJNVMxeXyON4WOhFjbhKuVQE+dQs/PRjPUjY0iEpqRmYg740xiSqJHpNKMo+btOgzWGglCL2s7bONzcgt0/tEvL3sZWnGu9j9beb4ddPhX7zuBi4QZ8YT0/7K5tMFwbzriYyhiSUJFQDSZQh+OxRhvDkSZqvnJiOCf9gTAZ7tc+GGPY0XcNnzU3OwyhYgyVdUFjG2503fSbger7fifWpycg1jIG8VPTUXi1wtBzia1bMTd0Ls4KVke5Yt9pVHy6Hp/VfO34TuFQ84GpsKzc4/S9eOddTA8ZjcUlF6Tve0rnIjwkGQXf95epHG/U2nZ9O1alxSNqjAUJ0+Zg/xVjcdGqJw8Xrf1534nCYfw9IQQhIapl7CJYVe3AO15r27dbExzlhb2126mNtPZXfxdwY0hCRWZQTUhvPw93ETPSGAZS1ERhD5aHyUkvNDwaEzKW4mzDZa+SlSs3RGEvVlnsifSp0fjLizOw6cwpCINIpso5fE36WkKplOnLmgTPPT8ORvBYG/hqDIXHV7mmUG0O7/bUu3G7o7cCtzqOoc1W5rbNE26IwjkUvWZB2geH0NxRgdvHM5D43DJcM4Dvyvm1jKGyTWutxXfJGL6YjLQ3P0S3cAnn3p6G6an+M4YMl4OzLXgtvxitXRW49Xk64sYtwzcG4qJ17f74TuzOQ3bISzjabpyJflQ0A0FlDAMqVAHo1fiDSKxMreBk3xvdu5TFfSoOt2iTlkTMeBEzyhgGXtSYMZS5I3SdxaXtqYietREPBpG8ZWM4EZ/et0Lsq0bjhWWYHJGG4zr89Ff8qcvVi0X1Pp5+JsFzjyc1dr4IHjs+eI3hJ1gRNhmHmuT8KwpnYD2xF7e7rRCFyzixcBTeKsjFohcjMCb6WWR+cACt9vjquLYZy2bEIXKMBeNmZuHzuosOc9p2eS0yX4iEJSYJKw6tRIZqxPDiuijHqFPqjuOOY8Sv5yNMPbolfZbNn2QMU5Zgy5IMfNW+H2uXLEXOpH5jqFcXsTwbsfMysPSZCEzL246CV6IQM+UtWLvk6+25vg1vvxyPaOka5uHwd5VSfUThc2wZl4C8OjsuvadhLT2Eezb5f93zcTATqhZh7Isrcd2OnygUY8vz0Xi3Su7M6uHC+CU07EbOnETEWsIRP2U29ln7Ry/16qLwWssY8nCRNXkW8o/Nx+TYcMS8MBMfVZc72omV60ucBGzEMOBCxYzhEPZqlIb3x1pLjPzRu+QZQxIx/4jYcDSGLAbE7h34a+grKLEn/dbqdVgwKQaWcAsSp8/BoW/kpC9Y30Bi3AJU2ZO8nKBjkFN9GWpjKJUpHMX742Ow8fJAglCDe6cW4uVECyxx47G2ZD0WeCCG7BzNZcsxd3wUwp4ehZjxM7Ct7CweC1bwhJIdpycIPEEnwTNe8Fhb+GoMaztuO91C3nn/Id49W4G/FR3BxvJLTtuKmlsgquYud/VW4ugPm1DbWogjDzaizeYs3qxeAy2isAuLQ2aguFXmt3p/mUdPIX7+e7jaVInWuhzMjUxEXj0zjceRlxKJrMIjaOsoR31hGmInr8Vtxlu2bUKEtK214zyu7EtDvCoWlHNc3RwPJ2PYVwPBdhmNhVNgWVmAPttlaZFiQdLWlag+PBtv5y7CssJCfGgfMeTWpTwbkVNW4FpDLjLjXsYXtw8jNyUKOdWsniexa0okMvd9gdaOctTtfwmxE9/GTekaqlC1IR6xLy/FidpzsKk6m9zzScZQB7Peg1g/dhx21NvNZv0qjI9bgOpeZ+zdcBHOozjTgplbD6Cp4wIaSucjKX4hLvXy20HBWc8Y6uPCOtwxyPrkEFra5baNSV6OehUGZAw9CC5HAzDycno1er2TgXoSugIwQG9I9zjpFtwsfFw8DynR4YhNTsOuGrkHwhMjUdDvXTIM9ISYbdMVP6ku07CtMAupMWGISU5Dvn0uB4mYf0TMKGMYeFHrHzFkHBOF3VgWKo8gin1H8PHsScg5WYLW9jJ8t3cmoiatsQvXCeRNtGDluSpJOB9fWYZxCUtwRUq07FZy/4hhU9WbmGKZgS+a+ElYtH2CFRFjseLkl+joLMM3RekY54kYCkexLTkabxSXoK27EvfOrMbSFbm4xcSJJ5RcYWYjPTriJJDgGS14jHu+GsPPVA+b7HrwCK9v3IJlBfux5lgpFn/4MbbW1jmZwx9s/beT73WVovKhPBePre91fzmgEWR1VS8DG8MQZH1u1wahCieXRmBFaTXErg/weuhslCqdq95dWPx0Go53WCF25SFbva1pE2Z5EAtKvTQHJezG8EbTZmRFTMP++yX9xpBXl/JsWDK3olMownupC3FJqERxZjjWlFvtHUn3azhmv+Uq2kpxdns6JsWMQuzUTHz2nTwiyr12yRjqYCbUoHpDLCbmHZPa4NbOZMS9s99tmoq7MfwUa6NTUfjAbiiFCjRYi/GAjepyrl3BU88Y6uIiabLqfKxtQ51vRQeVMQy4UHF7NZzeCacnwe2dcHtDvB6d3CPIyD+A5vYyXNs5GeGKaHLFiNO75AoxR/wkEkZh7u7+uoyZ+g4aqNfml14bSxZGGcPAi5q+MVSSorIWH+bitVEZ+Nre672/NxWRiz9Ep1AD68axeG7zYXmUTj3HMCQET8WlYGNpqZS8eUlYutUVlY2Lym2illykeyCGbNRi5yQLsvYUoaGp0k0kWP01hZIjCPJIj7Y4sfJI8OwCa5DgMUx9MYZsLnx+Y5vD+L17phxv7vnU8b8yv1C9vtZ1y2Hs7nZ9iapHn0hzDIsf5KCkcSu+asqTlrKWXY79lBjQWntiDBcelztQ6uOleYNut33tnTKXh0305hi6GiClfE2+K8ZQqIHQW4PHgsoYsvPp1YVnDF3rKWmR+7QmsecMKt6fjOjERbDarOBeu90YamHGrk+4tATxE9/GLeEUCqZHYd0F9znRrrhw76pxrl3B0zdj2I+D1vmDyhgGXKgU8mr1aqTbXNq9E5HTk+CKEY/0XOFggpqC/fftCbJpM151ETHN4OTcdlBIqKzVQswTP5l0+nUhETNexIwwhuYQNX1jKArlqP4oDRNiRyNUEQ0Vx8WWbZgXkYZjLUXIefYZbPtG6Y33jxja2Ih80jJ8a7/VwxUEFvs+GEMWL+1XN2N1+vOIt4xCZOIkvHPipJNB1IxFjiAoxlBPnBwxSoLnmKOqYOKL4LFjfTGGvcJVJxO45mgpVhUfd/pObQrZ59rO7x2Gz9ZXLd0+vtp2EIV31zotzCgq18Rba90Fqjn6CW455hiGQItHsi6l45TLbVB2LvcRQ3d9Yfu5GiClnpp8V7RV6XipjaGkdTp14WkkT5Pbj+LM0YP4wXG+A1gXm4z828oonc75BjCGYm8R3nv2eey6sBFpsdmotI+4KteuhYsouI4YluF6RRHudPHropTpmzEcJiOGphAqB3l1ejVqYXLpnej1JLhixCM9VzhcBFXaNx2n7UHACKUZnBxjOJAQ64mfa29Evl7nurD6UK/Nuc0YJr6KmBHG0Byi5oyJPMdwFk6yhHlzLSaOfQ0n716UR/se5Tq9MkMUKlG6JBLZGxbgOdX8GfUcQ7GvGLlJEVhxxj4hnSdAtr1YFRUv30ruKsO1g7PwjCrelSStJ4YSx4VqNFUswnhLFspVgqsZi7y6cMRJJMHrvyUX4BFD1ub7mvpHDLd/dxsZa9Zhi7UOO+82471zF7Cttt7JKP6j+4ab4RucMZSfSn5lRxFaOi+goWQexj3/Jr6V7tiwKQk6xlCayhCNhUXH0d5ZgTtlG7AuJ89+p+cYtr9oQea+I2jtKEPt3pcQ50UsdB2bhVGvbsCdDjbHkI0OWiE/lbwSNxxGTTViyKsLTyPtcwyzpHqyOYZpiE1dLc8xtO3H6tixWH6iBO3dlbh7fhFSIufgq05lSonetetjJsd4DWpy4jAzLRVxq/eiT6W5ejlCFL6W5xhuO4hm1kalWXguYTGsjjmG2nVRyvPNGEZibn4RHtrnj8a8sBx1qrr2ls7F6KnLUdde48ZH5byu64A8fGIKoXIYQ2X0QUVeTu+EAajXk+D2zHik5wqHi6B6bAzd5xg6epcDCLFCEtFF/HjGkETM+F4bawcjjCErJ/Ci1s/jx+yp5Pflp5LvMyG5vhoT4tJx4k4lbG2luLgvHUlhzu9Ss1UsQFJEOFI+OOpIbmpjyK7xTkEKwuZsQbMklGx6hnYSZqP+7OGTtIQxCI9NwsqiVcj0QAxZ3H/wShryyk+hw1aN5opFSI7KRmWfnENYHTSFkieGPGNIgme44LE28mXEkB13tvW+k/HbVFWL7E25+L9Va7Dko3zk3bjr2L6nsQ1M59hx6mUwxpCV03v7Q7zzyjOIHsOeeE3Hp/b3GA408izNYZ8eh8iwMMRPmoVdlf3vJGytXo15SexJ5nF44/Bqx4NYmu/WCwlB+oFzjmsS24uwI30sxoSy10a9Ks1j5BlDdg16dWFP3+rNpWPH9dRvc7yrMHFG/1PJbNujy+uxeOpfEBkejvjUNGwvO+Ooo+75OLHHymSLYF2KZ0MisKbskqO8gXCRn0pOQKy9jfbXujyVrNEOmmXa32PIw0XW5GnI3ZeBlJgwRCfNQF6V8+uQxO4j2Dc/EZGj5Fd7qdtPuU7XdUCMIatEwIWKZww5vRNWdyYsWj0JeY6hjhhxSM89zmW0UmuUTluMOL1LjhDzxI9rDEnE/CJiRhnDQIuazB05MT0VHoUJGUvwlf09hqyXXb5lCp6LHA1LQgrWl27CWxZnYyh2f4iFTz+PXTf7TZirMRRb3kdm2HP4sF7uGesJgmsSFNmE+zFZqJAMpcaLZu1iKBnK00sxOykCo0NHISZpCnJOnZJGSZQytYSSbdOry0CCToJnrOCxtvDVGLJfNSlobHWYP9dbx+r/q9obHEZC4QZbs/cYKnMLlbWncwzV5dBnZ8M9UvFw1WSjcAiYMQy4UHGMIQOX1zth27V6Eux7XQHgGEPucR4YQz0x0u9d6gsxT/xcSehqUknEjBcxo4xhsIua7UwmIqeslW5/sXgxahF7zuNKXioiZm10zFEyqmwqx/d2cs01RmLpqzFkdWC/asJ+3URtAl0/lzxsxGMDOWrktVNZvnPSjNj5K04CZgyDXajMSBKqU2CC3l/BydrTKGPIygpWUROFKpx+Ywym55caZwhZx5A96DLagnFp83HsRrVhZVMcDj4O/RlTgzGGrG3v9lwHe0+hqyFko4lspJD9tCtxYPAcIAwDh2HAjCFr9GAVKiJs4AhrRuz9KWJGGkOGHYkacdeMMTSUdRqsMWR1ZS+vftBTB/ZKGmvH97jVdVNzTuFQXhedi2LbKA4E1BiyiyChIjIbRebhWI7RxpBhRKJGMTccY8XTazLCGHp6LtqPYi0YORBwY8hAI6Gi4AnG4BmKOvvDGA5FvekcFNNm5QAZQ+KmWblplnqZwhiaBQyqByUMs3GAjCFx0mycDPb6kDGkmAp2Dvu7/mQM6ekxmihtYg6QMSQR87cIjLTyyRhSTI00znt7vWQMTWwKvG1M2n/4JTwyhsOvTSlOA9um3hjDPQXvgxbCYKRxgIwhGUMaMTQxBwZjDEdaMqPrJQH3hAOeGMNffvkFjx49ooUwGLEcYDHg61+IJwf+/PPPYA7Uk6ClfSi5Ewf6OeCrMezs7JR+4YGJIC2EAXFA5gCLJ0+MoSe6RvsQAoSANgIeGUPqfVHPk3rfvnHgyZMn2pHH+fb333/HTz/9RAthQBzQ4MCvv/7KiR7aRAgQAoNFwCNjONiT0PGEACFACBAChAAhQAgQAuZHgIyh+duIakgIEAKEACFACBAChMCQIEDGcEhgppMQAoQAIUAIEAKEACFgfgTIGJq/jaiGhAAhQAgQAoQAIUAIDAkCZAyHBGY6CSFACBAChAAhQAgQAuZHgIyh+duIakgIEAKEACFACBAChMCQIEDGcEhgppMQAoQAIUAIEAKEACFgfgTIGJq/jaiGhAAhQAgEHQL/+9//8Ntvv9FCGAwJBxjf6M8YBMgYGoMjlUIIGIrAn3/+OSTJlISbjMtgOfDHH39ocp/9ek9XVxd6enpoIQz8ygHGM8Y3+jMGAVMbQ/aGe/bLEbQQBsHMgX//+99eRyv7GcqWlha/JlMSbDIsg+UAE2O9n31k2/5p4t8xp7pdGTbtc6XmMBlDr1VG/wBTG0MmjizpUAAPnwAeiW3JDJ63f4z77PfJRyJedM3BFe9kDIOrvYZjfJEx9FZh+Pub3hiSOFLSCfZERsaQOBzsHObVn4wh8ZvHj6HYRsaQb/S83UrGkG510KiUnzlAxpCEcyjEMVDnIGNI/A4U95TzkjH01vrx9ydj6GdToBCX1iM3eZIxHLltPxLinowh8TvQPCdjyDd63m4lY0jGkEYM/cwBMoYknIEWTn+efzDG8LFQC5twlXKQn3OQP9vfDGWTMfTW+vH3HxbGkJILCa8ZkpNeHfxpDIn7xH093g3V994aQ0GoRW3nbRxubsHuH9qlZW9jK8613kdr77dkEv1oEsW+M7hYuAFfWM8PK5zJGPKNnrdbg9YYmjm5DNfg86fQDGfMjDaGZua+PzgyHLgxHK5Br229MYYdfdfwWXOzwxAqxlBZFzS24UbXTb+Zlu76rViZFo9oSwTGvZSFz+suen0usXUr5obOxVnB6vWxagxt17djVVo8osZYkDBtDvZfqRhUeeqy9T6LfadR8el6fFbz9aDPJQqH8feEEISEqJaxi2AdBC7fbk1wlBf21m6P60jG0Fvrx98/KI1hIJOLKOzB8jA5EELDozEhYynONlx2IrCRwacX4Orvmw9MhWXlHqc6qLe7fpavYSoOt2gnNkpY7qNQviYshr2RxjCw3DdeCFy5qfW/0fFE/DaW354aQ+HxVa4pVJvDuz31bvmso7cCtzqOoc1W5rZNizeu34lCCXZOikTWvi/Q2lGOuv1piJ20Bre9NDJGGENROIeDsy14Lb8YrV0VuPV5OuLGLcM3XtbF9RoD8b/YnYfskJdwtF1bT3yp06OiGSBjyDdv/twadMYw8MmFGUPZVAldZ3FpeyqiZ23EgwAGtJHGkBKWu2iqE5u3CYsda5QxDDT3FRz8IQRK2f5eE7+N53fQGMOuPGSHzkapTTYwYu8uLH46DcfarRCFyzixcBTeKsjFohcjMCb6WWR+cACt9rzednktMl+IhCUmCSsOrUSGasSw49pmLJsRh8gxFoyb2T8KyStTFD7HlnEJyKtT6nIa1tJDuGevmy9lClWLMPbFlbhur7MoFGPL89F4t0oeuLi4LsoxGpe647iTuRYadiNnTiJiLeGInzIb+6z9o5d6dVFiVSsfiOXZiJ2XgaXPRGBa3nYUvBKFmClvwdrFsGYaOgv5x+Zjcmw4Yl6YiY+qy53q422epRFDY20iGUMv53O4jraJ3Tvw19BXUNIlBzgv+JrLlmPu+CiEPT0KMeNnYFvZWTwWBg6U1up1WDApBpZwCxKnz8GhbyqlIBK/no8w9TC+9DkZBd/LddELdvkapmFbYRZSY8IQk5yGfPttDEpYxiYsljxHgjFUkv3HxfOQEh2O2OQ07KqRxWUgweq5vg1vvxyPaElY5+HwdzK/GXa8eNLjNztOT8yI38bz21NjWNtx2+kW8s77D/Hu2Qr8regINpZfctpW1NwCUZWbu3orcfSHTahtLcSRBxvRZnM2EopJ4a1dR/rUuVw2cU8hfv57uNpUida6HMyNTERePcvPx5E3IQJZhUfQ2nEeV/alId5uDKVtKZHStraOctQXpiF28lppFJJfZhWqNsQj9uWlOFF7DjbVwILPZfYexPqx47Cj3m4261dhfNwCVPfK/yvYXN0cD7UxFIXzKM60YObWA2jquICG0vlIil+IS732a9e5PqU8PWMYOWUFrjXkIjPuZXxx+zByU6KQU63oXQyyPjmElnYZs5jk5ahXYUDG0Fij521pQWcMA55cpN5O/21YUdiNZaH9/yvB4h58R7EtORpvFJegrbsS986sxtIVubjlMIbagSL2HcHHsych52QJWtvL8N3emYiy3/4Q+2og2C6jsXAKLCsL0Ge7LC2y2eQFO+uxRWHu7gNobi/DtZ2TMWbqO2iQ6kIJy8iExfhglDEMNPcVbmsKgRQXMcjI7+dUuMJTjmCJwknsmhKJTMftvZcQO/Ft3FSJBDuvezzx+H0ceTpiJgrEb6P57akx/Ez1sMmuB4/w+sYtWFawH2uOlWLxhx9ja22dkzn8wdZ/O/leVykqH8rTZdj6XveXTiNMCjd564GNYQiyPpc7M4wnJ5dGYEVpNUTXkcamTZilGMOuD/C6xijk8Q5mgNgopHaZrJ6irRRnt6djUswoxE7NxGffyfMdRR/LFIUaVG+IxcS8YxI2t3YmI+6d/RAGjKVPsTY6FYUP7IZSqECDtRgPuq3g1UXBWjMflGfDkrkVnUIR3ktdiEtCJYozw7GmXDGGqvOxkdtQ51vRZAy9tXLG7h90xjDgycVnY3gSOydZkLWnCA1NlU7BKvdc+YHiCMKHuXhtVAa+VgW71q1kUeAEu3QNKdh/354ImjbjVdWtEUpYdlwMSFis3YwyhoHmvoODGnOKZA5rc4onWPKIu/btPeV8bO1uDDn85ggrK4v4bSy/PTGG7IGp/MY2h/F790w53tzzqeN/ZX6hen2t65bD/N3t+hJVjz6R5hgWP8hBSeNWfNWUJy1lLbsc+6k54/rZE2O48HiVW1lux6kePpG2ud21kQcKFGOoVaa6bmLPGVS8PxnRiYtgtVkxmDKFS0sQP/Ft3BJOoWB6FNZdcJ7/zs7rHkv906PU9WKfeXVR9vXNGPYPpqhHbpUyyRgaa/S8LS2ojKEpkouPxpARvv3qZqxOfx7xllGITJyEd06clAyia2Co/xeFclR/lIYJsaMRqiQglYlj5WobQ06wu14DS3Qh6TitMpusXEpY7hh6m7AYjkYYQzNwn12LxAtdY6hK9i6c0hMsN9F14aZyTqPFTLoOEmTHfGkFZ1/47Ykx7BWuOpnANUdLsar4uNN3alPIPtd2fu8waba+aun28dW2gyi8u9ZpYUZRqT9v7Tby5zbHMARaJs7tOFVHWh5RS8cpl9u1Er/sI4aaZbYfxZmjB/GDPeeKwgGsi01G/m1llM77MqVz9hbhvWefx64LG5EWm41K+5xFNS7useTaySrD9Yoi3GHzAaVOlnZdlDJ9M4b8gRBveUhzDL21fvz9g8oYmiK5uAiXPOIxCyftcwyVYHENPuV7thaFajRVLMJ4SxbKpXkczIBoB4p4cy0mjn0NJ+9elE3ko1y3VyVoG0NOsLteg0rERUpY/bdUTDRiaAbuKxzWFAIOpyTO6wiWcSOGnokZ8Vs7zyht660gs+M8MYZsv31N/SOG27+7jYw167DFWoedd5vx3rkL2FZb72QU/9F9w83wDcoYOp5KZnMF7U8lO80H1DGGwjFsf9GCzH3suDLU7n0JccqtZDb/MCUaC4uOo72zAnfKNmBdTp59Wo58K1nTGNr2Y3XsWCw/UYL27krcPb8IKZFz8FWnMq/P+zKlOBNqUJMTh5lpqYhbvRd9Lp19to+rNonC1/Icw20H0dzJ5hhm4bmExbA65hhq14WVJZ1Tq6M44K3kSMzNL8JD+7zMmBeWo05V197SuRg9dTnq2mvcOKCcV70mY8g3et5uDSpjyIgQ+OTSP4r0mD2V/L78VPJ9FalZPd2Cr7cIH7yShrzyU+iwVaO5YhGSo7JR2afMudAOFPH6akyIS8eJO5WwtZXi4r50JIU5v0Or69gsjHp1A+50sDmGNfYHWnjB3n8NrK7y7QJ5xFCkhGVowmL4GjFiaAbuszpIfNESgoGMoY5gKXMMsyTRtYt16moP5hjy+M0Ra+K34fz21Biebb3vZPw2VdUie1Mu/m/VGiz5KB95N+46tu9pbAPrDCmcU9aDMYasjO66XCyfaX+COG0+vqi3z+vjjO6x41qrV2NeEntaeRzeOLwaC1R3baQHnabHITIsDPGTZmFXpfyOwIFuJT+6vB6Lp/4FkeHhiE9Nw/ayM47r9bVMVlfBuhTPhkRgTdklR3ma7xwMCUH6gXPSPvKDXAmIHcOeSk7H/lqXp5I1r0//9VXsqWT+HMNpyN2XgZSYMEQnzUBelfMriMTuI9g3PxGRo+RXwyn1VHjguiZj6K314+8fdMYw0MlFvs0rk/Wp8ChMyFiCr+zvMeQFH5tnde/0UsxOisDo0FGISZqCnFOnVE8lawcK62jUjSMAAANjSURBVM2Vb5mC5yJHw5KQgvWlm/CWxdkYiu1F2JE+FmNCWb1edbyOQS/Y1beqWYCpjSH7nxKWcQmL4WmUMQw89zlCMIAxZDhoCRb7vqd+m+NFv4kz+p9K5sWTVJ70ig3vxIwdR/w2lt+eGkP2qyYFja0O8+d661j9f1V7g8PUsDZTFvYeQ2VuobL2dI6hUgat+/EMBBau+mNEHcgY8o2et1uDzhgOx+Tij0AxIthGWhn+agejjOFw5P5I41ggr9df/PbUGLJrZ79qwn7dRG0CXT+XPGzEY5UZDCRmdG7jTaQ/eEjG0Fvrx98/6IzhcEwu/ggUSmjeJzR/tYNRxnA4cp946j1PfcXMX/z2xhiyut/tuQ72nkJXQ8hGE9lIIfv9b1+vkY4bOj6ZCWsyhnyj5+3WoDSGlFxGZvCbKRF5UxcjjSFxn7jvDfeGYl9vjSGrE3t59YOeOrBX0lg7vsetrpuacwqHov50juCPKTKG3lo//v5BawwpuQR/MI+UhGy0MSTuE/fNFDu+GEMz1Z/qEvzxRMaQb/S83RrUxpACOvgDeiS0oT+M4UjAja4xOOKbjGFwtNNwjicyht5aP/7+ZAxpkjPN5/EzB8gYknAOZ1EmY0j8DjS/yRjyjZ63W8kY+tkUBDpg6PyBT9pkDAPfBhQH/msDMob+w5Z46xm2ZAy9tX78/ckYkjGkEUM/c4CMoWfJnUQwOHHiGcM9Be+DFsLA3xwoyM9FZ2cn3+3QVo8RCApj6G9SUfmUuPzJgcEYQ3/Wi8om3hvBAT1jyL5/9OgRLYTBkHBAj4ceuyHa0YGA6Y0h6wX8+OOPtBAGQcsBX4zhL7/8MiTJlISbjMtgOfDkyROHoNAHQoAQCH4ETG0Mf//9d/z000+0EAZBzYH//Oc/wZ8p6AoIAUKAECAERgQCpjaGI6IF6CIJAUKAECAECAFCgBAwCQJkDE3SEFQNQoAQIAQIAUKAECAEAo0AGcNAtwCdnxAgBAgBQoAQIAQIAZMgQMbQJA1B1SAECAFCgBAgBAgBQiDQCJAxDHQL0PkJAUKAECAECAFCgBAwCQJkDE3SEFQNQoAQIAQIAUKAECAEAo0AGcNAtwCdnxAgBAgBQoAQIAQIAZMgQMbQJA1B1SAECAFCgBAgBAgBQiDQCPw/KlIz5Tvr6pkAAAAASUVORK5CYII=;" parent="gNwDX6Y52TMu_98uNcVp-3" vertex="1">
          <mxGeometry x="20" y="50.5" width="646" height="79" as="geometry" />
        </mxCell>
        <mxCell id="s46t9nGi8IWXGiIq6aix-0" value="Kafka" style="shape=swimlane;startSize=25;fontSize=13;fontStyle=1;align=center;strokeColor=#82b366;strokeOpacity=100;fillOpacity=100;rotation=0;fillColor=#d5e8d4;strokeWidth=1.2;" vertex="1" parent="2sZWoGPq9gcTRGBdr20x-1">
          <mxGeometry x="830" y="300" width="360" height="143" as="geometry">
            <mxRectangle x="240" y="-1087" width="110" height="25" as="alternateBounds" />
          </mxGeometry>
        </mxCell>
        <mxCell id="s46t9nGi8IWXGiIq6aix-1" value="" style="outlineConnect=0;fontColor=#232F3E;gradientColor=none;fillColor=#D05C17;strokeColor=none;dashed=0;verticalLabelPosition=bottom;verticalAlign=top;align=center;html=1;fontSize=12;fontStyle=0;aspect=fixed;pointerEvents=1;shape=mxgraph.aws4.ecs_service;" vertex="1" parent="s46t9nGi8IWXGiIq6aix-0">
          <mxGeometry x="10" y="67.5" width="27.9" height="34" as="geometry" />
        </mxCell>
        <mxCell id="s46t9nGi8IWXGiIq6aix-2" style="edgeStyle=orthogonalEdgeStyle;rounded=0;orthogonalLoop=1;jettySize=auto;html=1;dashed=1;fontSize=21;" edge="1" parent="s46t9nGi8IWXGiIq6aix-0" source="s46t9nGi8IWXGiIq6aix-3" target="s46t9nGi8IWXGiIq6aix-5">
          <mxGeometry relative="1" as="geometry" />
        </mxCell>
        <mxCell id="s46t9nGi8IWXGiIq6aix-3" value="&lt;font style=&quot;font-size: 10px&quot;&gt;master&lt;/font&gt;" style="pointerEvents=1;shadow=0;dashed=0;html=1;strokeColor=none;labelPosition=center;verticalLabelPosition=bottom;verticalAlign=top;outlineConnect=0;align=center;shape=mxgraph.office.servers.server_generic;fillColor=#7FBA42;labelBackgroundColor=none;fontSize=21;" vertex="1" parent="s46t9nGi8IWXGiIq6aix-0">
          <mxGeometry x="174" y="36" width="27" height="52" as="geometry" />
        </mxCell>
        <mxCell id="s46t9nGi8IWXGiIq6aix-4" value="&lt;font style=&quot;font-size: 10px&quot;&gt;kafka2&lt;/font&gt;" style="pointerEvents=1;shadow=0;dashed=0;html=1;strokeColor=none;labelPosition=center;verticalLabelPosition=bottom;verticalAlign=top;outlineConnect=0;align=center;shape=mxgraph.office.servers.server_generic;fillColor=#7FBA42;labelBackgroundColor=none;fontSize=21;" vertex="1" parent="s46t9nGi8IWXGiIq6aix-0">
          <mxGeometry x="290" y="37" width="27" height="52" as="geometry" />
        </mxCell>
        <mxCell id="s46t9nGi8IWXGiIq6aix-5" value="&lt;font style=&quot;font-size: 10px&quot;&gt;kafka1&lt;/font&gt;" style="pointerEvents=1;shadow=0;dashed=0;html=1;strokeColor=none;labelPosition=center;verticalLabelPosition=bottom;verticalAlign=top;outlineConnect=0;align=center;shape=mxgraph.office.servers.server_generic;fillColor=#7FBA42;labelBackgroundColor=none;fontSize=21;" vertex="1" parent="s46t9nGi8IWXGiIq6aix-0">
          <mxGeometry x="250" y="37" width="27" height="52" as="geometry" />
        </mxCell>
        <mxCell id="s46t9nGi8IWXGiIq6aix-6" value="&lt;font style=&quot;font-size: 10px&quot;&gt;cloud / confluent&lt;/font&gt;" style="pointerEvents=1;shadow=0;dashed=0;html=1;strokeColor=none;labelPosition=center;verticalLabelPosition=bottom;verticalAlign=top;outlineConnect=0;align=center;shape=mxgraph.office.servers.virtual_server;fillColor=#2072B8;labelBackgroundColor=none;fontSize=21;" vertex="1" parent="s46t9nGi8IWXGiIq6aix-0">
          <mxGeometry x="90" y="36" width="28" height="52" as="geometry" />
        </mxCell>
        <mxCell id="s46t9nGi8IWXGiIq6aix-8" style="edgeStyle=orthogonalEdgeStyle;rounded=0;orthogonalLoop=1;jettySize=auto;html=1;exitX=0.75;exitY=1;exitDx=0;exitDy=0;" edge="1" parent="2sZWoGPq9gcTRGBdr20x-1" source="e9t1QxQzN6Q4QcO_MpgL-2" target="s46t9nGi8IWXGiIq6aix-0">
          <mxGeometry relative="1" as="geometry" />
        </mxCell>
        <mxCell id="s46t9nGi8IWXGiIq6aix-16" value="&lt;font style=&quot;font-size: 9px&quot;&gt;capa&lt;br&gt;servicios&lt;/font&gt;" style="rounded=0;whiteSpace=wrap;html=1;strokeColor=#6c8ebf;fillColor=#dae8fc;" vertex="1" parent="2sZWoGPq9gcTRGBdr20x-1">
          <mxGeometry x="659" y="200" width="41" height="50" as="geometry" />
        </mxCell>
      </root>
    </mxGraphModel>
  </diagram>
</mxfile>
